{
.appVersion = "3340";
.formatVersion = 3;
date = "2025-01-12 19:30:48 +0000";
familyName = "Neue Schrift";
fontMaster = (
{
customParameters = (
{
name = unitizerUnit;
value = "19.58";
}
);
id = m01;
metricValues = (
{
over = 16;
pos = 800;
},
{
over = 16;
pos = 700;
},
{
over = 16;
pos = 500;
},
{
over = -16;
},
{
over = -16;
pos = -200;
},
{
}
);
name = Regular;
}
);
glyphs = (
{
glyphname = H.001;
lastChange = "2025-01-13 19:00:14 +0000";
layers = (
{
layerId = m01;
shapes = (
{
closed = 1;
nodes = (
(670.83,366,o),
(676,363.981,o),
(676,330,cs),
(676,170,l),
(670.675,52.842,o),
(679.258,39.271,o),
(606,28,cs),
(585,25,l),
(577,17,o),
(579,-0.333,o),
(587,-3,c),
(637.667,-0.333,o),
(677.333,0,o),
(724,0,cs),
(768,0,o),
(807.667,-0.333,o),
(861,-3,c),
(869,-0.333,o),
(870.667,21,o),
(864,25,c),
(837,28,ls),
(771.259,38.519,o),
(769,45.453,o),
(769,170,cs),
(769,578,ls),
(769,692.336,o),
(768.197,715.496,o),
(837,721,cs),
(860,723,l),
(868,728.333,o),
(866,748,o),
(858,752,c),
(807.333,748,o),
(768,748,o),
(724,748,cs),
(677.333,748,o),
(640.333,748,o),
(587,752,c),
(579,748,o),
(577,728.333,o),
(585,723,c),
(606,721,ls),
(674.754,715.5,o),
(676,692.927,o),
(676,578,cs),
(676,448,ls),
(676,411.801,o),
(671.111,411,o),
(619,411,cs),
(295,411,ls),
(240.891,411,o),
(238,412.246,o),
(238,448,cs),
(238,578,ls),
(238,690.064,o),
(237.343,715.507,o),
(306,721,cs),
(328,723,l),
(334.667,728.333,o),
(333,748,o),
(325,752,c),
(277,748,o),
(238,748,o),
(194,748,cs),
(146,748,o),
(107,749.333,o),
(51,752,c),
(43,748,o),
(41,728.333,o),
(49,723,c),
(78,721,ls),
(139.302,715.427,o),
(145,693.258,o),
(145,578,cs),
(145,170,ls),
(145,53.007,o),
(144.917,41.733,o),
(79,28,cs),
(60,25,l),
(52,17,o),
(55.333,-0.333,o),
(62,-3,c),
(84,-2.333,o),
(105.5,-1.667,o),
(126.5,-1,cs),
(147.5,-0.333,o),
(170,0,o),
(194,0,cs),
(238,0,o),
(275.333,-0.333,o),
(338,-3,c),
(344.667,-0.333,o),
(348,21,o),
(340,25,c),
(307,28,ls),
(240.823,36.272,o),
(238,53.047,o),
(238,170,cs),
(238,330,ls),
(238,363.861,o),
(241.215,366,o),
(295,366,cs),
(619,366,l),
(619,366,l)
);
}
);
userData = {
assembly = "PUSHW[ ]	/* 4 values pushed */
6 3 30 4
CALL[ ]	/* CallFunction */
PUSHW[ ]	/* 1 value pushed */
6
SRP0[ ]	/* SetRefPoint0 */
PUSHW[ ]	/* 4 values pushed */
92 3 68 4
CALL[ ]	/* CallFunction */
PUSHW[ ]	/* 1 value pushed */
92
SRP0[ ]	/* SetRefPoint0 */
PUSHW[ ]	/* 1 value pushed */
6
SRP0[ ]	/* SetRefPoint0 */
PUSHW[ ]	/* 1 value pushed */
55
MDRP[10000]	/* MoveDirectRelPt */
PUSHW[ ]	/* 1 value pushed */
68
SRP0[ ]	/* SetRefPoint0 */
PUSHW[ ]	/* 1 value pushed */
117
MDRP[10000]	/* MoveDirectRelPt */
SVTCA[0]	/* SetFreedomAndProjectionVectorToAxis */
PUSHW[ ]	/* 1 value pushed */
0
RCVT[ ]	/* ReadCVT */
IF[ ]	/* If */
PUSHW[ ]	/* 1 value pushed */
40
MDAP[1]	/* MoveDirectAbsPt */
ELSE[ ]	/* Else */
PUSHW[ ]	/* 2 values pushed */
40 14
MIAP[0]	/* MoveIndirectAbsPt */
EIF[ ]	/* EndIf */
PUSHW[ ]	/* 1 value pushed */
0
RCVT[ ]	/* ReadCVT */
IF[ ]	/* If */
PUSHW[ ]	/* 1 value pushed */
43
MDAP[1]	/* MoveDirectAbsPt */
ELSE[ ]	/* Else */
PUSHW[ ]	/* 2 values pushed */
43 14
MIAP[0]	/* MoveIndirectAbsPt */
EIF[ ]	/* EndIf */
PUSHW[ ]	/* 1 value pushed */
0
RCVT[ ]	/* ReadCVT */
IF[ ]	/* If */
PUSHW[ ]	/* 1 value pushed */
46
MDAP[1]	/* MoveDirectAbsPt */
ELSE[ ]	/* Else */
PUSHW[ ]	/* 2 values pushed */
46 14
MIAP[0]	/* MoveIndirectAbsPt */
EIF[ ]	/* EndIf */
PUSHW[ ]	/* 1 value pushed */
0
RCVT[ ]	/* ReadCVT */
IF[ ]	/* If */
PUSHW[ ]	/* 1 value pushed */
77
MDAP[1]	/* MoveDirectAbsPt */
ELSE[ ]	/* Else */
PUSHW[ ]	/* 2 values pushed */
77 14
MIAP[0]	/* MoveIndirectAbsPt */
EIF[ ]	/* EndIf */
PUSHW[ ]	/* 1 value pushed */
0
RCVT[ ]	/* ReadCVT */
IF[ ]	/* If */
PUSHW[ ]	/* 1 value pushed */
80
MDAP[1]	/* MoveDirectAbsPt */
ELSE[ ]	/* Else */
PUSHW[ ]	/* 2 values pushed */
80 14
MIAP[0]	/* MoveIndirectAbsPt */
EIF[ ]	/* EndIf */
PUSHW[ ]	/* 1 value pushed */
0
RCVT[ ]	/* ReadCVT */
IF[ ]	/* If */
PUSHW[ ]	/* 1 value pushed */
83
MDAP[1]	/* MoveDirectAbsPt */
ELSE[ ]	/* Else */
PUSHW[ ]	/* 2 values pushed */
83 14
MIAP[0]	/* MoveIndirectAbsPt */
EIF[ ]	/* EndIf */
PUSHW[ ]	/* 1 value pushed */
0
RCVT[ ]	/* ReadCVT */
IF[ ]	/* If */
PUSHW[ ]	/* 1 value pushed */
15
MDAP[1]	/* MoveDirectAbsPt */
ELSE[ ]	/* Else */
PUSHW[ ]	/* 2 values pushed */
15 4
MIAP[0]	/* MoveIndirectAbsPt */
EIF[ ]	/* EndIf */
PUSHW[ ]	/* 1 value pushed */
0
RCVT[ ]	/* ReadCVT */
IF[ ]	/* If */
PUSHW[ ]	/* 1 value pushed */
18
MDAP[1]	/* MoveDirectAbsPt */
ELSE[ ]	/* Else */
PUSHW[ ]	/* 2 values pushed */
18 4
MIAP[0]	/* MoveIndirectAbsPt */
EIF[ ]	/* EndIf */
PUSHW[ ]	/* 1 value pushed */
0
RCVT[ ]	/* ReadCVT */
IF[ ]	/* If */
PUSHW[ ]	/* 1 value pushed */
21
MDAP[1]	/* MoveDirectAbsPt */
ELSE[ ]	/* Else */
PUSHW[ ]	/* 2 values pushed */
21 4
MIAP[0]	/* MoveIndirectAbsPt */
EIF[ ]	/* EndIf */
PUSHW[ ]	/* 1 value pushed */
0
RCVT[ ]	/* ReadCVT */
IF[ ]	/* If */
PUSHW[ ]	/* 1 value pushed */
102
MDAP[1]	/* MoveDirectAbsPt */
ELSE[ ]	/* Else */
PUSHW[ ]	/* 2 values pushed */
102 4
MIAP[0]	/* MoveIndirectAbsPt */
EIF[ ]	/* EndIf */
PUSHW[ ]	/* 1 value pushed */
0
RCVT[ ]	/* ReadCVT */
IF[ ]	/* If */
PUSHW[ ]	/* 1 value pushed */
105
MDAP[1]	/* MoveDirectAbsPt */
ELSE[ ]	/* Else */
PUSHW[ ]	/* 2 values pushed */
105 4
MIAP[0]	/* MoveIndirectAbsPt */
EIF[ ]	/* EndIf */
PUSHW[ ]	/* 1 value pushed */
0
RCVT[ ]	/* ReadCVT */
IF[ ]	/* If */
PUSHW[ ]	/* 1 value pushed */
108
MDAP[1]	/* MoveDirectAbsPt */
ELSE[ ]	/* Else */
PUSHW[ ]	/* 2 values pushed */
108 4
MIAP[0]	/* MoveIndirectAbsPt */
EIF[ ]	/* EndIf */
PUSHW[ ]	/* 4 values pushed */
61 1 0 4
CALL[ ]	/* CallFunction */
PUSHW[ ]	/* 1 value pushed */
61
SRP0[ ]	/* SetRefPoint0 */
PUSHW[ ]	/* 1 value pushed */
15
SRP0[ ]	/* SetRefPoint0 */
PUSHW[ ]	/* 2 values pushed */
11 1
MIRP[11100]	/* MoveIndirectRelPt */
PUSHW[ ]	/* 1 value pushed */
40
SRP0[ ]	/* SetRefPoint0 */
PUSHW[ ]	/* 2 values pushed */
36 1
MIRP[11100]	/* MoveIndirectRelPt */
PUSHW[ ]	/* 1 value pushed */
49
MDRP[10000]	/* MoveDirectRelPt */
PUSHW[ ]	/* 1 value pushed */
49
MDAP[1]	/* MoveDirectAbsPt */
PUSHW[ ]	/* 1 value pushed */
50
MDRP[10000]	/* MoveDirectRelPt */
PUSHW[ ]	/* 1 value pushed */
73
MDRP[10000]	/* MoveDirectRelPt */
PUSHW[ ]	/* 1 value pushed */
74
MDRP[10000]	/* MoveDirectRelPt */
PUSHW[ ]	/* 1 value pushed */
74
MDAP[1]	/* MoveDirectAbsPt */
PUSHW[ ]	/* 1 value pushed */
86
MDRP[10000]	/* MoveDirectRelPt */
PUSHW[ ]	/* 1 value pushed */
86
MDAP[1]	/* MoveDirectAbsPt */
PUSHW[ ]	/* 1 value pushed */
87
MDRP[10000]	/* MoveDirectRelPt */
PUSHW[ ]	/* 1 value pushed */
11
SRP0[ ]	/* SetRefPoint0 */
PUSHW[ ]	/* 1 value pushed */
98
MDRP[10000]	/* MoveDirectRelPt */
PUSHW[ ]	/* 1 value pushed */
98
MDAP[1]	/* MoveDirectAbsPt */
PUSHW[ ]	/* 1 value pushed */
99
MDRP[10000]	/* MoveDirectRelPt */
PUSHW[ ]	/* 1 value pushed */
111
MDRP[10000]	/* MoveDirectRelPt */
IUP[0]	/* InterpolateUntPts */
IUP[1]	/* InterpolateUntPts */";
};
width = 914;
}
);
note = H;
},
{
glyphname = H.002;
lastChange = "2025-01-13 19:00:14 +0000";
layers = (
{
hints = (
{
horizontal = 1;
place = (681,38);
type = Stem;
},
{
horizontal = 1;
place = (348,47);
type = Stem;
},
{
horizontal = 1;
place = (-4,38);
type = Stem;
},
{
place = (608,90);
type = Stem;
},
{
place = (123,92);
type = Stem;
}
);
layerId = m01;
shapes = (
{
closed = 1;
nodes = (
(786,719,l),
(647,714,l),
(520,718,l),
(520,680,l),
(561,674,l),
(578,667,l),
(596,653,l),
(603,611,l),
(606,539,l),
(606,394,l),
(214,394,l),
(214,576,l),
(216,631,l),
(233,665,l),
(264,675,l),
(301,679,l),
(301,718,l),
(174,713,l),
(34,719,l),
(33,680,l),
(76,678,l),
(103,668,l),
(118,639,l),
(123,588,l),
(123,128,l),
(117,73,l),
(95,43,l),
(35,36,l),
(34,-3,l),
(179,4,l),
(302,-5,l),
(302,36,l),
(254,36,l),
(233,47,l),
(219,70,l),
(214,132,l),
(214,347,l),
(608,347,l),
(608,141,l),
(604,76,l),
(596,57,l),
(581,41,l),
(522,32,l),
(521,-5,l),
(658,0,l),
(786,-6,l),
(788,34,l),
(743,35,l),
(717,47,l),
(705,69,l),
(700,96,l),
(698,171,l),
(698,583,l),
(700,633,l),
(714,663,l),
(739,672,l),
(785,679,l),
(785,679,l)
);
}
);
width = 821;
}
);
},
{
glyphname = H.003;
lastChange = "2025-01-13 19:00:14 +0000";
layers = (
{
hints = (
{
horizontal = 1;
place = (681,38);
type = Stem;
},
{
horizontal = 1;
place = (348,47);
type = Stem;
},
{
horizontal = 1;
place = (-4,38);
type = Stem;
},
{
place = (608,90);
type = Stem;
},
{
place = (123,92);
type = Stem;
}
);
layerId = m01;
shapes = (
{
closed = 1;
nodes = (
(786,719,l),
(647,714,l),
(520,718,l),
(520,680,l),
(561,674,l),
(578,667,l),
(596,653,l),
(603,611,l),
(606,539,l),
(606,394,l),
(214,394,l),
(214,576,l),
(216,631,l),
(233,665,l),
(264,675,l),
(301,679,l),
(301,718,l),
(174,713,l),
(34,719,l),
(33,680,l),
(76,678,l),
(103,668,l),
(118,639,l),
(123,588,l),
(123,128,l),
(117,73,l),
(95,43,l),
(35,36,l),
(34,-3,l),
(179,4,l),
(302,-5,l),
(302,36,l),
(254,36,l),
(233,47,l),
(219,70,l),
(214,132,l),
(214,347,l),
(608,347,l),
(608,141,l),
(604,76,l),
(596,57,l),
(581,41,l),
(522,32,l),
(521,-5,l),
(658,0,l),
(786,-6,l),
(788,34,l),
(743,35,l),
(717,47,l),
(705,69,l),
(700,96,l),
(698,171,l),
(698,583,l),
(700,633,l),
(714,663,l),
(739,672,l),
(785,679,l),
(785,679,l)
);
}
);
width = 821;
}
);
},
{
glyphname = H.004;
lastChange = "2025-01-13 19:00:14 +0000";
layers = (
{
hints = (
{
horizontal = 1;
place = (596,29);
type = Stem;
},
{
horizontal = 1;
place = (321,33);
type = Stem;
},
{
horizontal = 1;
place = (0,29);
type = Stem;
},
{
place = (480,104);
type = Stem;
},
{
place = (94,103);
type = Stem;
}
);
layerId = m01;
shapes = (
{
closed = 1;
nodes = (
(94,272,l),
(94,116,l),
(90,60,l),
(82,43,l),
(55,31,l),
(26,27,l),
(13,18,l),
(15,7,l),
(29,1,l),
(68,4,l),
(134,6,l),
(206,4,l),
(231,1,l),
(256,0,l),
(276,4,l),
(278,12,l),
(268,24,l),
(251,27,l),
(230,28,l),
(203,50,l),
(199,74,l),
(198,234,l),
(198,274,l),
(202,311,l),
(221,317,l),
(258,319,l),
(378,319,l),
(447,320,l),
(475,313,l),
(479,277,l),
(478,247,l),
(479,181,l),
(478,91,l),
(476,58,l),
(465,39,l),
(446,28,l),
(423,26,l),
(407,25,l),
(399,12,l),
(406,-1,l),
(416,-2,l),
(528,4,l),
(586,2,l),
(646,-3,l),
(664,4,l),
(666,11,l),
(661,19,l),
(620,27,l),
(596,43,l),
(586,61,l),
(585,101,l),
(584,161,l),
(585,215,l),
(584,390,l),
(585,481,l),
(584,536,l),
(594,573,l),
(613,587,l),
(629,592,l),
(653,594,l),
(666,607,l),
(663,617,l),
(646,621,l),
(617,618,l),
(529,616,l),
(462,618,l),
(432,620,l),
(417,621,l),
(407,620,l),
(400,608,l),
(401,599,l),
(408,595,l),
(438,593,l),
(465,579,l),
(478,563,l),
(479,509,l),
(480,427,l),
(480,392,l),
(476,354,l),
(454,349,l),
(306,349,l),
(214,351,l),
(205,356,l),
(200,376,l),
(200,507,l),
(203,564,l),
(223,586,l),
(243,592,l),
(277,600,l),
(282,608,l),
(278,616,l),
(263,620,l),
(251,619,l),
(163,614,l),
(67,618,l),
(50,618,l),
(32,620,l),
(19,617,l),
(15,605,l),
(17,595,l),
(27,591,l),
(52,592,l),
(85,574,l),
(97,539,l),
(97,466,l),
(96,323,l),
(96,323,l)
);
}
);
width = 683;
}
);
},
{
glyphname = H.005;
lastChange = "2025-01-13 19:00:14 +0000";
layers = (
{
hints = (
{
horizontal = 1;
place = (686,35);
type = Stem;
},
{
horizontal = 1;
place = (363,47);
type = Stem;
},
{
horizontal = 1;
place = (0,36);
type = Stem;
},
{
place = (642,91);
type = Stem;
},
{
place = (111,94);
type = Stem;
}
);
layerId = m01;
shapes = (
{
closed = 1;
nodes = (
(498,411,l),
(427,411,l),
(339,412,l),
(274,413,l),
(206,413,l),
(204,455,l),
(207,570,l),
(206,603,l),
(207,656,l),
(218,673,l),
(252,684,l),
(283,687,l),
(302,687,l),
(312,695,l),
(312,708,l),
(310,721,l),
(255,722,l),
(167,719,l),
(96,722,l),
(53,721,l),
(21,723,l),
(6,720,l),
(5,699,l),
(7,688,l),
(19,688,l),
(56,685,l),
(92,669,l),
(104,649,l),
(109,626,l),
(112,563,l),
(113,513,l),
(111,447,l),
(113,357,l),
(112,332,l),
(112,287,l),
(110,254,l),
(110,162,l),
(108,101,l),
(101,65,l),
(90,52,l),
(50,38,l),
(4,35,l),
(5,4,l),
(22,3,l),
(46,-1,l),
(103,6,l),
(144,4,l),
(268,3,l),
(306,1,l),
(310,24,l),
(300,33,l),
(235,42,l),
(209,59,l),
(202,106,l),
(202,335,l),
(204,363,l),
(243,367,l),
(300,364,l),
(348,365,l),
(430,363,l),
(504,367,l),
(553,365,l),
(611,368,l),
(623,367,l),
(639,367,l),
(641,324,l),
(639,236,l),
(640,170,l),
(637,96,l),
(627,55,l),
(590,41,l),
(535,37,l),
(536,3,l),
(559,1,l),
(608,5,l),
(717,5,l),
(763,2,l),
(798,1,l),
(840,5,l),
(842,21,l),
(838,36,l),
(827,38,l),
(769,46,l),
(744,64,l),
(734,104,l),
(732,145,l),
(733,212,l),
(732,287,l),
(733,344,l),
(733,404,l),
(734,454,l),
(735,509,l),
(736,582,l),
(735,634,l),
(744,670,l),
(782,686,l),
(839,690,l),
(840,710,l),
(837,722,l),
(831,723,l),
(821,722,l),
(720,718,l),
(618,722,l),
(538,722,l),
(537,699,l),
(540,689,l),
(550,688,l),
(563,689,l),
(577,687,l),
(608,684,l),
(635,665,l),
(641,644,l),
(644,579,l),
(646,535,l),
(644,496,l),
(644,464,l),
(641,418,l),
(569,415,l),
(569,415,l)
);
}
);
width = 848;
}
);
},
{
glyphname = H.006;
lastChange = "2025-01-13 19:00:14 +0000";
layers = (
{
hints = (
{
horizontal = 1;
place = (338,46);
type = Stem;
},
{
horizontal = 1;
place = (-1,36);
type = Stem;
},
{
horizontal = 1;
place = (694,21);
target = up;
type = BottomGhost;
},
{
place = (570,93);
type = Stem;
},
{
place = (109,91);
type = Stem;
}
);
layerId = m01;
shapes = (
{
closed = 1;
nodes = (
(261,384,l),
(216,392,l),
(207,416,l),
(204,456,l),
(202,513,l),
(201,593,l),
(202,628,l),
(205,654,l),
(219,669,l),
(238,675,l),
(284,687,l),
(292,698,l),
(284,710,l),
(270,715,l),
(257,714,l),
(202,707,l),
(162,706,l),
(77,711,l),
(54,712,l),
(21,715,l),
(10,709,l),
(7,704,l),
(22,686,l),
(34,683,l),
(95,669,l),
(109,632,l),
(110,588,l),
(110,447,l),
(111,359,l),
(106,200,l),
(106,106,l),
(99,69,l),
(67,43,l),
(39,40,l),
(11,29,l),
(4,20,l),
(8,7,l),
(21,2,l),
(89,7,l),
(126,10,l),
(169,10,l),
(205,9,l),
(260,1,l),
(272,0,l),
(292,0,l),
(303,17,l),
(291,32,l),
(266,35,l),
(210,59,l),
(200,82,l),
(198,122,l),
(196,236,l),
(197,286,l),
(199,311,l),
(220,338,l),
(237,340,l),
(273,340,l),
(371,337,l),
(533,340,l),
(553,333,l),
(567,304,l),
(566,253,l),
(567,157,l),
(567,132,l),
(564,72,l),
(537,45,l),
(480,34,l),
(462,26,l),
(457,13,l),
(472,-3,l),
(481,-2,l),
(496,-1,l),
(541,6,l),
(605,11,l),
(674,4,l),
(723,-5,l),
(740,-3,l),
(748,12,l),
(742,25,l),
(725,32,l),
(688,39,l),
(678,43,l),
(667,61,l),
(659,113,l),
(659,206,l),
(660,258,l),
(659,318,l),
(660,365,l),
(659,409,l),
(659,497,l),
(657,563,l),
(664,655,l),
(689,670,l),
(718,675,l),
(738,677,l),
(752,693,l),
(747,705,l),
(733,710,l),
(718,708,l),
(698,707,l),
(663,703,l),
(603,701,l),
(571,702,l),
(531,707,l),
(497,709,l),
(481,695,l),
(492,679,l),
(508,674,l),
(537,667,l),
(559,647,l),
(567,620,l),
(568,558,l),
(567,486,l),
(567,447,l),
(566,430,l),
(565,401,l),
(546,385,l),
(532,381,l),
(499,380,l),
(403,383,l),
(285,382,l),
(285,382,l)
);
}
);
width = 778;
}
);
},
{
glyphname = H.007;
lastChange = "2025-01-13 19:00:14 +0000";
layers = (
{
layerId = m01;
shapes = (
{
closed = 1;
nodes = (
(226.667,354,o),
(227,353,o),
(227,385,cs),
(227,528,ls),
(227,556,o),
(229.333,573.667,o),
(234,581,cs),
(242,592.333,o),
(256.333,598.667,o),
(277,600,cs),
(301,601.333,o),
(313,607,o),
(313,617,cs),
(313,626.333,o),
(306.333,631,o),
(293,631,cs),
(285,631,o),
(279.333,630.667,o),
(276,630,c),
(233.333,628,o),
(199.667,627,o),
(175,627,cs),
(147.667,627,o),
(121.667,627.667,o),
(97,629,cs),
(72.333,630.333,o),
(58,631,o),
(54,631,cs),
(40,631,o),
(33,626.333,o),
(33,617,cs),
(33,607,o),
(45,601.333,o),
(69,600,cs),
(89.667,598.667,o),
(103.667,592.333,o),
(111,581,cs),
(116.333,573.667,o),
(119,556,o),
(119,528,cs),
(119,100,ls),
(119,72.667,o),
(116.333,55.333,o),
(111,48,cs),
(103,36,o),
(89,29.333,o),
(69,28,cs),
(45,26,o),
(33,20.333,o),
(33,11,cs),
(33,1.667,o),
(39.667,-3,o),
(53,-3,cs),
(60.333,-3,o),
(66.333,-2.667,o),
(71,-2,cs),
(114.333,0,o),
(148.333,1,o),
(173,1,cs),
(188.333,1,o),
(213.833,0.333,o),
(249.5,-1,cs),
(285.167,-2.333,o),
(299.333,-3,o),
(292,-3,cs),
(306,-3,o),
(313,1.667,o),
(313,11,cs),
(313,20.333,o),
(301,26,o),
(277,28,cs),
(256.333,30,o),
(242,36.333,o),
(234,47,cs),
(229.333,54.333,o),
(227,72,o),
(227,100,cs),
(227,297,ls),
(227,318.333,o),
(229,320,o),
(265,320,cs),
(478,320,ls),
(508.667,320,o),
(511,319,o),
(511,295,cs),
(511,100,ls),
(511,72.667,o),
(508.667,55.333,o),
(504,48,cs),
(495.333,36,o),
(481,29.333,o),
(461,28,cs),
(437.667,26,o),
(426,20.333,o),
(426,11,cs),
(426,1.667,o),
(432.333,-3,o),
(445,-3,cs),
(453,-3,o),
(458.667,-2.667,o),
(462,-2,c),
(506,0,o),
(540.333,1,o),
(565,1,cs),
(591.667,1,o),
(617.333,0.333,o),
(642,-1,cs),
(666.667,-2.333,o),
(681,-3,o),
(685,-3,cs),
(699,-3,o),
(706,1.667,o),
(706,11,cs),
(706,20.333,o),
(694,26,o),
(670,28,cs),
(648.667,30,o),
(634.333,36.333,o),
(627,47,cs),
(621.667,54.333,o),
(619,72,o),
(619,100,cs),
(619,528,ls),
(619,556,o),
(621.667,573.667,o),
(627,581,cs),
(634.333,591.667,o),
(648.667,598,o),
(670,600,cs),
(694,601.333,o),
(706,607,o),
(706,617,cs),
(706,626.333,o),
(699.333,631,o),
(686,631,cs),
(678.667,631,o),
(672.667,630.667,o),
(668,630,cs),
(624.667,628,o),
(590.667,627,o),
(566,627,cs),
(550.667,627,o),
(525.167,627.667,o),
(489.5,629,cs),
(453.833,630.333,o),
(439.333,631,o),
(446,631,cs),
(432.667,631,o),
(426,626.333,o),
(426,617,cs),
(426,607,o),
(437.667,601.333,o),
(461,600,cs),
(481.667,598,o),
(496,591.667,o),
(504,581,cs),
(508.667,573.667,o),
(511,556,o),
(511,528,cs),
(511,385,ls),
(511,355.667,o),
(510,354,o),
(474,354,cs),
(260,354,l),
(260,354,l)
);
}
);
userData = {
assembly = "PUSHW[ ]	/* 1 value pushed */
10
CALL[ ]	/* CallFunction */
PUSHW[ ]	/* 1 value pushed */
112
MDAP[1]	/* MoveDirectAbsPt */
PUSHW[ ]	/* 1 value pushed */
113
MDAP[1]	/* MoveDirectAbsPt */
PUSHW[ ]	/* 1 value pushed */
28
MDRP[11100]	/* MoveDirectRelPt */
PUSHW[ ]	/* 1 value pushed */
5
MDRP[11100]	/* MoveDirectRelPt */
PUSHW[ ]	/* 1 value pushed */
112
SRP0[ ]	/* SetRefPoint0 */
PUSHW[ ]	/* 1 value pushed */
84
MDRP[10000]	/* MoveDirectRelPt */
PUSHW[ ]	/* 1 value pushed */
84
MDAP[1]	/* MoveDirectAbsPt */
PUSHW[ ]	/* 3 values pushed */
13 84 28
SRP1[ ]	/* SetRefPoint1 */
SRP2[ ]	/* SetRefPoint2 */
IP[ ]	/* InterpolatePts */
PUSHW[ ]	/* 1 value pushed */
5
SRP0[ ]	/* SetRefPoint0 */
PUSHW[ ]	/* 1 value pushed */
52
MDRP[10000]	/* MoveDirectRelPt */
PUSHW[ ]	/* 1 value pushed */
84
SRP0[ ]	/* SetRefPoint0 */
PUSHW[ ]	/* 1 value pushed */
61
MDRP[11100]	/* MoveDirectRelPt */
PUSHW[ ]	/* 3 values pushed */
69 84 28
SRP1[ ]	/* SetRefPoint1 */
SRP2[ ]	/* SetRefPoint2 */
IP[ ]	/* InterpolatePts */
PUSHW[ ]	/* 1 value pushed */
108
MDRP[10000]	/* MoveDirectRelPt */
SVTCA[0]	/* SetFreedomAndProjectionVectorToAxis */
PUSHW[ ]	/* 1 value pushed */
37
RCVT[ ]	/* ReadCVT */
IF[ ]	/* If */
PUSHW[ ]	/* 1 value pushed */
13
MDAP[1]	/* MoveDirectAbsPt */
ELSE[ ]	/* Else */
PUSHW[ ]	/* 2 values pushed */
13 44
MIAP[0]	/* MoveIndirectAbsPt */
EIF[ ]	/* EndIf */
PUSHW[ ]	/* 1 value pushed */
37
RCVT[ ]	/* ReadCVT */
IF[ ]	/* If */
PUSHW[ ]	/* 1 value pushed */
16
MDAP[1]	/* MoveDirectAbsPt */
ELSE[ ]	/* Else */
PUSHW[ ]	/* 2 values pushed */
16 44
MIAP[0]	/* MoveIndirectAbsPt */
EIF[ ]	/* EndIf */
PUSHW[ ]	/* 1 value pushed */
37
RCVT[ ]	/* ReadCVT */
IF[ ]	/* If */
PUSHW[ ]	/* 1 value pushed */
18
MDAP[1]	/* MoveDirectAbsPt */
ELSE[ ]	/* Else */
PUSHW[ ]	/* 2 values pushed */
18 44
MIAP[0]	/* MoveIndirectAbsPt */
EIF[ ]	/* EndIf */
PUSHW[ ]	/* 1 value pushed */
37
RCVT[ ]	/* ReadCVT */
IF[ ]	/* If */
PUSHW[ ]	/* 1 value pushed */
20
MDAP[1]	/* MoveDirectAbsPt */
ELSE[ ]	/* Else */
PUSHW[ ]	/* 2 values pushed */
20 44
MIAP[0]	/* MoveIndirectAbsPt */
EIF[ ]	/* EndIf */
PUSHW[ ]	/* 1 value pushed */
37
RCVT[ ]	/* ReadCVT */
IF[ ]	/* If */
PUSHW[ ]	/* 1 value pushed */
93
MDAP[1]	/* MoveDirectAbsPt */
ELSE[ ]	/* Else */
PUSHW[ ]	/* 2 values pushed */
93 44
MIAP[0]	/* MoveIndirectAbsPt */
EIF[ ]	/* EndIf */
PUSHW[ ]	/* 1 value pushed */
37
RCVT[ ]	/* ReadCVT */
IF[ ]	/* If */
PUSHW[ ]	/* 1 value pushed */
96
MDAP[1]	/* MoveDirectAbsPt */
ELSE[ ]	/* Else */
PUSHW[ ]	/* 2 values pushed */
96 44
MIAP[0]	/* MoveIndirectAbsPt */
EIF[ ]	/* EndIf */
PUSHW[ ]	/* 1 value pushed */
37
RCVT[ ]	/* ReadCVT */
IF[ ]	/* If */
PUSHW[ ]	/* 1 value pushed */
98
MDAP[1]	/* MoveDirectAbsPt */
ELSE[ ]	/* Else */
PUSHW[ ]	/* 2 values pushed */
98 44
MIAP[0]	/* MoveIndirectAbsPt */
EIF[ ]	/* EndIf */
PUSHW[ ]	/* 1 value pushed */
37
RCVT[ ]	/* ReadCVT */
IF[ ]	/* If */
PUSHW[ ]	/* 1 value pushed */
100
MDAP[1]	/* MoveDirectAbsPt */
ELSE[ ]	/* Else */
PUSHW[ ]	/* 2 values pushed */
100 44
MIAP[0]	/* MoveIndirectAbsPt */
EIF[ ]	/* EndIf */
PUSHW[ ]	/* 1 value pushed */
37
RCVT[ ]	/* ReadCVT */
IF[ ]	/* If */
PUSHW[ ]	/* 1 value pushed */
37
MDAP[1]	/* MoveDirectAbsPt */
ELSE[ ]	/* Else */
PUSHW[ ]	/* 2 values pushed */
37 38
MIAP[0]	/* MoveIndirectAbsPt */
EIF[ ]	/* EndIf */
PUSHW[ ]	/* 1 value pushed */
37
RCVT[ ]	/* ReadCVT */
IF[ ]	/* If */
PUSHW[ ]	/* 1 value pushed */
40
MDAP[1]	/* MoveDirectAbsPt */
ELSE[ ]	/* Else */
PUSHW[ ]	/* 2 values pushed */
40 38
MIAP[0]	/* MoveIndirectAbsPt */
EIF[ ]	/* EndIf */
PUSHW[ ]	/* 1 value pushed */
37
RCVT[ ]	/* ReadCVT */
IF[ ]	/* If */
PUSHW[ ]	/* 1 value pushed */
42
MDAP[1]	/* MoveDirectAbsPt */
ELSE[ ]	/* Else */
PUSHW[ ]	/* 2 values pushed */
42 38
MIAP[0]	/* MoveIndirectAbsPt */
EIF[ ]	/* EndIf */
PUSHW[ ]	/* 1 value pushed */
37
RCVT[ ]	/* ReadCVT */
IF[ ]	/* If */
PUSHW[ ]	/* 1 value pushed */
44
MDAP[1]	/* MoveDirectAbsPt */
ELSE[ ]	/* Else */
PUSHW[ ]	/* 2 values pushed */
44 38
MIAP[0]	/* MoveIndirectAbsPt */
EIF[ ]	/* EndIf */
PUSHW[ ]	/* 1 value pushed */
37
RCVT[ ]	/* ReadCVT */
IF[ ]	/* If */
PUSHW[ ]	/* 1 value pushed */
69
MDAP[1]	/* MoveDirectAbsPt */
ELSE[ ]	/* Else */
PUSHW[ ]	/* 2 values pushed */
69 38
MIAP[0]	/* MoveIndirectAbsPt */
EIF[ ]	/* EndIf */
PUSHW[ ]	/* 1 value pushed */
37
RCVT[ ]	/* ReadCVT */
IF[ ]	/* If */
PUSHW[ ]	/* 1 value pushed */
72
MDAP[1]	/* MoveDirectAbsPt */
ELSE[ ]	/* Else */
PUSHW[ ]	/* 2 values pushed */
72 38
MIAP[0]	/* MoveIndirectAbsPt */
EIF[ ]	/* EndIf */
PUSHW[ ]	/* 1 value pushed */
37
RCVT[ ]	/* ReadCVT */
IF[ ]	/* If */
PUSHW[ ]	/* 1 value pushed */
74
MDAP[1]	/* MoveDirectAbsPt */
ELSE[ ]	/* Else */
PUSHW[ ]	/* 2 values pushed */
74 38
MIAP[0]	/* MoveIndirectAbsPt */
EIF[ ]	/* EndIf */
PUSHW[ ]	/* 1 value pushed */
37
RCVT[ ]	/* ReadCVT */
IF[ ]	/* If */
PUSHW[ ]	/* 1 value pushed */
76
MDAP[1]	/* MoveDirectAbsPt */
ELSE[ ]	/* Else */
PUSHW[ ]	/* 2 values pushed */
76 38
MIAP[0]	/* MoveIndirectAbsPt */
EIF[ ]	/* EndIf */
PUSHW[ ]	/* 3 values pushed */
1 56 13
CALL[ ]	/* CallFunction */
PUSHW[ ]	/* 1 value pushed */
1
SRP0[ ]	/* SetRefPoint0 */
PUSHW[ ]	/* 1 value pushed */
13
SRP0[ ]	/* SetRefPoint0 */
PUSHW[ ]	/* 1 value pushed */
9
MDRP[11100]	/* MoveDirectRelPt */
NPUSHW[ ]	/* 5 values pushed */
57 9 73 9 2
DELTAP2[ ]	/* DeltaExceptionP2 */
NPUSHW[ ]	/* 21 values pushed */
104 9 120 9 136 9 152 9 168 9 184 9 200 9 216 9 232 9 248 9 10
DELTAP1[ ]	/* DeltaExceptionP1 */
NPUSHW[ ]	/* 7 values pushed */
8 9 24 9 40 9 3
DELTAP2[ ]	/* DeltaExceptionP2 */
PUSHW[ ]	/* 1 value pushed */
24
MDRP[10000]	/* MoveDirectRelPt */
PUSHW[ ]	/* 1 value pushed */
37
SRP0[ ]	/* SetRefPoint0 */
PUSHW[ ]	/* 1 value pushed */
33
MDRP[11100]	/* MoveDirectRelPt */
NPUSHW[ ]	/* 21 values pushed */
103 33 119 33 135 33 151 33 167 33 183 33 199 33 215 33 231 33 247 33 10
DELTAP1[ ]	/* DeltaExceptionP1 */
NPUSHW[ ]	/* 7 values pushed */
7 33 23 33 39 33 3
DELTAP2[ ]	/* DeltaExceptionP2 */
NPUSHW[ ]	/* 5 values pushed */
54 33 70 33 2
DELTAP2[ ]	/* DeltaExceptionP2 */
PUSHW[ ]	/* 1 value pushed */
48
MDRP[10000]	/* MoveDirectRelPt */
PUSHW[ ]	/* 1 value pushed */
65
MDRP[10000]	/* MoveDirectRelPt */
PUSHW[ ]	/* 1 value pushed */
80
MDRP[10000]	/* MoveDirectRelPt */
PUSHW[ ]	/* 1 value pushed */
24
SRP0[ ]	/* SetRefPoint0 */
PUSHW[ ]	/* 1 value pushed */
89
MDRP[10000]	/* MoveDirectRelPt */
PUSHW[ ]	/* 1 value pushed */
104
MDRP[10000]	/* MoveDirectRelPt */
IUP[0]	/* InterpolateUntPts */
IUP[1]	/* InterpolateUntPts */";
};
width = 739;
}
);
note = H;
},
{
glyphname = H.008;
lastChange = "2025-01-13 19:00:14 +0000";
layers = (
{
layerId = m01;
shapes = (
{
closed = 1;
nodes = (
(177.333,729,o),
(163,730,o),
(155,730,cs),
(133,730,o),
(107.667,730.667,o),
(79,732,cs),
(64.333,732.667,o),
(56.333,733,o),
(55,733,cs),
(40.333,733,o),
(36,729.667,o),
(36,715,cs),
(36,697.667,o),
(37,697,o),
(61,697,cs),
(89.667,696.333,o),
(110.333,689.333,o),
(123,676,cs),
(130.333,668.667,o),
(134.833,660,o),
(136.5,650,cs),
(138.167,640,o),
(140.333,608.667,o),
(143,556,c),
(142,524,l),
(144,483,l),
(143,427,l),
(144,356,l),
(143,319,l),
(144,271,ls),
(144,255.667,o),
(143.333,233.333,o),
(142,204,cs),
(141.333,192.667,o),
(141,176.333,o),
(141,155,cs),
(141,134,ls),
(141.667,126.667,o),
(142,120,o),
(142,114,cs),
(142,72,o),
(132,47.333,o),
(112,40,cs),
(101.333,36.667,o),
(84.333,34.333,o),
(61,33,cs),
(45.667,32.333,o),
(38,26.333,o),
(38,15,cs),
(38,2.333,o),
(48,-4,o),
(68,-4,cs),
(68.667,-4,o),
(72,-4,o),
(78,-4,cs),
(83.333,-3.333,o),
(88.667,-3,o),
(94,-3,cs),
(165.333,-1,o),
(209.333,-0.333,o),
(226,-1,cs),
(329,-4,ls),
(338.333,-4,o),
(343,1.333,o),
(343,12,cs),
(343,26.667,o),
(338.667,32,o),
(320,32,cs),
(288.667,32.667,o),
(268,36,o),
(258,42,cs),
(244,51.333,o),
(237,70.667,o),
(237,100,cs),
(237,108,o),
(236.5,118.333,o),
(235.5,131,cs),
(234.5,143.667,o),
(234.333,157.667,o),
(235,173,cs),
(237,245,l),
(236,301,ls),
(235.333,338.333,o),
(237,358,o),
(241,360,cs),
(248.333,364,o),
(274.333,366,o),
(319,366,cs),
(347,366,ls),
(355,366,o),
(363.333,365.667,o),
(372,365,cs),
(381.333,365,o),
(386.333,365,o),
(387,365,cs),
(467,366,ls),
(523.667,366.667,o),
(558.333,367,o),
(571,367,cs),
(593,367.667,o),
(625.333,368,o),
(668,368,cs),
(678,368,o),
(683.333,366.333,o),
(684,363,cs),
(686,355,o),
(687,313.333,o),
(687,238,cs),
(687,224,o),
(686.667,211.833,o),
(686,201.5,cs),
(685.333,191.167,o),
(685,184,o),
(685,180,cs),
(686,127,ls),
(687.333,47,o),
(670.333,31.667,o),
(605,33,cs),
(583.667,33,o),
(578,31,o),
(578,11,cs),
(578,1,o),
(583,-4,o),
(593,-4,cs),
(627,-3,ls),
(694.333,-1,o),
(734.333,0,o),
(747,0,cs),
(761.667,0,o),
(775,-0.333,o),
(787,-1,cs),
(825,-3,o),
(850,-4,o),
(862,-4,cs),
(883.333,-4,o),
(886,1,o),
(886,17,cs),
(886,27.667,o),
(878,33,o),
(862,33,cs),
(791.333,34.333,o),
(772.333,48.667,o),
(775,158,cs),
(777,196,ls),
(777,200,o),
(776.333,206.333,o),
(775,215,c),
(775,240,ls),
(775,248,o),
(775.667,269,o),
(777,303,cs),
(779.667,435.667,o),
(781,544.333,o),
(781,629,cs),
(781,683.667,o),
(794,695.333,o),
(854,694,cs),
(875.333,692.667,o),
(886,699,o),
(886,713,cs),
(886,724.333,o),
(880.333,730,o),
(869,730,cs),
(861.667,730,o),
(845.667,729,o),
(821,727,cs),
(802.333,725.667,o),
(786.333,725.333,o),
(773,726,cs),
(616,731,ls),
(595.333,731.667,o),
(585,725.667,o),
(585,713,cs),
(585,702.333,o),
(594,696.333,o),
(612,695,cs),
(636,693,o),
(651.667,690.667,o),
(659,688,cs),
(666.333,685.333,o),
(672.333,679.333,o),
(677,670,cs),
(685,653.333,o),
(688.667,627,o),
(688,591,cs),
(687,549,l),
(688,481,ls),
(689.333,405,o),
(689.667,414,o),
(631,414,cs),
(612.333,414,o),
(594.667,413.667,o),
(578,413,cs),
(557.333,412.333,o),
(540,412,o),
(526,412,cs),
(437,413,l),
(346,411,ls),
(284,409,o),
(249,412,o),
(241,420,cs),
(235,424.667,o),
(233.667,454.333,o),
(237,509,cs),
(239,544,l),
(237,587,ls),
(236.333,603.667,o),
(236,617,o),
(236,627,cs),
(236,657,o),
(241.333,676,o),
(252,684,cs),
(260,689.333,o),
(282,693,o),
(318,695,cs),
(330,695.667,o),
(337.333,696.333,o),
(340,697,cs),
(346.667,699,o),
(350,704.333,o),
(350,713,cs),
(350,727,o),
(343.667,733.667,o),
(331,733,cs),
(198,727,l),
(198,727,l)
);
}
);
userData = {
assembly = "PUSHW[ ]	/* 1 value pushed */
10
CALL[ ]	/* CallFunction */
PUSHW[ ]	/* 1 value pushed */
163
MDAP[1]	/* MoveDirectAbsPt */
PUSHW[ ]	/* 1 value pushed */
164
MDAP[1]	/* MoveDirectAbsPt */
PUSHW[ ]	/* 1 value pushed */
163
SRP0[ ]	/* SetRefPoint0 */
PUSHW[ ]	/* 1 value pushed */
140
MDRP[10000]	/* MoveDirectRelPt */
PUSHW[ ]	/* 1 value pushed */
140
MDAP[1]	/* MoveDirectAbsPt */
PUSHW[ ]	/* 1 value pushed */
104
MDRP[11100]	/* MoveDirectRelPt */
PUSHW[ ]	/* 1 value pushed */
10
MDRP[10000]	/* MoveDirectRelPt */
PUSHW[ ]	/* 1 value pushed */
10
MDAP[1]	/* MoveDirectAbsPt */
PUSHW[ ]	/* 1 value pushed */
104
SRP0[ ]	/* SetRefPoint0 */
PUSHW[ ]	/* 1 value pushed */
12
MDRP[10000]	/* MoveDirectRelPt */
PUSHW[ ]	/* 1 value pushed */
104
SRP0[ ]	/* SetRefPoint0 */
PUSHW[ ]	/* 1 value pushed */
14
MDRP[10000]	/* MoveDirectRelPt */
PUSHW[ ]	/* 1 value pushed */
104
SRP0[ ]	/* SetRefPoint0 */
PUSHW[ ]	/* 1 value pushed */
16
MDRP[10000]	/* MoveDirectRelPt */
PUSHW[ ]	/* 1 value pushed */
16
MDAP[1]	/* MoveDirectAbsPt */
PUSHW[ ]	/* 1 value pushed */
164
SRP0[ ]	/* SetRefPoint0 */
PUSHW[ ]	/* 1 value pushed */
54
MDRP[11100]	/* MoveDirectRelPt */
PUSHW[ ]	/* 1 value pushed */
85
MDRP[11100]	/* MoveDirectRelPt */
PUSHW[ ]	/* 1 value pushed */
27
MDRP[10000]	/* MoveDirectRelPt */
PUSHW[ ]	/* 1 value pushed */
27
MDAP[1]	/* MoveDirectAbsPt */
PUSHW[ ]	/* 1 value pushed */
85
SRP0[ ]	/* SetRefPoint0 */
PUSHW[ ]	/* 1 value pushed */
29
MDRP[10000]	/* MoveDirectRelPt */
PUSHW[ ]	/* 1 value pushed */
29
MDAP[1]	/* MoveDirectAbsPt */
PUSHW[ ]	/* 1 value pushed */
54
SRP0[ ]	/* SetRefPoint0 */
PUSHW[ ]	/* 1 value pushed */
39
MDRP[10000]	/* MoveDirectRelPt */
PUSHW[ ]	/* 1 value pushed */
39
MDAP[1]	/* MoveDirectAbsPt */
PUSHW[ ]	/* 1 value pushed */
54
SRP0[ ]	/* SetRefPoint0 */
PUSHW[ ]	/* 1 value pushed */
50
MDRP[10000]	/* MoveDirectRelPt */
PUSHW[ ]	/* 1 value pushed */
50
MDAP[1]	/* MoveDirectAbsPt */
PUSHW[ ]	/* 1 value pushed */
54
SRP0[ ]	/* SetRefPoint0 */
PUSHW[ ]	/* 1 value pushed */
52
MDRP[10000]	/* MoveDirectRelPt */
PUSHW[ ]	/* 1 value pushed */
52
MDAP[1]	/* MoveDirectAbsPt */
PUSHW[ ]	/* 1 value pushed */
54
SRP0[ ]	/* SetRefPoint0 */
PUSHW[ ]	/* 1 value pushed */
57
MDRP[10000]	/* MoveDirectRelPt */
PUSHW[ ]	/* 1 value pushed */
57
MDAP[1]	/* MoveDirectAbsPt */
PUSHW[ ]	/* 1 value pushed */
85
SRP0[ ]	/* SetRefPoint0 */
PUSHW[ ]	/* 1 value pushed */
81
MDRP[10000]	/* MoveDirectRelPt */
PUSHW[ ]	/* 1 value pushed */
81
MDAP[1]	/* MoveDirectAbsPt */
PUSHW[ ]	/* 1 value pushed */
85
SRP0[ ]	/* SetRefPoint0 */
PUSHW[ ]	/* 1 value pushed */
87
MDRP[10000]	/* MoveDirectRelPt */
PUSHW[ ]	/* 1 value pushed */
87
MDAP[1]	/* MoveDirectAbsPt */
PUSHW[ ]	/* 1 value pushed */
104
SRP0[ ]	/* SetRefPoint0 */
PUSHW[ ]	/* 1 value pushed */
101
MDRP[10000]	/* MoveDirectRelPt */
PUSHW[ ]	/* 1 value pushed */
101
MDAP[1]	/* MoveDirectAbsPt */
PUSHW[ ]	/* 1 value pushed */
104
SRP0[ ]	/* SetRefPoint0 */
PUSHW[ ]	/* 1 value pushed */
108
MDRP[10000]	/* MoveDirectRelPt */
PUSHW[ ]	/* 1 value pushed */
140
SRP0[ ]	/* SetRefPoint0 */
PUSHW[ ]	/* 1 value pushed */
132
MDRP[10000]	/* MoveDirectRelPt */
PUSHW[ ]	/* 1 value pushed */
132
MDAP[1]	/* MoveDirectAbsPt */
PUSHW[ ]	/* 1 value pushed */
140
SRP0[ ]	/* SetRefPoint0 */
PUSHW[ ]	/* 1 value pushed */
134
MDRP[10000]	/* MoveDirectRelPt */
PUSHW[ ]	/* 1 value pushed */
134
MDAP[1]	/* MoveDirectAbsPt */
PUSHW[ ]	/* 1 value pushed */
140
SRP0[ ]	/* SetRefPoint0 */
PUSHW[ ]	/* 1 value pushed */
137
MDRP[10000]	/* MoveDirectRelPt */
PUSHW[ ]	/* 1 value pushed */
137
MDAP[1]	/* MoveDirectAbsPt */
PUSHW[ ]	/* 1 value pushed */
140
SRP0[ ]	/* SetRefPoint0 */
PUSHW[ ]	/* 1 value pushed */
142
MDRP[10000]	/* MoveDirectRelPt */
PUSHW[ ]	/* 1 value pushed */
140
SRP0[ ]	/* SetRefPoint0 */
PUSHW[ ]	/* 1 value pushed */
144
MDRP[10000]	/* MoveDirectRelPt */
PUSHW[ ]	/* 1 value pushed */
144
MDAP[1]	/* MoveDirectAbsPt */
SVTCA[0]	/* SetFreedomAndProjectionVectorToAxis */
PUSHW[ ]	/* 1 value pushed */
0
MDAP[1]	/* MoveDirectAbsPt */
PUSHW[ ]	/* 1 value pushed */
38
MDAP[1]	/* MoveDirectAbsPt */
PUSHW[ ]	/* 1 value pushed */
41
MDAP[1]	/* MoveDirectAbsPt */
PUSHW[ ]	/* 1 value pushed */
43
MDAP[1]	/* MoveDirectAbsPt */
PUSHW[ ]	/* 1 value pushed */
156
MDAP[1]	/* MoveDirectAbsPt */
PUSHW[ ]	/* 1 value pushed */
158
MDAP[1]	/* MoveDirectAbsPt */
PUSHW[ ]	/* 1 value pushed */
160
MDAP[1]	/* MoveDirectAbsPt */
PUSHW[ ]	/* 1 value pushed */
37
RCVT[ ]	/* ReadCVT */
IF[ ]	/* If */
PUSHW[ ]	/* 1 value pushed */
66
MDAP[1]	/* MoveDirectAbsPt */
ELSE[ ]	/* Else */
PUSHW[ ]	/* 2 values pushed */
66 38
MIAP[0]	/* MoveIndirectAbsPt */
EIF[ ]	/* EndIf */
PUSHW[ ]	/* 1 value pushed */
37
RCVT[ ]	/* ReadCVT */
IF[ ]	/* If */
PUSHW[ ]	/* 1 value pushed */
68
MDAP[1]	/* MoveDirectAbsPt */
ELSE[ ]	/* Else */
PUSHW[ ]	/* 2 values pushed */
68 38
MIAP[0]	/* MoveIndirectAbsPt */
EIF[ ]	/* EndIf */
PUSHW[ ]	/* 1 value pushed */
37
RCVT[ ]	/* ReadCVT */
IF[ ]	/* If */
PUSHW[ ]	/* 1 value pushed */
70
MDAP[1]	/* MoveDirectAbsPt */
ELSE[ ]	/* Else */
PUSHW[ ]	/* 2 values pushed */
70 38
MIAP[0]	/* MoveIndirectAbsPt */
EIF[ ]	/* EndIf */
PUSHW[ ]	/* 1 value pushed */
37
RCVT[ ]	/* ReadCVT */
IF[ ]	/* If */
PUSHW[ ]	/* 1 value pushed */
72
MDAP[1]	/* MoveDirectAbsPt */
ELSE[ ]	/* Else */
PUSHW[ ]	/* 2 values pushed */
72 38
MIAP[0]	/* MoveIndirectAbsPt */
EIF[ ]	/* EndIf */
PUSHW[ ]	/* 1 value pushed */
37
RCVT[ ]	/* ReadCVT */
IF[ ]	/* If */
PUSHW[ ]	/* 1 value pushed */
117
MDAP[1]	/* MoveDirectAbsPt */
ELSE[ ]	/* Else */
PUSHW[ ]	/* 2 values pushed */
117 38
MIAP[0]	/* MoveIndirectAbsPt */
EIF[ ]	/* EndIf */
PUSHW[ ]	/* 1 value pushed */
37
RCVT[ ]	/* ReadCVT */
IF[ ]	/* If */
PUSHW[ ]	/* 1 value pushed */
120
MDAP[1]	/* MoveDirectAbsPt */
ELSE[ ]	/* Else */
PUSHW[ ]	/* 2 values pushed */
120 38
MIAP[0]	/* MoveIndirectAbsPt */
EIF[ ]	/* EndIf */
PUSHW[ ]	/* 1 value pushed */
37
RCVT[ ]	/* ReadCVT */
IF[ ]	/* If */
PUSHW[ ]	/* 1 value pushed */
122
MDAP[1]	/* MoveDirectAbsPt */
ELSE[ ]	/* Else */
PUSHW[ ]	/* 2 values pushed */
122 38
MIAP[0]	/* MoveIndirectAbsPt */
EIF[ ]	/* EndIf */
PUSHW[ ]	/* 1 value pushed */
37
RCVT[ ]	/* ReadCVT */
IF[ ]	/* If */
PUSHW[ ]	/* 1 value pushed */
124
MDAP[1]	/* MoveDirectAbsPt */
ELSE[ ]	/* Else */
PUSHW[ ]	/* 2 values pushed */
124 38
MIAP[0]	/* MoveIndirectAbsPt */
EIF[ ]	/* EndIf */
PUSHW[ ]	/* 3 values pushed */
24 93 13
CALL[ ]	/* CallFunction */
PUSHW[ ]	/* 1 value pushed */
24
SRP0[ ]	/* SetRefPoint0 */
PUSHW[ ]	/* 1 value pushed */
41
SRP0[ ]	/* SetRefPoint0 */
PUSHW[ ]	/* 1 value pushed */
47
MDRP[11100]	/* MoveDirectRelPt */
PUSHW[ ]	/* 1 value pushed */
6
MDRP[10000]	/* MoveDirectRelPt */
PUSHW[ ]	/* 1 value pushed */
6
MDAP[1]	/* MoveDirectAbsPt */
PUSHW[ ]	/* 1 value pushed */
24
SRP0[ ]	/* SetRefPoint0 */
PUSHW[ ]	/* 1 value pushed */
18
MDRP[10000]	/* MoveDirectRelPt */
PUSHW[ ]	/* 1 value pushed */
18
MDAP[1]	/* MoveDirectAbsPt */
PUSHW[ ]	/* 1 value pushed */
24
SRP0[ ]	/* SetRefPoint0 */
PUSHW[ ]	/* 1 value pushed */
20
MDRP[10000]	/* MoveDirectRelPt */
PUSHW[ ]	/* 1 value pushed */
20
MDAP[1]	/* MoveDirectAbsPt */
PUSHW[ ]	/* 1 value pushed */
24
SRP0[ ]	/* SetRefPoint0 */
PUSHW[ ]	/* 1 value pushed */
22
MDRP[10000]	/* MoveDirectRelPt */
PUSHW[ ]	/* 1 value pushed */
22
MDAP[1]	/* MoveDirectAbsPt */
PUSHW[ ]	/* 1 value pushed */
47
SRP0[ ]	/* SetRefPoint0 */
PUSHW[ ]	/* 1 value pushed */
34
MDRP[10000]	/* MoveDirectRelPt */
PUSHW[ ]	/* 1 value pushed */
34
MDAP[1]	/* MoveDirectAbsPt */
PUSHW[ ]	/* 1 value pushed */
41
SRP0[ ]	/* SetRefPoint0 */
PUSHW[ ]	/* 1 value pushed */
39
MDRP[10000]	/* MoveDirectRelPt */
PUSHW[ ]	/* 1 value pushed */
39
MDAP[1]	/* MoveDirectAbsPt */
PUSHW[ ]	/* 1 value pushed */
66
SRP0[ ]	/* SetRefPoint0 */
PUSHW[ ]	/* 1 value pushed */
61
MDRP[11100]	/* MoveDirectRelPt */
NPUSHW[ ]	/* 21 values pushed */
103 61 119 61 135 61 151 61 167 61 183 61 199 61 215 61 231 61 247 61 10
DELTAP1[ ]	/* DeltaExceptionP1 */
NPUSHW[ ]	/* 7 values pushed */
7 61 23 61 39 61 3
DELTAP2[ ]	/* DeltaExceptionP2 */
NPUSHW[ ]	/* 5 values pushed */
54 61 70 61 2
DELTAP2[ ]	/* DeltaExceptionP2 */
PUSHW[ ]	/* 1 value pushed */
78
MDRP[10000]	/* MoveDirectRelPt */
PUSHW[ ]	/* 1 value pushed */
93
SRP0[ ]	/* SetRefPoint0 */
PUSHW[ ]	/* 1 value pushed */
89
MDRP[10000]	/* MoveDirectRelPt */
PUSHW[ ]	/* 1 value pushed */
89
MDAP[1]	/* MoveDirectAbsPt */
PUSHW[ ]	/* 1 value pushed */
93
SRP0[ ]	/* SetRefPoint0 */
PUSHW[ ]	/* 1 value pushed */
91
MDRP[10000]	/* MoveDirectRelPt */
PUSHW[ ]	/* 1 value pushed */
91
MDAP[1]	/* MoveDirectAbsPt */
PUSHW[ ]	/* 1 value pushed */
93
SRP0[ ]	/* SetRefPoint0 */
PUSHW[ ]	/* 1 value pushed */
96
MDRP[10000]	/* MoveDirectRelPt */
PUSHW[ ]	/* 1 value pushed */
96
MDAP[1]	/* MoveDirectAbsPt */
PUSHW[ ]	/* 1 value pushed */
93
SRP0[ ]	/* SetRefPoint0 */
PUSHW[ ]	/* 1 value pushed */
98
MDRP[10000]	/* MoveDirectRelPt */
PUSHW[ ]	/* 1 value pushed */
78
SRP0[ ]	/* SetRefPoint0 */
PUSHW[ ]	/* 1 value pushed */
112
MDRP[10000]	/* MoveDirectRelPt */
PUSHW[ ]	/* 1 value pushed */
112
MDAP[1]	/* MoveDirectAbsPt */
PUSHW[ ]	/* 1 value pushed */
128
MDRP[10000]	/* MoveDirectRelPt */
PUSHW[ ]	/* 1 value pushed */
47
SRP0[ ]	/* SetRefPoint0 */
PUSHW[ ]	/* 1 value pushed */
150
MDRP[10000]	/* MoveDirectRelPt */
PUSHW[ ]	/* 1 value pushed */
150
MDAP[1]	/* MoveDirectAbsPt */
PUSHW[ ]	/* 1 value pushed */
41
SRP0[ ]	/* SetRefPoint0 */
PUSHW[ ]	/* 1 value pushed */
162
MDRP[10000]	/* MoveDirectRelPt */
IUP[0]	/* InterpolateUntPts */
IUP[1]	/* InterpolateUntPts */";
};
width = 922;
}
);
note = H;
},
{
glyphname = H.009;
lastChange = "2025-01-13 19:00:14 +0000";
layers = (
{
layerId = m01;
shapes = (
{
closed = 1;
nodes = (
(239,584.333,o),
(241.667,655.667,o),
(247,693,cs),
(248.333,703,o),
(252.667,709.833,o),
(260,713.5,cs),
(267.333,717.167,o),
(283.667,719.667,o),
(309,721,cs),
(364,724,l),
(360,733.333,o),
(358,739.333,o),
(358,742,cs),
(358,745.333,o),
(360,751.667,o),
(364,761,c),
(299,756,ls),
(278.333,754.667,o),
(243.667,754,o),
(195,754,cs),
(146.333,754,o),
(111.667,754.667,o),
(91,756,cs),
(26,761,l),
(30,751.667,o),
(32,745.333,o),
(32,742,cs),
(32,739.333,o),
(30,733.333,o),
(26,724,c),
(80,721,ls),
(104.667,719.667,o),
(120.667,717.5,o),
(128,714.5,cs),
(135.333,711.5,o),
(140,705.333,o),
(142,696,cs),
(148,666.667,o),
(151,594.333,o),
(151,479,cs),
(151,277,ls),
(151,171,o),
(148.333,99.667,o),
(143,63,cs),
(141.667,53,o),
(137.167,46.167,o),
(129.5,42.5,cs),
(121.833,38.833,o),
(105.333,36.333,o),
(80,35,cs),
(26,32,l),
(30,22.667,o),
(32,16.667,o),
(32,14,cs),
(32,10,o),
(30,4.333,o),
(26,-3,c),
(91,0,ls),
(119.667,1.333,o),
(154.333,2,o),
(195,2,cs),
(235.667,2,o),
(270.333,1.333,o),
(299,0,cs),
(364,-3,l),
(360,4.333,o),
(358,10,o),
(358,14,cs),
(358,16.667,o),
(360,22.667,o),
(364,32,c),
(309,35,ls),
(285,36.333,o),
(269.333,38.5,o),
(262,41.5,cs),
(254.667,44.5,o),
(250,50.667,o),
(248,60,cs),
(242,89.333,o),
(239,161.667,o),
(239,277,cs),
(239,356,l),
(332.333,361.333,o),
(420.333,364,o),
(503,364,cs),
(666,362,l),
(666,277,ls),
(666,145.667,o),
(662.667,71,o),
(656,53,cs),
(652.667,43.667,o),
(632.667,37.667,o),
(596,35,cs),
(542,32,l),
(545.333,22.667,o),
(547,16.667,o),
(547,14,cs),
(547,10,o),
(545.333,4.333,o),
(542,-3,c),
(606,0,ls),
(634.667,1.333,o),
(669.667,2,o),
(711,2,cs),
(751.667,2,o),
(786.333,1.333,o),
(815,0,cs),
(880,-3,l),
(876,4.333,o),
(874,10,o),
(874,14,cs),
(874,16.667,o),
(876,22.667,o),
(880,32,c),
(825,35,ls),
(801,36.333,o),
(785.167,38.5,o),
(777.5,41.5,cs),
(769.833,44.5,o),
(765.333,50.667,o),
(764,60,cs),
(758,89.333,o),
(755,161.667,o),
(755,277,cs),
(755,479,ls),
(755,584.333,o),
(757.667,655.667,o),
(763,693,cs),
(764.333,703,o),
(768.667,709.833,o),
(776,713.5,cs),
(783.333,717.167,o),
(799.667,719.667,o),
(825,721,cs),
(880,724,l),
(876,733.333,o),
(874,739.333,o),
(874,742,cs),
(874,745.333,o),
(876,751.667,o),
(880,761,c),
(815,756,ls),
(793.667,754.667,o),
(759,754,o),
(711,754,cs),
(662.333,754,o),
(627.333,754.667,o),
(606,756,cs),
(542,761,l),
(545.333,751.667,o),
(547,745.333,o),
(547,742,cs),
(547,739.333,o),
(545.333,733.333,o),
(542,724,c),
(596,721,ls),
(632.667,719,o),
(652.667,713,o),
(656,703,cs),
(662.667,686.333,o),
(666,611.667,o),
(666,479,cs),
(666,402,l),
(554,396,o),
(463,393,o),
(393,393,cs),
(357,393,o),
(305.667,394.667,o),
(239,398,c),
(239,479,l),
(239,479,l)
);
}
);
userData = {
assembly = "PUSHW[ ]	/* 1 value pushed */
10
CALL[ ]	/* CallFunction */
PUSHW[ ]	/* 1 value pushed */
115
MDAP[1]	/* MoveDirectAbsPt */
PUSHW[ ]	/* 1 value pushed */
116
MDAP[1]	/* MoveDirectAbsPt */
PUSHW[ ]	/* 1 value pushed */
115
SRP0[ ]	/* SetRefPoint0 */
PUSHW[ ]	/* 1 value pushed */
88
MDRP[10000]	/* MoveDirectRelPt */
PUSHW[ ]	/* 1 value pushed */
88
MDAP[1]	/* MoveDirectAbsPt */
PUSHW[ ]	/* 1 value pushed */
62
MDRP[11100]	/* MoveDirectRelPt */
PUSHW[ ]	/* 1 value pushed */
0
MDRP[10000]	/* MoveDirectRelPt */
PUSHW[ ]	/* 1 value pushed */
116
SRP0[ ]	/* SetRefPoint0 */
PUSHW[ ]	/* 1 value pushed */
31
MDRP[11100]	/* MoveDirectRelPt */
PUSHW[ ]	/* 1 value pushed */
6
MDRP[11100]	/* MoveDirectRelPt */
PUSHW[ ]	/* 1 value pushed */
88
SRP0[ ]	/* SetRefPoint0 */
PUSHW[ ]	/* 1 value pushed */
86
MDRP[10000]	/* MoveDirectRelPt */
PUSHW[ ]	/* 1 value pushed */
86
MDAP[1]	/* MoveDirectAbsPt */
PUSHW[ ]	/* 1 value pushed */
31
SRP0[ ]	/* SetRefPoint0 */
PUSHW[ ]	/* 1 value pushed */
29
MDRP[10000]	/* MoveDirectRelPt */
PUSHW[ ]	/* 1 value pushed */
29
MDAP[1]	/* MoveDirectAbsPt */
PUSHW[ ]	/* 3 values pushed */
11 86 29
SRP1[ ]	/* SetRefPoint1 */
SRP2[ ]	/* SetRefPoint2 */
IP[ ]	/* InterpolatePts */
PUSHW[ ]	/* 3 values pushed */
15 86 29
SRP1[ ]	/* SetRefPoint1 */
SRP2[ ]	/* SetRefPoint2 */
IP[ ]	/* InterpolatePts */
PUSHW[ ]	/* 3 values pushed */
48 86 29
SRP1[ ]	/* SetRefPoint1 */
SRP2[ ]	/* SetRefPoint2 */
IP[ ]	/* InterpolatePts */
PUSHW[ ]	/* 3 values pushed */
52 86 29
SRP1[ ]	/* SetRefPoint1 */
SRP2[ ]	/* SetRefPoint2 */
IP[ ]	/* InterpolatePts */
PUSHW[ ]	/* 1 value pushed */
6
SRP0[ ]	/* SetRefPoint0 */
PUSHW[ ]	/* 1 value pushed */
57
MDRP[10000]	/* MoveDirectRelPt */
PUSHW[ ]	/* 3 values pushed */
68 86 29
SRP1[ ]	/* SetRefPoint1 */
SRP2[ ]	/* SetRefPoint2 */
IP[ ]	/* InterpolatePts */
PUSHW[ ]	/* 3 values pushed */
72 86 29
SRP1[ ]	/* SetRefPoint1 */
SRP2[ ]	/* SetRefPoint2 */
IP[ ]	/* InterpolatePts */
PUSHW[ ]	/* 3 values pushed */
105 86 29
SRP1[ ]	/* SetRefPoint1 */
SRP2[ ]	/* SetRefPoint2 */
IP[ ]	/* InterpolatePts */
PUSHW[ ]	/* 3 values pushed */
109 86 29
SRP1[ ]	/* SetRefPoint1 */
SRP2[ ]	/* SetRefPoint2 */
IP[ ]	/* InterpolatePts */
PUSHW[ ]	/* 1 value pushed */
62
SRP0[ ]	/* SetRefPoint0 */
PUSHW[ ]	/* 1 value pushed */
113
MDRP[10000]	/* MoveDirectRelPt */
PUSHW[ ]	/* 1 value pushed */
113
MDAP[1]	/* MoveDirectAbsPt */
SVTCA[0]	/* SetFreedomAndProjectionVectorToAxis */
PUSHW[ ]	/* 1 value pushed */
33
RCVT[ ]	/* ReadCVT */
IF[ ]	/* If */
PUSHW[ ]	/* 1 value pushed */
15
MDAP[1]	/* MoveDirectAbsPt */
ELSE[ ]	/* Else */
PUSHW[ ]	/* 2 values pushed */
15 40
MIAP[0]	/* MoveIndirectAbsPt */
EIF[ ]	/* EndIf */
PUSHW[ ]	/* 1 value pushed */
33
RCVT[ ]	/* ReadCVT */
IF[ ]	/* If */
PUSHW[ ]	/* 1 value pushed */
18
MDAP[1]	/* MoveDirectAbsPt */
ELSE[ ]	/* Else */
PUSHW[ ]	/* 2 values pushed */
18 40
MIAP[0]	/* MoveIndirectAbsPt */
EIF[ ]	/* EndIf */
PUSHW[ ]	/* 1 value pushed */
33
RCVT[ ]	/* ReadCVT */
IF[ ]	/* If */
PUSHW[ ]	/* 1 value pushed */
20
MDAP[1]	/* MoveDirectAbsPt */
ELSE[ ]	/* Else */
PUSHW[ ]	/* 2 values pushed */
20 40
MIAP[0]	/* MoveIndirectAbsPt */
EIF[ ]	/* EndIf */
PUSHW[ ]	/* 1 value pushed */
33
RCVT[ ]	/* ReadCVT */
IF[ ]	/* If */
PUSHW[ ]	/* 1 value pushed */
99
MDAP[1]	/* MoveDirectAbsPt */
ELSE[ ]	/* Else */
PUSHW[ ]	/* 2 values pushed */
99 40
MIAP[0]	/* MoveIndirectAbsPt */
EIF[ ]	/* EndIf */
PUSHW[ ]	/* 1 value pushed */
33
RCVT[ ]	/* ReadCVT */
IF[ ]	/* If */
PUSHW[ ]	/* 1 value pushed */
102
MDAP[1]	/* MoveDirectAbsPt */
ELSE[ ]	/* Else */
PUSHW[ ]	/* 2 values pushed */
102 40
MIAP[0]	/* MoveIndirectAbsPt */
EIF[ ]	/* EndIf */
PUSHW[ ]	/* 1 value pushed */
33
RCVT[ ]	/* ReadCVT */
IF[ ]	/* If */
PUSHW[ ]	/* 1 value pushed */
104
MDAP[1]	/* MoveDirectAbsPt */
ELSE[ ]	/* Else */
PUSHW[ ]	/* 2 values pushed */
104 40
MIAP[0]	/* MoveIndirectAbsPt */
EIF[ ]	/* EndIf */
PUSHW[ ]	/* 1 value pushed */
33
RCVT[ ]	/* ReadCVT */
IF[ ]	/* If */
PUSHW[ ]	/* 1 value pushed */
42
MDAP[1]	/* MoveDirectAbsPt */
ELSE[ ]	/* Else */
PUSHW[ ]	/* 2 values pushed */
42 34
MIAP[0]	/* MoveIndirectAbsPt */
EIF[ ]	/* EndIf */
PUSHW[ ]	/* 1 value pushed */
33
RCVT[ ]	/* ReadCVT */
IF[ ]	/* If */
PUSHW[ ]	/* 1 value pushed */
45
MDAP[1]	/* MoveDirectAbsPt */
ELSE[ ]	/* Else */
PUSHW[ ]	/* 2 values pushed */
45 34
MIAP[0]	/* MoveIndirectAbsPt */
EIF[ ]	/* EndIf */
PUSHW[ ]	/* 1 value pushed */
33
RCVT[ ]	/* ReadCVT */
IF[ ]	/* If */
PUSHW[ ]	/* 1 value pushed */
47
MDAP[1]	/* MoveDirectAbsPt */
ELSE[ ]	/* Else */
PUSHW[ ]	/* 2 values pushed */
47 34
MIAP[0]	/* MoveIndirectAbsPt */
EIF[ ]	/* EndIf */
PUSHW[ ]	/* 1 value pushed */
33
RCVT[ ]	/* ReadCVT */
IF[ ]	/* If */
PUSHW[ ]	/* 1 value pushed */
72
MDAP[1]	/* MoveDirectAbsPt */
ELSE[ ]	/* Else */
PUSHW[ ]	/* 2 values pushed */
72 34
MIAP[0]	/* MoveIndirectAbsPt */
EIF[ ]	/* EndIf */
PUSHW[ ]	/* 1 value pushed */
33
RCVT[ ]	/* ReadCVT */
IF[ ]	/* If */
PUSHW[ ]	/* 1 value pushed */
75
MDAP[1]	/* MoveDirectAbsPt */
ELSE[ ]	/* Else */
PUSHW[ ]	/* 2 values pushed */
75 34
MIAP[0]	/* MoveIndirectAbsPt */
EIF[ ]	/* EndIf */
PUSHW[ ]	/* 1 value pushed */
33
RCVT[ ]	/* ReadCVT */
IF[ ]	/* If */
PUSHW[ ]	/* 1 value pushed */
77
MDAP[1]	/* MoveDirectAbsPt */
ELSE[ ]	/* Else */
PUSHW[ ]	/* 2 values pushed */
77 34
MIAP[0]	/* MoveIndirectAbsPt */
EIF[ ]	/* EndIf */
PUSHW[ ]	/* 3 values pushed */
16 10 13
CALL[ ]	/* CallFunction */
PUSHW[ ]	/* 1 value pushed */
16
SRP0[ ]	/* SetRefPoint0 */
PUSHW[ ]	/* 3 values pushed */
3 61 13
CALL[ ]	/* CallFunction */
PUSHW[ ]	/* 1 value pushed */
3
SRP0[ ]	/* SetRefPoint0 */
PUSHW[ ]	/* 1 value pushed */
1
MDRP[10000]	/* MoveDirectRelPt */
PUSHW[ ]	/* 1 value pushed */
1
MDAP[1]	/* MoveDirectAbsPt */
PUSHW[ ]	/* 1 value pushed */
61
SRP0[ ]	/* SetRefPoint0 */
PUSHW[ ]	/* 1 value pushed */
58
MDRP[10000]	/* MoveDirectRelPt */
PUSHW[ ]	/* 1 value pushed */
58
MDAP[1]	/* MoveDirectAbsPt */
PUSHW[ ]	/* 1 value pushed */
5
MDRP[11100]	/* MoveDirectRelPt */
PUSHW[ ]	/* 1 value pushed */
16
SRP0[ ]	/* SetRefPoint0 */
PUSHW[ ]	/* 1 value pushed */
21
MDRP[10000]	/* MoveDirectRelPt */
PUSHW[ ]	/* 1 value pushed */
21
MDAP[1]	/* MoveDirectAbsPt */
PUSHW[ ]	/* 1 value pushed */
10
SRP0[ ]	/* SetRefPoint0 */
PUSHW[ ]	/* 1 value pushed */
25
MDRP[10000]	/* MoveDirectRelPt */
PUSHW[ ]	/* 1 value pushed */
25
MDAP[1]	/* MoveDirectAbsPt */
PUSHW[ ]	/* 1 value pushed */
42
SRP0[ ]	/* SetRefPoint0 */
PUSHW[ ]	/* 1 value pushed */
37
MDRP[11100]	/* MoveDirectRelPt */
PUSHW[ ]	/* 1 value pushed */
52
MDRP[10000]	/* MoveDirectRelPt */
PUSHW[ ]	/* 1 value pushed */
52
MDAP[1]	/* MoveDirectAbsPt */
PUSHW[ ]	/* 1 value pushed */
53
MDRP[10000]	/* MoveDirectRelPt */
PUSHW[ ]	/* 1 value pushed */
67
MDRP[10000]	/* MoveDirectRelPt */
PUSHW[ ]	/* 1 value pushed */
68
MDRP[10000]	/* MoveDirectRelPt */
PUSHW[ ]	/* 1 value pushed */
68
MDAP[1]	/* MoveDirectAbsPt */
PUSHW[ ]	/* 1 value pushed */
82
MDRP[10000]	/* MoveDirectRelPt */
PUSHW[ ]	/* 1 value pushed */
82
MDAP[1]	/* MoveDirectAbsPt */
PUSHW[ ]	/* 1 value pushed */
83
MDRP[10000]	/* MoveDirectRelPt */
PUSHW[ ]	/* 1 value pushed */
10
SRP0[ ]	/* SetRefPoint0 */
PUSHW[ ]	/* 1 value pushed */
94
MDRP[10000]	/* MoveDirectRelPt */
PUSHW[ ]	/* 3 values pushed */
95 10 16
SRP1[ ]	/* SetRefPoint1 */
SRP2[ ]	/* SetRefPoint2 */
IP[ ]	/* InterpolatePts */
PUSHW[ ]	/* 1 value pushed */
16
SRP0[ ]	/* SetRefPoint0 */
PUSHW[ ]	/* 1 value pushed */
100
MDRP[10000]	/* MoveDirectRelPt */
PUSHW[ ]	/* 1 value pushed */
16
SRP0[ ]	/* SetRefPoint0 */
PUSHW[ ]	/* 1 value pushed */
105
MDRP[10000]	/* MoveDirectRelPt */
PUSHW[ ]	/* 1 value pushed */
105
MDAP[1]	/* MoveDirectAbsPt */
PUSHW[ ]	/* 1 value pushed */
10
SRP0[ ]	/* SetRefPoint0 */
PUSHW[ ]	/* 1 value pushed */
109
MDRP[10000]	/* MoveDirectRelPt */
PUSHW[ ]	/* 1 value pushed */
109
MDAP[1]	/* MoveDirectAbsPt */
IUP[0]	/* InterpolateUntPts */
IUP[1]	/* InterpolateUntPts */";
};
width = 907;
}
);
note = H;
},
{
glyphname = H.010;
lastChange = "2025-01-13 19:00:14 +0000";
layers = (
{
layerId = m01;
shapes = (
{
closed = 1;
nodes = (
(606.749,681,o),
(608,662.079,o),
(608,540,cs),
(608,395,l),
(215,395,l),
(215,578,ls),
(215,655.529,o),
(217.643,683.667,o),
(303,681,c),
(303,719,l),
(255,716.333,o),
(216.667,714,o),
(174,714,cs),
(126,714,o),
(80.667,716.333,o),
(34,719,c),
(34,682,l),
(76.197,679.656,o),
(91.468,681.532,o),
(108,665,cs),
(114,659,o),
(117.833,650.833,o),
(119.5,640.5,cs),
(121.167,630.167,o),
(122.333,612.333,o),
(123,587,cs),
(123,127,l),
(120.29,51.112,o),
(118.957,34,o),
(35,34,c),
(35,-4,l),
(81.667,-1.333,o),
(131,1,o),
(179,1,cs),
(220.333,1,o),
(254.667,-1.333,o),
(304,-4,c),
(304,35,l),
(222.042,35,o),
(215,46.142,o),
(215,133,cs),
(215,348,l),
(610,348,l),
(610,141,ls),
(610,51.995,o),
(609.294,35.697,o),
(523,33,c),
(523,-4,l),
(569.667,-1.333,o),
(614.667,1,o),
(660,1,cs),
(704,1,o),
(747.667,-1.333,o),
(789,-4,c),
(789,35,l),
(699,35,o),
(701,51.685,o),
(701,174,cs),
(701,586,ls),
(701,669.794,o),
(704.281,676.599,o),
(788,682,c),
(788,719,l),
(742.667,716.333,o),
(697,714,o),
(649,714,cs),
(607.667,714,o),
(566,716.333,o),
(522,719,c),
(522,681,l),
(522,681,l)
);
}
);
userData = {
assembly = "PUSHW[ ]	/* 1 value pushed */
83
MDAP[1]	/* MoveDirectAbsPt */
PUSHW[ ]	/* 1 value pushed */
84
MDAP[1]	/* MoveDirectAbsPt */
PUSHW[ ]	/* 1 value pushed */
13
MDRP[11100]	/* MoveDirectRelPt */
PUSHW[ ]	/* 2 values pushed */
31 3
MIRP[11100]	/* MoveIndirectRelPt */
PUSHW[ ]	/* 1 value pushed */
83
SRP0[ ]	/* SetRefPoint0 */
PUSHW[ ]	/* 1 value pushed */
52
MDRP[10000]	/* MoveDirectRelPt */
PUSHW[ ]	/* 1 value pushed */
52
MDAP[1]	/* MoveDirectAbsPt */
PUSHW[ ]	/* 2 values pushed */
34 3
MIRP[11100]	/* MoveIndirectRelPt */
PUSHW[ ]	/* 1 value pushed */
74
MDRP[10000]	/* MoveDirectRelPt */
PUSHW[ ]	/* 1 value pushed */
31
SRP0[ ]	/* SetRefPoint0 */
PUSHW[ ]	/* 1 value pushed */
76
MDRP[10000]	/* MoveDirectRelPt */
PUSHW[ ]	/* 1 value pushed */
76
MDAP[1]	/* MoveDirectAbsPt */
SVTCA[0]	/* SetFreedomAndProjectionVectorToAxis */
PUSHW[ ]	/* 1 value pushed */
0
RCVT[ ]	/* ReadCVT */
IF[ ]	/* If */
PUSHW[ ]	/* 1 value pushed */
0
MDAP[1]	/* MoveDirectAbsPt */
ELSE[ ]	/* Else */
PUSHW[ ]	/* 2 values pushed */
0 18
MIAP[0]	/* MoveIndirectAbsPt */
EIF[ ]	/* EndIf */
PUSHW[ ]	/* 1 value pushed */
0
RCVT[ ]	/* ReadCVT */
IF[ ]	/* If */
PUSHW[ ]	/* 1 value pushed */
3
MDAP[1]	/* MoveDirectAbsPt */
ELSE[ ]	/* Else */
PUSHW[ ]	/* 2 values pushed */
3 18
MIAP[0]	/* MoveIndirectAbsPt */
EIF[ ]	/* EndIf */
PUSHW[ ]	/* 1 value pushed */
0
RCVT[ ]	/* ReadCVT */
IF[ ]	/* If */
PUSHW[ ]	/* 1 value pushed */
6
MDAP[1]	/* MoveDirectAbsPt */
ELSE[ ]	/* Else */
PUSHW[ ]	/* 2 values pushed */
6 18
MIAP[0]	/* MoveIndirectAbsPt */
EIF[ ]	/* EndIf */
PUSHW[ ]	/* 1 value pushed */
0
RCVT[ ]	/* ReadCVT */
IF[ ]	/* If */
PUSHW[ ]	/* 1 value pushed */
62
MDAP[1]	/* MoveDirectAbsPt */
ELSE[ ]	/* Else */
PUSHW[ ]	/* 2 values pushed */
62 18
MIAP[0]	/* MoveIndirectAbsPt */
EIF[ ]	/* EndIf */
PUSHW[ ]	/* 1 value pushed */
0
RCVT[ ]	/* ReadCVT */
IF[ ]	/* If */
PUSHW[ ]	/* 1 value pushed */
65
MDAP[1]	/* MoveDirectAbsPt */
ELSE[ ]	/* Else */
PUSHW[ ]	/* 2 values pushed */
65 18
MIAP[0]	/* MoveIndirectAbsPt */
EIF[ ]	/* EndIf */
PUSHW[ ]	/* 1 value pushed */
0
RCVT[ ]	/* ReadCVT */
IF[ ]	/* If */
PUSHW[ ]	/* 1 value pushed */
68
MDAP[1]	/* MoveDirectAbsPt */
ELSE[ ]	/* Else */
PUSHW[ ]	/* 2 values pushed */
68 18
MIAP[0]	/* MoveIndirectAbsPt */
EIF[ ]	/* EndIf */
PUSHW[ ]	/* 1 value pushed */
0
RCVT[ ]	/* ReadCVT */
IF[ ]	/* If */
PUSHW[ ]	/* 1 value pushed */
19
MDAP[1]	/* MoveDirectAbsPt */
ELSE[ ]	/* Else */
PUSHW[ ]	/* 2 values pushed */
19 4
MIAP[0]	/* MoveIndirectAbsPt */
EIF[ ]	/* EndIf */
PUSHW[ ]	/* 1 value pushed */
0
RCVT[ ]	/* ReadCVT */
IF[ ]	/* If */
PUSHW[ ]	/* 1 value pushed */
22
MDAP[1]	/* MoveDirectAbsPt */
ELSE[ ]	/* Else */
PUSHW[ ]	/* 2 values pushed */
22 4
MIAP[0]	/* MoveIndirectAbsPt */
EIF[ ]	/* EndIf */
PUSHW[ ]	/* 1 value pushed */
0
RCVT[ ]	/* ReadCVT */
IF[ ]	/* If */
PUSHW[ ]	/* 1 value pushed */
25
MDAP[1]	/* MoveDirectAbsPt */
ELSE[ ]	/* Else */
PUSHW[ ]	/* 2 values pushed */
25 4
MIAP[0]	/* MoveIndirectAbsPt */
EIF[ ]	/* EndIf */
PUSHW[ ]	/* 1 value pushed */
0
RCVT[ ]	/* ReadCVT */
IF[ ]	/* If */
PUSHW[ ]	/* 1 value pushed */
40
MDAP[1]	/* MoveDirectAbsPt */
ELSE[ ]	/* Else */
PUSHW[ ]	/* 2 values pushed */
40 4
MIAP[0]	/* MoveIndirectAbsPt */
EIF[ ]	/* EndIf */
PUSHW[ ]	/* 1 value pushed */
0
RCVT[ ]	/* ReadCVT */
IF[ ]	/* If */
PUSHW[ ]	/* 1 value pushed */
43
MDAP[1]	/* MoveDirectAbsPt */
ELSE[ ]	/* Else */
PUSHW[ ]	/* 2 values pushed */
43 4
MIAP[0]	/* MoveIndirectAbsPt */
EIF[ ]	/* EndIf */
PUSHW[ ]	/* 1 value pushed */
0
RCVT[ ]	/* ReadCVT */
IF[ ]	/* If */
PUSHW[ ]	/* 1 value pushed */
46
MDAP[1]	/* MoveDirectAbsPt */
ELSE[ ]	/* Else */
PUSHW[ ]	/* 2 values pushed */
46 4
MIAP[0]	/* MoveIndirectAbsPt */
EIF[ ]	/* EndIf */
PUSHW[ ]	/* 4 values pushed */
76 1 32 4
CALL[ ]	/* CallFunction */
PUSHW[ ]	/* 1 value pushed */
6
SRP0[ ]	/* SetRefPoint0 */
PUSHW[ ]	/* 2 values pushed */
7 1
MIRP[11100]	/* MoveIndirectRelPt */
PUSHW[ ]	/* 1 value pushed */
19
SRP0[ ]	/* SetRefPoint0 */
PUSHW[ ]	/* 2 values pushed */
18 1
MIRP[11100]	/* MoveIndirectRelPt */
PUSHW[ ]	/* 1 value pushed */
26
MDRP[10000]	/* MoveDirectRelPt */
PUSHW[ ]	/* 1 value pushed */
26
MDAP[1]	/* MoveDirectAbsPt */
PUSHW[ ]	/* 1 value pushed */
39
MDRP[10000]	/* MoveDirectRelPt */
PUSHW[ ]	/* 1 value pushed */
39
MDAP[1]	/* MoveDirectAbsPt */
PUSHW[ ]	/* 1 value pushed */
47
MDRP[10000]	/* MoveDirectRelPt */
PUSHW[ ]	/* 1 value pushed */
7
SRP0[ ]	/* SetRefPoint0 */
PUSHW[ ]	/* 1 value pushed */
61
MDRP[10000]	/* MoveDirectRelPt */
PUSHW[ ]	/* 1 value pushed */
69
MDRP[10000]	/* MoveDirectRelPt */
PUSHW[ ]	/* 1 value pushed */
69
MDAP[1]	/* MoveDirectAbsPt */
PUSHW[ ]	/* 1 value pushed */
82
MDRP[10000]	/* MoveDirectRelPt */
PUSHW[ ]	/* 1 value pushed */
82
MDAP[1]	/* MoveDirectAbsPt */
IUP[0]	/* InterpolateUntPts */
IUP[1]	/* InterpolateUntPts */";
};
width = 825;
}
);
note = H;
},
{
glyphname = H.011;
lastChange = "2025-01-13 19:00:14 +0000";
layers = (
{
layerId = m01;
shapes = (
{
closed = 1;
nodes = (
(241,563,ls),
(241,644.333,o),
(245,651.333,o),
(305,658,cs),
(322,660,ls),
(340.667,662.667,o),
(350,669.333,o),
(350,680,cs),
(350,691.333,o),
(342.333,697,o),
(327,697,cs),
(323,697,l),
(310,696,ls),
(274,693.333,o),
(236,692,o),
(196,692,cs),
(175.333,692,o),
(151,692.667,o),
(123,694,cs),
(106.333,694.667,o),
(96,695,o),
(92,695,cs),
(77,696,l),
(73,696,ls),
(56.333,696,o),
(48,689.667,o),
(48,677,cs),
(48,665,o),
(55.667,658.667,o),
(71,658,cs),
(89,657,ls),
(117.667,655.667,o),
(135.167,648.833,o),
(141.5,636.5,cs),
(147.833,624.167,o),
(151,582,o),
(151,510,cs),
(151,153,ls),
(151,49,o),
(149,41.667,o),
(89,35,cs),
(73,33,ls),
(57,31,o),
(49,25,o),
(49,15,cs),
(49,1.667,o),
(56.667,-5,o),
(72,-5,cs),
(82,-5,l),
(97,-3,l),
(214,0,ls),
(212.667,0,o),
(239,-1,o),
(293,-3,cs),
(321,-4,l),
(332,-5,ls),
(343.333,-6.333,o),
(349,-0.667,o),
(349,12,cs),
(349,24.667,o),
(340,31.667,o),
(322,33,cs),
(300,35,ls),
(245.333,40.333,o),
(241,51,o),
(241,151,cs),
(241,344,l),
(621,344,l),
(621,145,ls),
(621,97.667,o),
(619,69,o),
(615,59,cs),
(609.667,46.333,o),
(591.333,38.333,o),
(560,35,cs),
(541,33,ls),
(523,31,o),
(514,25,o),
(514,15,cs),
(514,2.333,o),
(521.333,-4,o),
(536,-4,cs),
(546,-4,l),
(563,-3,ls),
(607,-0.333,o),
(641,1,o),
(665,1,cs),
(671,1,o),
(702,0,o),
(758,-2,cs),
(786,-3,ls),
(804.667,-3.667,o),
(814,2.333,o),
(814,15,cs),
(814,25,o),
(805.333,31,o),
(788,33,cs),
(767,35,ls),
(741.667,37.667,o),
(726.167,44.833,o),
(720.5,56.5,cs),
(714.833,68.167,o),
(712,98.333,o),
(712,147,cs),
(710,540,l),
(710,546,ls),
(710,644.667,o),
(713.333,652.667,o),
(772,658,cs),
(792,660,ls),
(806.667,662,o),
(814,668.667,o),
(814,680,cs),
(814,692,o),
(805.667,698,o),
(789,698,cs),
(778,698,l),
(759,696,ls),
(734.333,693.333,o),
(701.333,692,o),
(660,692,cs),
(638,692,o),
(603.667,693.333,o),
(557,696,cs),
(539,697,ls),
(521,698.333,o),
(512,692,o),
(512,678,cs),
(512,666.667,o),
(520.667,660.333,o),
(538,659,cs),
(565,657,ls),
(590.333,655,o),
(606,648,o),
(612,636,cs),
(618,624,o),
(621,593.333,o),
(621,544,cs),
(621,385,l),
(241,385,l),
(241,385,l)
);
}
);
userData = {
assembly = "PUSHW[ ]	/* 1 value pushed */
10
CALL[ ]	/* CallFunction */
PUSHW[ ]	/* 1 value pushed */
105
MDAP[1]	/* MoveDirectAbsPt */
PUSHW[ ]	/* 1 value pushed */
106
MDAP[1]	/* MoveDirectAbsPt */
PUSHW[ ]	/* 1 value pushed */
25
MDRP[11100]	/* MoveDirectRelPt */
PUSHW[ ]	/* 1 value pushed */
1
MDRP[11100]	/* MoveDirectRelPt */
PUSHW[ ]	/* 1 value pushed */
48
MDRP[10000]	/* MoveDirectRelPt */
PUSHW[ ]	/* 1 value pushed */
48
MDAP[1]	/* MoveDirectAbsPt */
PUSHW[ ]	/* 1 value pushed */
1
SRP0[ ]	/* SetRefPoint0 */
PUSHW[ ]	/* 1 value pushed */
50
MDRP[10000]	/* MoveDirectRelPt */
PUSHW[ ]	/* 1 value pushed */
105
SRP0[ ]	/* SetRefPoint0 */
PUSHW[ ]	/* 1 value pushed */
76
MDRP[10000]	/* MoveDirectRelPt */
PUSHW[ ]	/* 1 value pushed */
76
MDAP[1]	/* MoveDirectAbsPt */
PUSHW[ ]	/* 1 value pushed */
53
MDRP[11100]	/* MoveDirectRelPt */
PUSHW[ ]	/* 1 value pushed */
103
MDRP[10000]	/* MoveDirectRelPt */
SVTCA[0]	/* SetFreedomAndProjectionVectorToAxis */
PUSHW[ ]	/* 1 value pushed */
9
MDAP[1]	/* MoveDirectAbsPt */
PUSHW[ ]	/* 1 value pushed */
12
MDAP[1]	/* MoveDirectAbsPt */
PUSHW[ ]	/* 1 value pushed */
15
MDAP[1]	/* MoveDirectAbsPt */
PUSHW[ ]	/* 1 value pushed */
85
MDAP[1]	/* MoveDirectAbsPt */
PUSHW[ ]	/* 1 value pushed */
87
MDAP[1]	/* MoveDirectAbsPt */
PUSHW[ ]	/* 1 value pushed */
89
MDAP[1]	/* MoveDirectAbsPt */
PUSHW[ ]	/* 1 value pushed */
91
MDAP[1]	/* MoveDirectAbsPt */
PUSHW[ ]	/* 1 value pushed */
93
MDAP[1]	/* MoveDirectAbsPt */
PUSHW[ ]	/* 1 value pushed */
95
MDAP[1]	/* MoveDirectAbsPt */
PUSHW[ ]	/* 1 value pushed */
35
RCVT[ ]	/* ReadCVT */
IF[ ]	/* If */
PUSHW[ ]	/* 1 value pushed */
34
MDAP[1]	/* MoveDirectAbsPt */
ELSE[ ]	/* Else */
PUSHW[ ]	/* 2 values pushed */
34 36
MIAP[0]	/* MoveIndirectAbsPt */
EIF[ ]	/* EndIf */
PUSHW[ ]	/* 1 value pushed */
35
RCVT[ ]	/* ReadCVT */
IF[ ]	/* If */
PUSHW[ ]	/* 1 value pushed */
37
MDAP[1]	/* MoveDirectAbsPt */
ELSE[ ]	/* Else */
PUSHW[ ]	/* 2 values pushed */
37 36
MIAP[0]	/* MoveIndirectAbsPt */
EIF[ ]	/* EndIf */
PUSHW[ ]	/* 1 value pushed */
35
RCVT[ ]	/* ReadCVT */
IF[ ]	/* If */
PUSHW[ ]	/* 1 value pushed */
39
MDAP[1]	/* MoveDirectAbsPt */
ELSE[ ]	/* Else */
PUSHW[ ]	/* 2 values pushed */
39 36
MIAP[0]	/* MoveIndirectAbsPt */
EIF[ ]	/* EndIf */
PUSHW[ ]	/* 1 value pushed */
35
RCVT[ ]	/* ReadCVT */
IF[ ]	/* If */
PUSHW[ ]	/* 1 value pushed */
41
MDAP[1]	/* MoveDirectAbsPt */
ELSE[ ]	/* Else */
PUSHW[ ]	/* 2 values pushed */
41 36
MIAP[0]	/* MoveIndirectAbsPt */
EIF[ ]	/* EndIf */
PUSHW[ ]	/* 1 value pushed */
35
RCVT[ ]	/* ReadCVT */
IF[ ]	/* If */
PUSHW[ ]	/* 1 value pushed */
61
MDAP[1]	/* MoveDirectAbsPt */
ELSE[ ]	/* Else */
PUSHW[ ]	/* 2 values pushed */
61 36
MIAP[0]	/* MoveIndirectAbsPt */
EIF[ ]	/* EndIf */
PUSHW[ ]	/* 1 value pushed */
35
RCVT[ ]	/* ReadCVT */
IF[ ]	/* If */
PUSHW[ ]	/* 1 value pushed */
63
MDAP[1]	/* MoveDirectAbsPt */
ELSE[ ]	/* Else */
PUSHW[ ]	/* 2 values pushed */
63 36
MIAP[0]	/* MoveIndirectAbsPt */
EIF[ ]	/* EndIf */
PUSHW[ ]	/* 1 value pushed */
35
RCVT[ ]	/* ReadCVT */
IF[ ]	/* If */
PUSHW[ ]	/* 1 value pushed */
65
MDAP[1]	/* MoveDirectAbsPt */
ELSE[ ]	/* Else */
PUSHW[ ]	/* 2 values pushed */
65 36
MIAP[0]	/* MoveIndirectAbsPt */
EIF[ ]	/* EndIf */
PUSHW[ ]	/* 1 value pushed */
35
RCVT[ ]	/* ReadCVT */
IF[ ]	/* If */
PUSHW[ ]	/* 1 value pushed */
67
MDAP[1]	/* MoveDirectAbsPt */
ELSE[ ]	/* Else */
PUSHW[ ]	/* 2 values pushed */
67 36
MIAP[0]	/* MoveIndirectAbsPt */
EIF[ ]	/* EndIf */
PUSHW[ ]	/* 3 values pushed */
14 21 13
CALL[ ]	/* CallFunction */
PUSHW[ ]	/* 1 value pushed */
14
SRP0[ ]	/* SetRefPoint0 */
PUSHW[ ]	/* 3 values pushed */
0 51 13
CALL[ ]	/* CallFunction */
PUSHW[ ]	/* 1 value pushed */
0
SRP0[ ]	/* SetRefPoint0 */
PUSHW[ ]	/* 1 value pushed */
21
SRP0[ ]	/* SetRefPoint0 */
PUSHW[ ]	/* 1 value pushed */
4
MDRP[10000]	/* MoveDirectRelPt */
PUSHW[ ]	/* 1 value pushed */
4
MDAP[1]	/* MoveDirectAbsPt */
PUSHW[ ]	/* 1 value pushed */
14
SRP0[ ]	/* SetRefPoint0 */
PUSHW[ ]	/* 1 value pushed */
10
MDRP[10000]	/* MoveDirectRelPt */
PUSHW[ ]	/* 1 value pushed */
14
SRP0[ ]	/* SetRefPoint0 */
PUSHW[ ]	/* 1 value pushed */
16
MDRP[10000]	/* MoveDirectRelPt */
PUSHW[ ]	/* 1 value pushed */
16
MDAP[1]	/* MoveDirectAbsPt */
PUSHW[ ]	/* 1 value pushed */
34
SRP0[ ]	/* SetRefPoint0 */
PUSHW[ ]	/* 1 value pushed */
29
MDRP[11100]	/* MoveDirectRelPt */
PUSHW[ ]	/* 1 value pushed */
45
MDRP[10000]	/* MoveDirectRelPt */
PUSHW[ ]	/* 1 value pushed */
46
MDRP[10000]	/* MoveDirectRelPt */
PUSHW[ ]	/* 1 value pushed */
46
MDAP[1]	/* MoveDirectAbsPt */
PUSHW[ ]	/* 1 value pushed */
56
MDRP[10000]	/* MoveDirectRelPt */
PUSHW[ ]	/* 1 value pushed */
56
MDAP[1]	/* MoveDirectAbsPt */
PUSHW[ ]	/* 1 value pushed */
57
MDRP[10000]	/* MoveDirectRelPt */
PUSHW[ ]	/* 1 value pushed */
73
MDRP[10000]	/* MoveDirectRelPt */
PUSHW[ ]	/* 1 value pushed */
73
MDAP[1]	/* MoveDirectAbsPt */
PUSHW[ ]	/* 1 value pushed */
21
SRP0[ ]	/* SetRefPoint0 */
PUSHW[ ]	/* 1 value pushed */
80
MDRP[10000]	/* MoveDirectRelPt */
PUSHW[ ]	/* 1 value pushed */
80
MDAP[1]	/* MoveDirectAbsPt */
PUSHW[ ]	/* 1 value pushed */
14
SRP0[ ]	/* SetRefPoint0 */
PUSHW[ ]	/* 1 value pushed */
86
MDRP[10000]	/* MoveDirectRelPt */
PUSHW[ ]	/* 1 value pushed */
14
SRP0[ ]	/* SetRefPoint0 */
PUSHW[ ]	/* 1 value pushed */
94
MDRP[10000]	/* MoveDirectRelPt */
PUSHW[ ]	/* 1 value pushed */
94
MDAP[1]	/* MoveDirectAbsPt */
PUSHW[ ]	/* 1 value pushed */
21
SRP0[ ]	/* SetRefPoint0 */
PUSHW[ ]	/* 1 value pushed */
99
MDRP[10000]	/* MoveDirectRelPt */
PUSHW[ ]	/* 1 value pushed */
99
MDAP[1]	/* MoveDirectAbsPt */
IUP[0]	/* InterpolateUntPts */
IUP[1]	/* InterpolateUntPts */";
};
width = 865;
}
);
note = H;
},
{
glyphname = O.001;
lastChange = "2025-01-13 19:00:14 +0000";
layers = (
{
layerId = m01;
shapes = (
{
closed = 1;
nodes = (
(249.216,17,o),
(165,235.164,o),
(165,402,cs),
(165,526,o),
(202.5,608.167,o),
(256.5,659.5,cs),
(310.5,710.833,o),
(377.333,731,o),
(436,731,cs),
(653.255,731,o),
(736,527.961,o),
(736,342,cs),
(736,230,o),
(703.333,149.333,o),
(654,96,cs),
(604.667,42.667,o),
(538,17,o),
(470,17,cs)
);
},
{
closed = 1;
nodes = (
(671.757,-18,o),
(849,144.974,o),
(849,377,cs),
(849,579.974,o),
(717.084,766,o),
(456,766,cs),
(221.171,766,o),
(52,592.94,o),
(52,366,cs),
(52,166.182,o),
(200.948,-18,o),
(456,-18,cs)
);
}
);
userData = {
assembly = "PUSHW[ ]	/* 1 value pushed */
40
MDAP[1]	/* MoveDirectAbsPt */
PUSHW[ ]	/* 1 value pushed */
41
MDAP[1]	/* MoveDirectAbsPt */
PUSHW[ ]	/* 1 value pushed */
35
MDRP[11100]	/* MoveDirectRelPt */
PUSHW[ ]	/* 2 values pushed */
5 3
MIRP[11100]	/* MoveIndirectRelPt */
NPUSHW[ ]	/* 5 values pushed */
154 5 170 5 2
DELTAP1[ ]	/* DeltaExceptionP1 */
NPUSHW[ ]	/* 19 values pushed */
9 5 25 5 41 5 57 5 73 5 89 5 105 5 121 5 137 5 9
DELTAP1[ ]	/* DeltaExceptionP1 */
PUSHW[ ]	/* 1 value pushed */
40
SRP0[ ]	/* SetRefPoint0 */
PUSHW[ ]	/* 1 value pushed */
25
MDRP[10000]	/* MoveDirectRelPt */
PUSHW[ ]	/* 1 value pushed */
25
MDAP[1]	/* MoveDirectAbsPt */
PUSHW[ ]	/* 2 values pushed */
15 3
MIRP[11100]	/* MoveIndirectRelPt */
NPUSHW[ ]	/* 19 values pushed */
6 15 22 15 38 15 54 15 70 15 86 15 102 15 118 15 134 15 9
DELTAP1[ ]	/* DeltaExceptionP1 */
NPUSHW[ ]	/* 5 values pushed */
149 15 165 15 2
DELTAP1[ ]	/* DeltaExceptionP1 */
SVTCA[0]	/* SetFreedomAndProjectionVectorToAxis */
PUSHW[ ]	/* 1 value pushed */
0
RCVT[ ]	/* ReadCVT */
IF[ ]	/* If */
PUSHW[ ]	/* 1 value pushed */
30
MDAP[1]	/* MoveDirectAbsPt */
ELSE[ ]	/* Else */
PUSHW[ ]	/* 2 values pushed */
30 14
MIAP[0]	/* MoveIndirectAbsPt */
EIF[ ]	/* EndIf */
PUSHW[ ]	/* 1 value pushed */
0
RCVT[ ]	/* ReadCVT */
IF[ ]	/* If */
PUSHW[ ]	/* 1 value pushed */
20
MDAP[1]	/* MoveDirectAbsPt */
ELSE[ ]	/* Else */
PUSHW[ ]	/* 2 values pushed */
20 4
MIAP[0]	/* MoveIndirectAbsPt */
EIF[ ]	/* EndIf */
PUSHW[ ]	/* 2 values pushed */
0 1
MIRP[11100]	/* MoveIndirectRelPt */
NPUSHW[ ]	/* 33 values pushed */
7 0 23 0 39 0 55 0 71 0 87 0 103 0 119 0 135 0 151 0 167 0 183 0 199 0 215 0 231 0 247 0 16
DELTAP1[ ]	/* DeltaExceptionP1 */
NPUSHW[ ]	/* 23 values pushed */
7 0 23 0 39 0 55 0 71 0 87 0 103 0 119 0 135 0 151 0 167 0 11
DELTAP2[ ]	/* DeltaExceptionP2 */
NPUSHW[ ]	/* 5 values pushed */
182 0 198 0 2
DELTAP2[ ]	/* DeltaExceptionP2 */
PUSHW[ ]	/* 1 value pushed */
30
SRP0[ ]	/* SetRefPoint0 */
PUSHW[ ]	/* 2 values pushed */
10 1
MIRP[11100]	/* MoveIndirectRelPt */
NPUSHW[ ]	/* 5 values pushed */
185 10 201 10 2
DELTAP2[ ]	/* DeltaExceptionP2 */
NPUSHW[ ]	/* 33 values pushed */
8 10 24 10 40 10 56 10 72 10 88 10 104 10 120 10 136 10 152 10 168 10 184 10 200 10 216 10 232 10 248 10 16
DELTAP1[ ]	/* DeltaExceptionP1 */
NPUSHW[ ]	/* 23 values pushed */
8 10 24 10 40 10 56 10 72 10 88 10 104 10 120 10 136 10 152 10 168 10 11
DELTAP2[ ]	/* DeltaExceptionP2 */
IUP[0]	/* InterpolateUntPts */
IUP[1]	/* InterpolateUntPts */";
};
width = 901;
}
);
note = O;
},
{
glyphname = O.002;
lastChange = "2025-01-13 19:00:14 +0000";
layers = (
{
hints = (
{
horizontal = 1;
place = (684,46);
type = Stem;
},
{
horizontal = 1;
place = (-15,44);
type = Stem;
},
{
place = (694,101);
type = Stem;
},
{
place = (47,103);
type = Stem;
}
);
layerId = m01;
shapes = (
{
closed = 1;
nodes = (
(414,730,l),
(322,719,l),
(259,697,l),
(193,656,l),
(113,577,l),
(69,494,l),
(49,420,l),
(47,362,l),
(57,273,l),
(85,185,l),
(106,144,l),
(151,90,l),
(216,36,l),
(308,-1,l),
(412,-15,l),
(462,-14,l),
(540,4,l),
(606,30,l),
(658,68,l),
(722,132,l),
(761,196,l),
(785,259,l),
(795,356,l),
(789,426,l),
(771,493,l),
(741,556,l),
(698,615,l),
(640,666,l),
(556,710,l),
(493,725,l),
(493,725,l)
);
},
{
closed = 1;
nodes = (
(420,685,l),
(514,665,l),
(555,642,l),
(596,611,l),
(655,518,l),
(689,410,l),
(694,343,l),
(684,260,l),
(662,193,l),
(608,109,l),
(543,62,l),
(491,40,l),
(425,30,l),
(363,37,l),
(308,59,l),
(260,93,l),
(217,141,l),
(181,207,l),
(160,273,l),
(149,369,l),
(159,456,l),
(182,527,l),
(213,578,l),
(247,617,l),
(295,652,l),
(343,670,l),
(343,670,l)
);
}
);
width = 842;
}
);
},
{
glyphname = O.003;
lastChange = "2025-01-13 19:00:14 +0000";
layers = (
{
hints = (
{
horizontal = 1;
place = (684,46);
type = Stem;
},
{
horizontal = 1;
place = (-15,44);
type = Stem;
},
{
place = (694,101);
type = Stem;
},
{
place = (47,103);
type = Stem;
}
);
layerId = m01;
shapes = (
{
closed = 1;
nodes = (
(414,730,l),
(322,719,l),
(259,697,l),
(193,656,l),
(113,577,l),
(69,494,l),
(49,420,l),
(47,362,l),
(57,273,l),
(85,185,l),
(106,144,l),
(151,90,l),
(216,36,l),
(308,-1,l),
(412,-15,l),
(462,-14,l),
(540,4,l),
(606,30,l),
(658,68,l),
(722,132,l),
(761,196,l),
(785,259,l),
(795,356,l),
(789,426,l),
(771,493,l),
(741,556,l),
(698,615,l),
(640,666,l),
(556,710,l),
(493,725,l),
(493,725,l)
);
},
{
closed = 1;
nodes = (
(420,685,l),
(514,665,l),
(555,642,l),
(596,611,l),
(655,518,l),
(689,410,l),
(694,343,l),
(684,260,l),
(662,193,l),
(608,109,l),
(543,62,l),
(491,40,l),
(425,30,l),
(363,37,l),
(308,59,l),
(260,93,l),
(217,141,l),
(181,207,l),
(160,273,l),
(149,369,l),
(159,456,l),
(182,527,l),
(213,578,l),
(247,617,l),
(295,652,l),
(343,670,l),
(343,670,l)
);
}
);
width = 842;
}
);
},
{
glyphname = O.004;
lastChange = "2025-01-13 19:00:14 +0000";
layers = (
{
hints = (
{
horizontal = 1;
place = (616,22);
type = Stem;
},
{
horizontal = 1;
place = (-16,23);
type = Stem;
},
{
place = (590,117);
type = Stem;
},
{
place = (25,118);
type = Stem;
}
);
layerId = m01;
shapes = (
{
closed = 1;
nodes = (
(25,321,l),
(29,251,l),
(50,185,l),
(83,123,l),
(133,73,l),
(165,45,l),
(215,16,l),
(285,-9,l),
(373,-16,l),
(426,-14,l),
(473,-3,l),
(566,51,l),
(619,96,l),
(658,146,l),
(698,228,l),
(708,319,l),
(703,385,l),
(690,429,l),
(669,477,l),
(637,522,l),
(564,586,l),
(487,622,l),
(369,639,l),
(257,623,l),
(182,592,l),
(110,531,l),
(65,470,l),
(40,411,l),
(40,411,l)
);
},
{
closed = 1;
nodes = (
(144,342,l),
(151,423,l),
(170,480,l),
(204,540,l),
(245,579,l),
(287,602,l),
(358,617,l),
(433,601,l),
(495,559,l),
(542,500,l),
(575,427,l),
(590,314,l),
(582,235,l),
(565,171,l),
(524,88,l),
(474,39,l),
(454,25,l),
(398,10,l),
(377,8,l),
(337,12,l),
(291,31,l),
(243,66,l),
(197,126,l),
(167,190,l),
(151,252,l),
(151,252,l)
);
}
);
width = 738;
}
);
},
{
glyphname = O.005;
lastChange = "2025-01-13 19:00:14 +0000";
layers = (
{
hints = (
{
horizontal = 1;
place = (706,35);
type = Stem;
},
{
horizontal = 1;
place = (-20,45);
type = Stem;
},
{
place = (724,111);
type = Stem;
},
{
place = (33,110);
type = Stem;
}
);
layerId = m01;
shapes = (
{
closed = 1;
nodes = (
(702,644,l),
(688,658,l),
(673,668,l),
(660,678,l),
(634,691,l),
(618,700,l),
(522,732,l),
(424,740,l),
(373,735,l),
(294,718,l),
(269,709,l),
(248,698,l),
(227,688,l),
(192,663,l),
(169,645,l),
(152,627,l),
(98,563,l),
(89,546,l),
(71,519,l),
(63,496,l),
(50,464,l),
(36,349,l),
(36,306,l),
(41,285,l),
(59,212,l),
(86,164,l),
(128,105,l),
(153,81,l),
(242,20,l),
(262,11,l),
(297,-2,l),
(312,-6,l),
(331,-12,l),
(357,-16,l),
(380,-19,l),
(397,-21,l),
(416,-22,l),
(454,-20,l),
(548,2,l),
(565,7,l),
(626,34,l),
(668,63,l),
(700,90,l),
(758,157,l),
(769,173,l),
(784,193,l),
(796,217,l),
(807,236,l),
(819,268,l),
(831,326,l),
(833,350,l),
(833,364,l),
(834,385,l),
(832,400,l),
(825,444,l),
(807,494,l),
(795,517,l),
(787,535,l),
(769,562,l),
(743,597,l),
(714,628,l),
(714,628,l)
);
},
{
closed = 1;
nodes = (
(226,121,l),
(191,173,l),
(164,234,l),
(146,327,l),
(142,386,l),
(146,451,l),
(158,506,l),
(200,588,l),
(252,641,l),
(277,660,l),
(300,671,l),
(375,695,l),
(396,695,l),
(418,698,l),
(440,696,l),
(463,695,l),
(488,687,l),
(558,659,l),
(603,625,l),
(634,598,l),
(649,573,l),
(668,549,l),
(677,524,l),
(692,496,l),
(699,466,l),
(713,430,l),
(716,390,l),
(721,330,l),
(710,247,l),
(677,168,l),
(644,116,l),
(632,102,l),
(582,60,l),
(528,38,l),
(442,20,l),
(385,25,l),
(347,37,l),
(278,72,l),
(259,89,l),
(243,104,l),
(235,114,l),
(235,114,l)
);
}
);
width = 869;
}
);
},
{
glyphname = O.006;
lastChange = "2025-01-13 19:00:14 +0000";
layers = (
{
hints = (
{
horizontal = 1;
place = (691,38);
type = Stem;
},
{
horizontal = 1;
place = (-20,39);
type = Stem;
},
{
place = (659,115);
type = Stem;
},
{
place = (26,118);
type = Stem;
}
);
layerId = m01;
shapes = (
{
closed = 1;
nodes = (
(26,344,l),
(31,288,l),
(41,244,l),
(70,180,l),
(83,159,l),
(90,148,l),
(96,139,l),
(106,128,l),
(118,113,l),
(168,62,l),
(210,36,l),
(281,-3,l),
(330,-16,l),
(396,-18,l),
(456,-15,l),
(511,0,l),
(585,38,l),
(681,117,l),
(710,153,l),
(742,208,l),
(771,317,l),
(772,357,l),
(772,395,l),
(760,460,l),
(727,544,l),
(673,621,l),
(661,634,l),
(642,649,l),
(602,678,l),
(566,697,l),
(539,709,l),
(499,720,l),
(403,730,l),
(353,725,l),
(325,721,l),
(303,714,l),
(281,710,l),
(258,699,l),
(193,666,l),
(161,643,l),
(139,622,l),
(90,563,l),
(56,502,l),
(43,468,l),
(36,434,l),
(31,402,l),
(29,374,l),
(29,374,l)
);
},
{
closed = 1;
nodes = (
(392,693,l),
(490,679,l),
(553,644,l),
(573,621,l),
(632,531,l),
(655,441,l),
(660,381,l),
(652,294,l),
(640,236,l),
(607,153,l),
(582,112,l),
(542,70,l),
(523,56,l),
(433,26,l),
(404,24,l),
(385,23,l),
(367,25,l),
(315,39,l),
(278,61,l),
(235,101,l),
(192,164,l),
(175,199,l),
(153,268,l),
(147,314,l),
(145,355,l),
(146,391,l),
(149,432,l),
(157,476,l),
(168,519,l),
(200,584,l),
(256,650,l),
(306,679,l),
(306,679,l)
);
}
);
width = 799;
}
);
},
{
glyphname = O.007;
lastChange = "2025-01-13 19:00:14 +0000";
layers = (
{
layerId = m01;
shapes = (
{
closed = 1;
nodes = (
(192.667,637,o),
(40,496,o),
(40,316,cs),
(40,136,o),
(193.333,-9,o),
(384,-9,cs),
(568,-9,o),
(728,141.333,o),
(728,316,cs),
(728,498.667,o),
(579.333,637,o),
(386,637,cs)
);
},
{
closed = 1;
nodes = (
(443.667,612,o),
(500.333,581.667,o),
(545,521,cs),
(586.333,463.667,o),
(607,394.333,o),
(607,313,cs),
(607,239.667,o),
(588.667,172.667,o),
(552,112,cs),
(512.667,48,o),
(459.667,16,o),
(393,16,cs),
(265,16,o),
(161,158.667,o),
(161,336,cs),
(161,500,o),
(248.333,612,o),
(375,612,cs)
);
}
);
userData = {
assembly = "PUSHW[ ]	/* 1 value pushed */
10
CALL[ ]	/* CallFunction */
PUSHW[ ]	/* 1 value pushed */
26
MDAP[1]	/* MoveDirectAbsPt */
PUSHW[ ]	/* 1 value pushed */
27
MDAP[1]	/* MoveDirectAbsPt */
PUSHW[ ]	/* 1 value pushed */
3
MDRP[11100]	/* MoveDirectRelPt */
PUSHW[ ]	/* 1 value pushed */
26
SRP0[ ]	/* SetRefPoint0 */
PUSHW[ ]	/* 1 value pushed */
9
MDRP[10000]	/* MoveDirectRelPt */
PUSHW[ ]	/* 1 value pushed */
9
MDAP[1]	/* MoveDirectAbsPt */
PUSHW[ ]	/* 1 value pushed */
15
MDRP[11100]	/* MoveDirectRelPt */
NPUSHW[ ]	/* 21 values pushed */
102 15 118 15 134 15 150 15 166 15 182 15 198 15 214 15 230 15 246 15 10
DELTAP1[ ]	/* DeltaExceptionP1 */
NPUSHW[ ]	/* 7 values pushed */
6 15 22 15 38 15 3
DELTAP2[ ]	/* DeltaExceptionP2 */
NPUSHW[ ]	/* 5 values pushed */
53 15 69 15 2
DELTAP2[ ]	/* DeltaExceptionP2 */
PUSHW[ ]	/* 1 value pushed */
3
SRP0[ ]	/* SetRefPoint0 */
PUSHW[ ]	/* 1 value pushed */
22
MDRP[11100]	/* MoveDirectRelPt */
NPUSHW[ ]	/* 5 values pushed */
58 22 74 22 2
DELTAP2[ ]	/* DeltaExceptionP2 */
NPUSHW[ ]	/* 21 values pushed */
105 22 121 22 137 22 153 22 169 22 185 22 201 22 217 22 233 22 249 22 10
DELTAP1[ ]	/* DeltaExceptionP1 */
NPUSHW[ ]	/* 7 values pushed */
9 22 25 22 41 22 3
DELTAP2[ ]	/* DeltaExceptionP2 */
SVTCA[0]	/* SetFreedomAndProjectionVectorToAxis */
PUSHW[ ]	/* 1 value pushed */
37
RCVT[ ]	/* ReadCVT */
IF[ ]	/* If */
PUSHW[ ]	/* 1 value pushed */
0
MDAP[1]	/* MoveDirectAbsPt */
ELSE[ ]	/* Else */
PUSHW[ ]	/* 2 values pushed */
0 44
MIAP[0]	/* MoveIndirectAbsPt */
EIF[ ]	/* EndIf */
PUSHW[ ]	/* 1 value pushed */
37
RCVT[ ]	/* ReadCVT */
IF[ ]	/* If */
PUSHW[ ]	/* 1 value pushed */
6
MDAP[1]	/* MoveDirectAbsPt */
ELSE[ ]	/* Else */
PUSHW[ ]	/* 2 values pushed */
6 38
MIAP[0]	/* MoveIndirectAbsPt */
EIF[ ]	/* EndIf */
PUSHW[ ]	/* 1 value pushed */
0
SRP0[ ]	/* SetRefPoint0 */
PUSHW[ ]	/* 1 value pushed */
12
MDRP[11100]	/* MoveDirectRelPt */
NPUSHW[ ]	/* 5 values pushed */
57 12 73 12 2
DELTAP2[ ]	/* DeltaExceptionP2 */
NPUSHW[ ]	/* 21 values pushed */
104 12 120 12 136 12 152 12 168 12 184 12 200 12 216 12 232 12 248 12 10
DELTAP1[ ]	/* DeltaExceptionP1 */
NPUSHW[ ]	/* 7 values pushed */
8 12 24 12 40 12 3
DELTAP2[ ]	/* DeltaExceptionP2 */
PUSHW[ ]	/* 1 value pushed */
6
SRP0[ ]	/* SetRefPoint0 */
PUSHW[ ]	/* 1 value pushed */
18
MDRP[11100]	/* MoveDirectRelPt */
NPUSHW[ ]	/* 21 values pushed */
103 18 119 18 135 18 151 18 167 18 183 18 199 18 215 18 231 18 247 18 10
DELTAP1[ ]	/* DeltaExceptionP1 */
NPUSHW[ ]	/* 7 values pushed */
7 18 23 18 39 18 3
DELTAP2[ ]	/* DeltaExceptionP2 */
NPUSHW[ ]	/* 5 values pushed */
54 18 70 18 2
DELTAP2[ ]	/* DeltaExceptionP2 */
IUP[0]	/* InterpolateUntPts */
IUP[1]	/* InterpolateUntPts */";
};
width = 769;
}
);
note = O;
},
{
glyphname = O.008;
lastChange = "2025-01-13 19:00:14 +0000";
layers = (
{
layerId = m01;
shapes = (
{
closed = 1;
nodes = (
(369.667,753,o),
(291.333,730.333,o),
(224,685,cs),
(153.333,638.333,o),
(88.667,557.333,o),
(66,488,cs),
(48.667,438,o),
(40,388.667,o),
(40,340,cs),
(40,276,o),
(57.667,218.333,o),
(93,167,cs),
(140.333,98.333,o),
(196.333,48,o),
(261,16,cs),
(314.333,-10,o),
(372.333,-23,o),
(435,-23,cs),
(531,-23,o),
(647,20.333,o),
(715,83,cs),
(804.333,163,o),
(862,281.667,o),
(862,383,cs),
(862,403,o),
(859,425.333,o),
(853,450,cs),
(839.667,506.667,o),
(812,560.333,o),
(770,611,cs),
(691.333,705.667,o),
(587.667,753,o),
(459,753,cs)
);
},
{
closed = 1;
nodes = (
(520.333,715,o),
(611.333,671.667,o),
(662,605,cs),
(720,528.333,o),
(749,439.667,o),
(749,339,cs),
(749,289.667,o),
(741,246.333,o),
(725,209,cs),
(694.333,135,o),
(651.333,85,o),
(596,59,cs),
(547.333,35.667,o),
(501.333,24,o),
(458,24,cs),
(400.667,24,o),
(316,46,o),
(240,138,cs),
(183.333,206,o),
(155,295,o),
(155,405,cs),
(155,489,o),
(174.333,555.333,o),
(213,604,cs),
(271,678,o),
(345,715,o),
(435,715,cs)
);
}
);
userData = {
assembly = "PUSHW[ ]	/* 1 value pushed */
10
CALL[ ]	/* CallFunction */
PUSHW[ ]	/* 1 value pushed */
45
MDAP[1]	/* MoveDirectAbsPt */
PUSHW[ ]	/* 1 value pushed */
46
MDAP[1]	/* MoveDirectAbsPt */
PUSHW[ ]	/* 1 value pushed */
6
MDRP[11100]	/* MoveDirectRelPt */
PUSHW[ ]	/* 1 value pushed */
45
SRP0[ ]	/* SetRefPoint0 */
PUSHW[ ]	/* 1 value pushed */
18
MDRP[10000]	/* MoveDirectRelPt */
PUSHW[ ]	/* 1 value pushed */
18
MDAP[1]	/* MoveDirectAbsPt */
PUSHW[ ]	/* 1 value pushed */
29
MDRP[11100]	/* MoveDirectRelPt */
NPUSHW[ ]	/* 21 values pushed */
102 29 118 29 134 29 150 29 166 29 182 29 198 29 214 29 230 29 246 29 10
DELTAP1[ ]	/* DeltaExceptionP1 */
NPUSHW[ ]	/* 7 values pushed */
6 29 22 29 38 29 3
DELTAP2[ ]	/* DeltaExceptionP2 */
NPUSHW[ ]	/* 5 values pushed */
53 29 69 29 2
DELTAP2[ ]	/* DeltaExceptionP2 */
PUSHW[ ]	/* 1 value pushed */
6
SRP0[ ]	/* SetRefPoint0 */
PUSHW[ ]	/* 1 value pushed */
40
MDRP[11100]	/* MoveDirectRelPt */
NPUSHW[ ]	/* 5 values pushed */
58 40 74 40 2
DELTAP2[ ]	/* DeltaExceptionP2 */
NPUSHW[ ]	/* 21 values pushed */
105 40 121 40 137 40 153 40 169 40 185 40 201 40 217 40 233 40 249 40 10
DELTAP1[ ]	/* DeltaExceptionP1 */
NPUSHW[ ]	/* 7 values pushed */
9 40 25 40 41 40 3
DELTAP2[ ]	/* DeltaExceptionP2 */
SVTCA[0]	/* SetFreedomAndProjectionVectorToAxis */
PUSHW[ ]	/* 1 value pushed */
37
RCVT[ ]	/* ReadCVT */
IF[ ]	/* If */
PUSHW[ ]	/* 1 value pushed */
0
MDAP[1]	/* MoveDirectAbsPt */
ELSE[ ]	/* Else */
PUSHW[ ]	/* 2 values pushed */
0 44
MIAP[0]	/* MoveIndirectAbsPt */
EIF[ ]	/* EndIf */
PUSHW[ ]	/* 1 value pushed */
37
RCVT[ ]	/* ReadCVT */
IF[ ]	/* If */
PUSHW[ ]	/* 1 value pushed */
12
MDAP[1]	/* MoveDirectAbsPt */
ELSE[ ]	/* Else */
PUSHW[ ]	/* 2 values pushed */
12 38
MIAP[0]	/* MoveIndirectAbsPt */
EIF[ ]	/* EndIf */
PUSHW[ ]	/* 1 value pushed */
0
SRP0[ ]	/* SetRefPoint0 */
PUSHW[ ]	/* 1 value pushed */
25
MDRP[11100]	/* MoveDirectRelPt */
NPUSHW[ ]	/* 5 values pushed */
57 25 73 25 2
DELTAP2[ ]	/* DeltaExceptionP2 */
NPUSHW[ ]	/* 21 values pushed */
104 25 120 25 136 25 152 25 168 25 184 25 200 25 216 25 232 25 248 25 10
DELTAP1[ ]	/* DeltaExceptionP1 */
NPUSHW[ ]	/* 7 values pushed */
8 25 24 25 40 25 3
DELTAP2[ ]	/* DeltaExceptionP2 */
PUSHW[ ]	/* 1 value pushed */
12
SRP0[ ]	/* SetRefPoint0 */
PUSHW[ ]	/* 1 value pushed */
34
MDRP[11100]	/* MoveDirectRelPt */
NPUSHW[ ]	/* 21 values pushed */
103 34 119 34 135 34 151 34 167 34 183 34 199 34 215 34 231 34 247 34 10
DELTAP1[ ]	/* DeltaExceptionP1 */
NPUSHW[ ]	/* 7 values pushed */
7 34 23 34 39 34 3
DELTAP2[ ]	/* DeltaExceptionP2 */
NPUSHW[ ]	/* 5 values pushed */
54 34 70 34 2
DELTAP2[ ]	/* DeltaExceptionP2 */
IUP[0]	/* InterpolateUntPts */
IUP[1]	/* InterpolateUntPts */";
};
width = 901;
}
);
note = O;
},
{
glyphname = O.009;
lastChange = "2025-01-13 19:00:14 +0000";
layers = (
{
layerId = m01;
shapes = (
{
closed = 1;
nodes = (
(218,775,o),
(48,601,o),
(48,377,cs),
(48,153,o),
(213.333,-19,o),
(432,-19,cs),
(653.333,-19,o),
(822,149.333,o),
(822,376,cs),
(822,601.333,o),
(652.667,775,o),
(434,775,cs)
);
},
{
closed = 1;
nodes = (
(599,741,o),
(714,589,o),
(714,373,cs),
(714,262.333,o),
(690.333,175,o),
(643,111,cs),
(600.333,55,o),
(520.667,17,o),
(442,17,cs),
(272.667,17,o),
(153,167.667,o),
(153,377,cs),
(153,601,o),
(261.667,741,o),
(435,741,cs)
);
}
);
userData = {
assembly = "PUSHW[ ]	/* 1 value pushed */
10
CALL[ ]	/* CallFunction */
PUSHW[ ]	/* 1 value pushed */
26
MDAP[1]	/* MoveDirectAbsPt */
PUSHW[ ]	/* 1 value pushed */
27
MDAP[1]	/* MoveDirectAbsPt */
PUSHW[ ]	/* 1 value pushed */
3
MDRP[11100]	/* MoveDirectRelPt */
PUSHW[ ]	/* 1 value pushed */
26
SRP0[ ]	/* SetRefPoint0 */
PUSHW[ ]	/* 1 value pushed */
9
MDRP[10000]	/* MoveDirectRelPt */
PUSHW[ ]	/* 1 value pushed */
9
MDAP[1]	/* MoveDirectAbsPt */
PUSHW[ ]	/* 1 value pushed */
15
MDRP[11100]	/* MoveDirectRelPt */
NPUSHW[ ]	/* 21 values pushed */
102 15 118 15 134 15 150 15 166 15 182 15 198 15 214 15 230 15 246 15 10
DELTAP1[ ]	/* DeltaExceptionP1 */
NPUSHW[ ]	/* 7 values pushed */
6 15 22 15 38 15 3
DELTAP2[ ]	/* DeltaExceptionP2 */
NPUSHW[ ]	/* 5 values pushed */
53 15 69 15 2
DELTAP2[ ]	/* DeltaExceptionP2 */
PUSHW[ ]	/* 1 value pushed */
3
SRP0[ ]	/* SetRefPoint0 */
PUSHW[ ]	/* 1 value pushed */
23
MDRP[11100]	/* MoveDirectRelPt */
NPUSHW[ ]	/* 5 values pushed */
58 23 74 23 2
DELTAP2[ ]	/* DeltaExceptionP2 */
NPUSHW[ ]	/* 21 values pushed */
105 23 121 23 137 23 153 23 169 23 185 23 201 23 217 23 233 23 249 23 10
DELTAP1[ ]	/* DeltaExceptionP1 */
NPUSHW[ ]	/* 7 values pushed */
9 23 25 23 41 23 3
DELTAP2[ ]	/* DeltaExceptionP2 */
SVTCA[0]	/* SetFreedomAndProjectionVectorToAxis */
PUSHW[ ]	/* 1 value pushed */
33
RCVT[ ]	/* ReadCVT */
IF[ ]	/* If */
PUSHW[ ]	/* 1 value pushed */
0
MDAP[1]	/* MoveDirectAbsPt */
ELSE[ ]	/* Else */
PUSHW[ ]	/* 2 values pushed */
0 40
MIAP[0]	/* MoveIndirectAbsPt */
EIF[ ]	/* EndIf */
PUSHW[ ]	/* 1 value pushed */
33
RCVT[ ]	/* ReadCVT */
IF[ ]	/* If */
PUSHW[ ]	/* 1 value pushed */
6
MDAP[1]	/* MoveDirectAbsPt */
ELSE[ ]	/* Else */
PUSHW[ ]	/* 2 values pushed */
6 34
MIAP[0]	/* MoveIndirectAbsPt */
EIF[ ]	/* EndIf */
PUSHW[ ]	/* 1 value pushed */
0
SRP0[ ]	/* SetRefPoint0 */
PUSHW[ ]	/* 1 value pushed */
12
MDRP[11100]	/* MoveDirectRelPt */
NPUSHW[ ]	/* 5 values pushed */
57 12 73 12 2
DELTAP2[ ]	/* DeltaExceptionP2 */
NPUSHW[ ]	/* 21 values pushed */
104 12 120 12 136 12 152 12 168 12 184 12 200 12 216 12 232 12 248 12 10
DELTAP1[ ]	/* DeltaExceptionP1 */
NPUSHW[ ]	/* 7 values pushed */
8 12 24 12 40 12 3
DELTAP2[ ]	/* DeltaExceptionP2 */
PUSHW[ ]	/* 1 value pushed */
6
SRP0[ ]	/* SetRefPoint0 */
PUSHW[ ]	/* 1 value pushed */
18
MDRP[11100]	/* MoveDirectRelPt */
NPUSHW[ ]	/* 21 values pushed */
103 18 119 18 135 18 151 18 167 18 183 18 199 18 215 18 231 18 247 18 10
DELTAP1[ ]	/* DeltaExceptionP1 */
NPUSHW[ ]	/* 7 values pushed */
7 18 23 18 39 18 3
DELTAP2[ ]	/* DeltaExceptionP2 */
NPUSHW[ ]	/* 5 values pushed */
54 18 70 18 2
DELTAP2[ ]	/* DeltaExceptionP2 */
IUP[0]	/* InterpolateUntPts */
IUP[1]	/* InterpolateUntPts */";
};
width = 869;
}
);
note = O;
},
{
glyphname = O.010;
lastChange = "2025-01-13 19:00:14 +0000";
layers = (
{
layerId = m01;
shapes = (
{
closed = 1;
nodes = (
(191.241,726.649,o),
(47,555.765,o),
(47,362,cs),
(47,295.195,o),
(62.967,165.376,o),
(179,67,cs),
(267.554,-7.718,o),
(353.286,-16,o),
(414,-16,cs),
(494,-16,o),
(582,-0.333,o),
(670,73,cs),
(704.667,101,o),
(746.333,146,o),
(773,218,cs),
(789.667,260.667,o),
(798,307,o),
(798,357,cs),
(798,550.224,o),
(660.567,737.317,o),
(416,732,cs)
);
},
{
closed = 1;
nodes = (
(610.634,687,o),
(697,496.724,o),
(697,342,cs),
(697,159.636,o),
(578.6,28,o),
(427,28,cs),
(249.814,28,o),
(150,197.575,o),
(150,369,cs),
(150,567.77,o),
(279.924,687,o),
(422,687,cs)
);
}
);
userData = {
assembly = "PUSHW[ ]	/* 1 value pushed */
48
MDAP[1]	/* MoveDirectAbsPt */
PUSHW[ ]	/* 1 value pushed */
49
MDAP[1]	/* MoveDirectAbsPt */
PUSHW[ ]	/* 1 value pushed */
5
MDRP[11100]	/* MoveDirectRelPt */
PUSHW[ ]	/* 1 value pushed */
48
SRP0[ ]	/* SetRefPoint0 */
PUSHW[ ]	/* 1 value pushed */
23
MDRP[10000]	/* MoveDirectRelPt */
PUSHW[ ]	/* 1 value pushed */
23
MDAP[1]	/* MoveDirectAbsPt */
PUSHW[ ]	/* 2 values pushed */
33 3
MIRP[11100]	/* MoveIndirectRelPt */
NPUSHW[ ]	/* 17 values pushed */
6 33 22 33 38 33 54 33 70 33 86 33 102 33 118 33 8
DELTAP1[ ]	/* DeltaExceptionP1 */
NPUSHW[ ]	/* 5 values pushed */
133 33 149 33 2
DELTAP1[ ]	/* DeltaExceptionP1 */
PUSHW[ ]	/* 1 value pushed */
5
SRP0[ ]	/* SetRefPoint0 */
PUSHW[ ]	/* 2 values pushed */
43 3
MIRP[11100]	/* MoveIndirectRelPt */
NPUSHW[ ]	/* 5 values pushed */
138 43 154 43 2
DELTAP1[ ]	/* DeltaExceptionP1 */
NPUSHW[ ]	/* 17 values pushed */
9 43 25 43 41 43 57 43 73 43 89 43 105 43 121 43 8
DELTAP1[ ]	/* DeltaExceptionP1 */
SVTCA[0]	/* SetFreedomAndProjectionVectorToAxis */
PUSHW[ ]	/* 1 value pushed */
0
RCVT[ ]	/* ReadCVT */
IF[ ]	/* If */
PUSHW[ ]	/* 1 value pushed */
0
MDAP[1]	/* MoveDirectAbsPt */
ELSE[ ]	/* Else */
PUSHW[ ]	/* 2 values pushed */
0 18
MIAP[0]	/* MoveIndirectAbsPt */
EIF[ ]	/* EndIf */
PUSHW[ ]	/* 1 value pushed */
0
RCVT[ ]	/* ReadCVT */
IF[ ]	/* If */
PUSHW[ ]	/* 1 value pushed */
13
MDAP[1]	/* MoveDirectAbsPt */
ELSE[ ]	/* Else */
PUSHW[ ]	/* 2 values pushed */
13 4
MIAP[0]	/* MoveIndirectAbsPt */
EIF[ ]	/* EndIf */
PUSHW[ ]	/* 1 value pushed */
0
SRP0[ ]	/* SetRefPoint0 */
PUSHW[ ]	/* 2 values pushed */
28 1
MIRP[11100]	/* MoveIndirectRelPt */
NPUSHW[ ]	/* 5 values pushed */
153 28 169 28 2
DELTAP2[ ]	/* DeltaExceptionP2 */
NPUSHW[ ]	/* 33 values pushed */
8 28 24 28 40 28 56 28 72 28 88 28 104 28 120 28 136 28 152 28 168 28 184 28 200 28 216 28 232 28 248 28 16
DELTAP1[ ]	/* DeltaExceptionP1 */
NPUSHW[ ]	/* 19 values pushed */
8 28 24 28 40 28 56 28 72 28 88 28 104 28 120 28 136 28 9
DELTAP2[ ]	/* DeltaExceptionP2 */
PUSHW[ ]	/* 1 value pushed */
13
SRP0[ ]	/* SetRefPoint0 */
PUSHW[ ]	/* 2 values pushed */
38 1
MIRP[11100]	/* MoveIndirectRelPt */
NPUSHW[ ]	/* 33 values pushed */
7 38 23 38 39 38 55 38 71 38 87 38 103 38 119 38 135 38 151 38 167 38 183 38 199 38 215 38 231 38 247 38 16
DELTAP1[ ]	/* DeltaExceptionP1 */
NPUSHW[ ]	/* 19 values pushed */
7 38 23 38 39 38 55 38 71 38 87 38 103 38 119 38 135 38 9
DELTAP2[ ]	/* DeltaExceptionP2 */
NPUSHW[ ]	/* 5 values pushed */
150 38 166 38 2
DELTAP2[ ]	/* DeltaExceptionP2 */
IUP[0]	/* InterpolateUntPts */
IUP[1]	/* InterpolateUntPts */";
};
width = 846;
}
);
note = O;
},
{
glyphname = O.011;
lastChange = "2025-01-13 19:00:14 +0000";
layers = (
{
layerId = m01;
shapes = (
{
closed = 1;
nodes = (
(207.667,723,o),
(52,565.667,o),
(52,347,cs),
(52,123,o),
(199.333,-31,o),
(414,-31,cs),
(522.667,-31,o),
(613.667,8.333,o),
(687,87,cs),
(751.667,156.333,o),
(784,243.667,o),
(784,349,cs),
(784,452.333,o),
(757,536,o),
(703,600,cs),
(634.333,682,o),
(541.667,723,o),
(425,723,cs)
);
},
{
closed = 1;
nodes = (
(509.667,685,o),
(575,648.667,o),
(621,576,cs),
(660.333,514.667,o),
(680,439,o),
(680,349,cs),
(680,249,o),
(657,168,o),
(611,106,cs),
(561.667,39.333,o),
(497.667,6,o),
(419,6,cs),
(267,6,o),
(158,144.667,o),
(158,346,cs),
(158,547.333,o),
(266.333,685,o),
(425,685,cs)
);
}
);
userData = {
assembly = "PUSHW[ ]	/* 1 value pushed */
10
CALL[ ]	/* CallFunction */
PUSHW[ ]	/* 1 value pushed */
28
MDAP[1]	/* MoveDirectAbsPt */
PUSHW[ ]	/* 1 value pushed */
29
MDAP[1]	/* MoveDirectAbsPt */
PUSHW[ ]	/* 1 value pushed */
4
MDRP[11100]	/* MoveDirectRelPt */
PUSHW[ ]	/* 1 value pushed */
24
MDRP[11100]	/* MoveDirectRelPt */
NPUSHW[ ]	/* 5 values pushed */
58 24 74 24 2
DELTAP2[ ]	/* DeltaExceptionP2 */
NPUSHW[ ]	/* 21 values pushed */
105 24 121 24 137 24 153 24 169 24 185 24 201 24 217 24 233 24 249 24 10
DELTAP1[ ]	/* DeltaExceptionP1 */
NPUSHW[ ]	/* 7 values pushed */
9 24 25 24 41 24 3
DELTAP2[ ]	/* DeltaExceptionP2 */
PUSHW[ ]	/* 1 value pushed */
6
MDRP[10000]	/* MoveDirectRelPt */
PUSHW[ ]	/* 1 value pushed */
6
MDAP[1]	/* MoveDirectAbsPt */
PUSHW[ ]	/* 1 value pushed */
28
SRP0[ ]	/* SetRefPoint0 */
PUSHW[ ]	/* 1 value pushed */
11
MDRP[10000]	/* MoveDirectRelPt */
PUSHW[ ]	/* 1 value pushed */
11
MDAP[1]	/* MoveDirectAbsPt */
PUSHW[ ]	/* 1 value pushed */
17
MDRP[11100]	/* MoveDirectRelPt */
NPUSHW[ ]	/* 21 values pushed */
102 17 118 17 134 17 150 17 166 17 182 17 198 17 214 17 230 17 246 17 10
DELTAP1[ ]	/* DeltaExceptionP1 */
NPUSHW[ ]	/* 7 values pushed */
6 17 22 17 38 17 3
DELTAP2[ ]	/* DeltaExceptionP2 */
NPUSHW[ ]	/* 5 values pushed */
53 17 69 17 2
DELTAP2[ ]	/* DeltaExceptionP2 */
SVTCA[0]	/* SetFreedomAndProjectionVectorToAxis */
PUSHW[ ]	/* 1 value pushed */
35
RCVT[ ]	/* ReadCVT */
IF[ ]	/* If */
PUSHW[ ]	/* 1 value pushed */
0
MDAP[1]	/* MoveDirectAbsPt */
ELSE[ ]	/* Else */
PUSHW[ ]	/* 2 values pushed */
0 42
MIAP[0]	/* MoveIndirectAbsPt */
EIF[ ]	/* EndIf */
PUSHW[ ]	/* 1 value pushed */
35
RCVT[ ]	/* ReadCVT */
IF[ ]	/* If */
PUSHW[ ]	/* 1 value pushed */
8
MDAP[1]	/* MoveDirectAbsPt */
ELSE[ ]	/* Else */
PUSHW[ ]	/* 2 values pushed */
8 36
MIAP[0]	/* MoveIndirectAbsPt */
EIF[ ]	/* EndIf */
PUSHW[ ]	/* 1 value pushed */
0
SRP0[ ]	/* SetRefPoint0 */
PUSHW[ ]	/* 1 value pushed */
14
MDRP[11100]	/* MoveDirectRelPt */
NPUSHW[ ]	/* 5 values pushed */
57 14 73 14 2
DELTAP2[ ]	/* DeltaExceptionP2 */
NPUSHW[ ]	/* 21 values pushed */
104 14 120 14 136 14 152 14 168 14 184 14 200 14 216 14 232 14 248 14 10
DELTAP1[ ]	/* DeltaExceptionP1 */
NPUSHW[ ]	/* 7 values pushed */
8 14 24 14 40 14 3
DELTAP2[ ]	/* DeltaExceptionP2 */
PUSHW[ ]	/* 1 value pushed */
8
SRP0[ ]	/* SetRefPoint0 */
PUSHW[ ]	/* 1 value pushed */
20
MDRP[11100]	/* MoveDirectRelPt */
NPUSHW[ ]	/* 21 values pushed */
103 20 119 20 135 20 151 20 167 20 183 20 199 20 215 20 231 20 247 20 10
DELTAP1[ ]	/* DeltaExceptionP1 */
NPUSHW[ ]	/* 7 values pushed */
7 20 23 20 39 20 3
DELTAP2[ ]	/* DeltaExceptionP2 */
NPUSHW[ ]	/* 5 values pushed */
54 20 70 20 2
DELTAP2[ ]	/* DeltaExceptionP2 */
IUP[0]	/* InterpolateUntPts */
IUP[1]	/* InterpolateUntPts */";
};
width = 836;
}
);
note = O;
},
{
glyphname = a.001;
lastChange = "2025-01-13 19:00:14 +0000";
layers = (
{
layerId = m01;
shapes = (
{
closed = 1;
nodes = (
(127,147,o),
(159,164.333,o),
(227,187,cs),
(248.333,195,o),
(266.333,198,o),
(273,198,cs),
(281,198,o),
(285,196,o),
(285,184,cs),
(282,117,ls),
(282,93,o),
(281.333,77.667,o),
(268,63,cs),
(254.667,51,o),
(220.667,35,o),
(198,35,cs),
(141.689,35,o),
(127,83.549,o),
(127,103,cs)
);
},
{
closed = 1;
nodes = (
(60.667,160.667,o),
(40,132.667,o),
(40,90,cs),
(40,58,o),
(53.667,30,o),
(75,10,cs),
(94.333,-7.333,o),
(120.667,-16,o),
(154,-16,cs),
(186,-16,o),
(209.333,-1.333,o),
(236,12,cs),
(247.333,18.667,o),
(256.5,24.167,o),
(263.5,28.5,cs),
(270.5,32.833,o),
(276,35,o),
(280,35,cs),
(288,35,o),
(294,27,o),
(298,19,c),
(318,-6.333,o),
(344,-16,o),
(372,-16,cs),
(414.431,-16,o),
(467,21.121,o),
(467,34,cs),
(467,44,o),
(464.333,49,o),
(459,49,cs),
(457.667,49,o),
(455.667,48,o),
(453,46,cs),
(450.333,44,o),
(447.333,42.333,o),
(444,41,cs),
(437.333,38.333,o),
(428,34,o),
(416,34,cs),
(372,34,o),
(361.333,79.667,o),
(364,133,cs),
(371,330,ls),
(373.667,415.333,o),
(334.333,462,o),
(253,462,cs),
(174.562,462,o),
(42,383.753,o),
(42,323,cs),
(42,312.333,o),
(47.333,307,o),
(58,307,cs),
(74,307,o),
(106,315.667,o),
(122,329,cs),
(131.333,335.667,o),
(132.667,349.667,o),
(134,367,cs),
(136.667,401.667,o),
(174,418,o),
(206,418,cs),
(275.167,418,o),
(289,364.158,o),
(289,320,cs),
(288,268,ls),
(286.667,250.667,o),
(285,240.333,o),
(269,235,cs),
(134,186,l),
(134,186,l)
);
}
);
userData = {
assembly = "PUSHW[ ]	/* 1 value pushed */
87
MDAP[1]	/* MoveDirectAbsPt */
PUSHW[ ]	/* 4 values pushed */
50 2 24 4
CALL[ ]	/* CallFunction */
PUSHW[ ]	/* 1 value pushed */
50
SRP0[ ]	/* SetRefPoint0 */
PUSHW[ ]	/* 1 value pushed */
87
SRP0[ ]	/* SetRefPoint0 */
PUSHW[ ]	/* 1 value pushed */
83
MDRP[10000]	/* MoveDirectRelPt */
PUSHW[ ]	/* 1 value pushed */
83
MDAP[1]	/* MoveDirectAbsPt */
PUSHW[ ]	/* 2 values pushed */
0 2
MIRP[11100]	/* MoveIndirectRelPt */
NPUSHW[ ]	/* 19 values pushed */
6 0 22 0 38 0 54 0 70 0 86 0 102 0 118 0 134 0 9
DELTAP1[ ]	/* DeltaExceptionP1 */
NPUSHW[ ]	/* 5 values pushed */
149 0 165 0 2
DELTAP1[ ]	/* DeltaExceptionP1 */
PUSHW[ ]	/* 1 value pushed */
24
SRP0[ ]	/* SetRefPoint0 */
PUSHW[ ]	/* 1 value pushed */
11
MDRP[10000]	/* MoveDirectRelPt */
PUSHW[ ]	/* 1 value pushed */
11
MDAP[1]	/* MoveDirectAbsPt */
PUSHW[ ]	/* 1 value pushed */
0
SRP0[ ]	/* SetRefPoint0 */
PUSHW[ ]	/* 1 value pushed */
33
MDRP[10000]	/* MoveDirectRelPt */
PUSHW[ ]	/* 1 value pushed */
33
MDAP[1]	/* MoveDirectAbsPt */
PUSHW[ ]	/* 1 value pushed */
0
SRP0[ ]	/* SetRefPoint0 */
PUSHW[ ]	/* 1 value pushed */
36
MDRP[10000]	/* MoveDirectRelPt */
PUSHW[ ]	/* 1 value pushed */
36
MDAP[1]	/* MoveDirectAbsPt */
PUSHW[ ]	/* 1 value pushed */
83
SRP0[ ]	/* SetRefPoint0 */
PUSHW[ ]	/* 1 value pushed */
41
MDRP[10000]	/* MoveDirectRelPt */
PUSHW[ ]	/* 1 value pushed */
41
MDAP[1]	/* MoveDirectAbsPt */
PUSHW[ ]	/* 1 value pushed */
50
SRP0[ ]	/* SetRefPoint0 */
PUSHW[ ]	/* 1 value pushed */
66
MDRP[10000]	/* MoveDirectRelPt */
PUSHW[ ]	/* 1 value pushed */
66
MDAP[1]	/* MoveDirectAbsPt */
PUSHW[ ]	/* 1 value pushed */
24
SRP0[ ]	/* SetRefPoint0 */
PUSHW[ ]	/* 1 value pushed */
72
MDRP[10000]	/* MoveDirectRelPt */
PUSHW[ ]	/* 1 value pushed */
72
MDAP[1]	/* MoveDirectAbsPt */
PUSHW[ ]	/* 1 value pushed */
0
SRP0[ ]	/* SetRefPoint0 */
PUSHW[ ]	/* 1 value pushed */
86
MDRP[10000]	/* MoveDirectRelPt */
PUSHW[ ]	/* 1 value pushed */
86
MDAP[1]	/* MoveDirectAbsPt */
SVTCA[0]	/* SetFreedomAndProjectionVectorToAxis */
PUSHW[ ]	/* 1 value pushed */
0
RCVT[ ]	/* ReadCVT */
IF[ ]	/* If */
PUSHW[ ]	/* 1 value pushed */
46
MDAP[1]	/* MoveDirectAbsPt */
ELSE[ ]	/* Else */
PUSHW[ ]	/* 2 values pushed */
46 10
MIAP[0]	/* MoveIndirectAbsPt */
EIF[ ]	/* EndIf */
PUSHW[ ]	/* 1 value pushed */
0
RCVT[ ]	/* ReadCVT */
IF[ ]	/* If */
PUSHW[ ]	/* 1 value pushed */
66
MDAP[1]	/* MoveDirectAbsPt */
ELSE[ ]	/* Else */
PUSHW[ ]	/* 2 values pushed */
66 4
MIAP[0]	/* MoveIndirectAbsPt */
EIF[ ]	/* EndIf */
PUSHW[ ]	/* 1 value pushed */
0
RCVT[ ]	/* ReadCVT */
IF[ ]	/* If */
PUSHW[ ]	/* 1 value pushed */
78
MDAP[1]	/* MoveDirectAbsPt */
ELSE[ ]	/* Else */
PUSHW[ ]	/* 2 values pushed */
78 4
MIAP[0]	/* MoveIndirectAbsPt */
EIF[ ]	/* EndIf */
PUSHW[ ]	/* 2 values pushed */
5 1
MIRP[11100]	/* MoveIndirectRelPt */
NPUSHW[ ]	/* 33 values pushed */
7 5 23 5 39 5 55 5 71 5 87 5 103 5 119 5 135 5 151 5 167 5 183 5 199 5 215 5 231 5 247 5 16
DELTAP1[ ]	/* DeltaExceptionP1 */
NPUSHW[ ]	/* 23 values pushed */
7 5 23 5 39 5 55 5 71 5 87 5 103 5 119 5 135 5 151 5 167 5 11
DELTAP2[ ]	/* DeltaExceptionP2 */
NPUSHW[ ]	/* 5 values pushed */
182 5 198 5 2
DELTAP2[ ]	/* DeltaExceptionP2 */
PUSHW[ ]	/* 1 value pushed */
46
SRP0[ ]	/* SetRefPoint0 */
PUSHW[ ]	/* 2 values pushed */
30 1
MIRP[11100]	/* MoveIndirectRelPt */
NPUSHW[ ]	/* 5 values pushed */
185 30 201 30 2
DELTAP2[ ]	/* DeltaExceptionP2 */
NPUSHW[ ]	/* 33 values pushed */
8 30 24 30 40 30 56 30 72 30 88 30 104 30 120 30 136 30 152 30 168 30 184 30 200 30 216 30 232 30 248 30 16
DELTAP1[ ]	/* DeltaExceptionP1 */
NPUSHW[ ]	/* 23 values pushed */
8 30 24 30 40 30 56 30 72 30 88 30 104 30 120 30 136 30 152 30 168 30 11
DELTAP2[ ]	/* DeltaExceptionP2 */
PUSHW[ ]	/* 1 value pushed */
5
SRP0[ ]	/* SetRefPoint0 */
PUSHW[ ]	/* 1 value pushed */
53
MDRP[10000]	/* MoveDirectRelPt */
PUSHW[ ]	/* 1 value pushed */
72
MDRP[10000]	/* MoveDirectRelPt */
PUSHW[ ]	/* 1 value pushed */
72
MDAP[1]	/* MoveDirectAbsPt */
IUP[0]	/* InterpolateUntPts */
IUP[1]	/* InterpolateUntPts */";
};
width = 458;
}
);
note = a;
},
{
glyphname = a.002;
lastChange = "2025-01-13 19:00:14 +0000";
layers = (
{
hints = (
{
horizontal = 1;
place = (411,54);
type = Stem;
},
{
horizontal = 1;
place = (-7,54);
type = Stem;
},
{
place = (276,78);
type = Stem;
},
{
place = (40,83);
type = Stem;
}
);
layerId = m01;
shapes = (
{
closed = 1;
nodes = (
(417,61,l),
(380,42,l),
(360,56,l),
(350,122,l),
(355,305,l),
(351,369,l),
(337,412,l),
(310,440,l),
(259,461,l),
(222,462,l),
(198,450,l),
(167,432,l),
(136,413,l),
(101,389,l),
(77,371,l),
(61,344,l),
(57,323,l),
(68,309,l),
(112,324,l),
(122,346,l),
(130,372,l),
(188,405,l),
(212,410,l),
(246,396,l),
(264,369,l),
(276,326,l),
(276,249,l),
(151,203,l),
(83,174,l),
(49,139,l),
(40,98,l),
(46,55,l),
(67,21,l),
(98,-1,l),
(144,-7,l),
(191,-1,l),
(230,18,l),
(276,61,l),
(280,27,l),
(301,1,l),
(331,-10,l),
(364,-6,l),
(394,10,l),
(431,36,l),
(431,36,l)
);
},
{
closed = 1;
nodes = (
(276,97,l),
(245,72,l),
(216,55,l),
(184,47,l),
(160,51,l),
(141,64,l),
(128,84,l),
(123,109,l),
(129,133,l),
(141,153,l),
(169,174,l),
(222,196,l),
(274,216,l),
(274,216,l)
);
}
);
width = 442;
}
);
},
{
glyphname = a.003;
lastChange = "2025-01-13 19:00:14 +0000";
layers = (
{
hints = (
{
horizontal = 1;
place = (411,54);
type = Stem;
},
{
horizontal = 1;
place = (-7,54);
type = Stem;
},
{
place = (276,78);
type = Stem;
},
{
place = (40,83);
type = Stem;
}
);
layerId = m01;
shapes = (
{
closed = 1;
nodes = (
(417,61,l),
(380,42,l),
(360,56,l),
(350,122,l),
(355,305,l),
(351,369,l),
(337,412,l),
(310,440,l),
(259,461,l),
(222,462,l),
(198,450,l),
(167,432,l),
(136,413,l),
(101,389,l),
(77,371,l),
(61,344,l),
(57,323,l),
(68,309,l),
(112,324,l),
(122,346,l),
(130,372,l),
(188,405,l),
(212,410,l),
(246,396,l),
(264,369,l),
(276,326,l),
(276,249,l),
(151,203,l),
(83,174,l),
(49,139,l),
(40,98,l),
(46,55,l),
(67,21,l),
(98,-1,l),
(144,-7,l),
(191,-1,l),
(230,18,l),
(276,61,l),
(280,27,l),
(301,1,l),
(331,-10,l),
(364,-6,l),
(394,10,l),
(431,36,l),
(431,36,l)
);
},
{
closed = 1;
nodes = (
(276,97,l),
(245,72,l),
(216,55,l),
(184,47,l),
(160,51,l),
(141,64,l),
(128,84,l),
(123,109,l),
(129,133,l),
(141,153,l),
(169,174,l),
(222,196,l),
(274,216,l),
(274,216,l)
);
}
);
width = 442;
}
);
},
{
glyphname = a.004;
lastChange = "2025-01-13 19:00:14 +0000";
layers = (
{
hints = (
{
horizontal = 1;
place = (441,23);
type = Stem;
},
{
horizontal = 1;
place = (-6,60);
type = Stem;
},
{
place = (251,92);
type = Stem;
},
{
place = (17,100);
type = Stem;
}
);
layerId = m01;
shapes = (
{
closed = 1;
nodes = (
(220,51,l),
(241,66,l),
(262,40,l),
(284,9,l),
(308,-3,l),
(326,-6,l),
(359,0,l),
(388,19,l),
(420,50,l),
(423,58,l),
(416,70,l),
(397,59,l),
(373,52,l),
(357,56,l),
(346,66,l),
(334,113,l),
(337,166,l),
(340,299,l),
(341,351,l),
(343,386,l),
(339,414,l),
(322,438,l),
(287,455,l),
(228,462,l),
(151,453,l),
(97,433,l),
(48,392,l),
(18,344,l),
(15,329,l),
(18,316,l),
(35,308,l),
(65,316,l),
(94,329,l),
(111,358,l),
(124,389,l),
(160,429,l),
(197,440,l),
(228,430,l),
(244,413,l),
(248,369,l),
(251,303,l),
(241,263,l),
(217,250,l),
(174,232,l),
(95,193,l),
(59,167,l),
(33,133,l),
(17,75,l),
(21,40,l),
(35,17,l),
(75,-4,l),
(97,-7,l),
(140,3,l),
(201,38,l),
(201,38,l)
);
},
{
closed = 1;
nodes = (
(120,137,l),
(139,180,l),
(190,215,l),
(224,230,l),
(237,234,l),
(246,228,l),
(250,213,l),
(248,145,l),
(237,99,l),
(211,72,l),
(189,59,l),
(167,57,l),
(141,65,l),
(126,84,l),
(118,119,l),
(118,119,l)
);
}
);
width = 425;
}
);
},
{
glyphname = a.005;
lastChange = "2025-01-13 19:00:14 +0000";
layers = (
{
hints = (
{
horizontal = 1;
place = (398,65);
type = Stem;
},
{
horizontal = 1;
place = (-11,55);
type = Stem;
},
{
place = (260,73);
type = Stem;
},
{
place = (24,78);
type = Stem;
}
);
layerId = m01;
shapes = (
{
closed = 1;
nodes = (
(335,222,l),
(336,267,l),
(335,328,l),
(327,395,l),
(303,430,l),
(238,459,l),
(196,463,l),
(129,427,l),
(58,380,l),
(38,361,l),
(31,326,l),
(39,297,l),
(72,317,l),
(101,334,l),
(97,352,l),
(99,370,l),
(114,381,l),
(131,393,l),
(175,396,l),
(222,387,l),
(249,361,l),
(255,345,l),
(257,244,l),
(230,236,l),
(206,225,l),
(195,222,l),
(178,215,l),
(167,211,l),
(139,200,l),
(103,184,l),
(72,169,l),
(55,159,l),
(33,140,l),
(21,109,l),
(45,24,l),
(66,-1,l),
(109,-11,l),
(151,-6,l),
(180,11,l),
(261,80,l),
(264,33,l),
(287,4,l),
(329,-11,l),
(354,-6,l),
(378,5,l),
(414,66,l),
(415,78,l),
(398,86,l),
(380,61,l),
(360,54,l),
(336,69,l),
(329,159,l),
(331,187,l),
(331,187,l)
);
},
{
closed = 1;
nodes = (
(256,217,l),
(256,146,l),
(254,109,l),
(220,74,l),
(204,62,l),
(155,43,l),
(122,54,l),
(101,117,l),
(118,147,l),
(138,162,l),
(159,174,l),
(186,187,l),
(226,206,l),
(226,206,l)
);
}
);
width = 425;
}
);
},
{
glyphname = a.006;
lastChange = "2025-01-13 19:00:14 +0000";
layers = (
{
hints = (
{
horizontal = 1;
place = (421,37);
type = Stem;
},
{
horizontal = 1;
place = (-11,44);
type = Stem;
},
{
place = (246,72);
type = Stem;
},
{
place = (27,69);
type = Stem;
}
);
layerId = m01;
shapes = (
{
closed = 1;
nodes = (
(243,44,l),
(289,4,l),
(309,1,l),
(365,18,l),
(418,58,l),
(419,68,l),
(412,80,l),
(390,72,l),
(351,48,l),
(325,67,l),
(318,110,l),
(322,215,l),
(324,265,l),
(326,343,l),
(319,399,l),
(289,437,l),
(251,453,l),
(228,456,l),
(172,447,l),
(127,429,l),
(82,391,l),
(44,340,l),
(34,309,l),
(37,296,l),
(59,291,l),
(86,298,l),
(102,316,l),
(116,359,l),
(125,382,l),
(142,403,l),
(169,417,l),
(191,419,l),
(227,409,l),
(247,389,l),
(251,333,l),
(250,302,l),
(248,259,l),
(183,233,l),
(96,180,l),
(73,157,l),
(60,141,l),
(46,121,l),
(39,106,l),
(26,49,l),
(42,11,l),
(64,-7,l),
(107,-13,l),
(184,7,l),
(219,25,l),
(219,25,l)
);
},
{
closed = 1;
nodes = (
(230,215,l),
(240,211,l),
(245,202,l),
(244,174,l),
(235,79,l),
(206,49,l),
(145,29,l),
(124,35,l),
(104,58,l),
(96,92,l),
(99,112,l),
(114,138,l),
(156,184,l),
(156,184,l)
);
}
);
width = 421;
}
);
},
{
glyphname = a.007;
lastChange = "2025-01-13 19:00:14 +0000";
layers = (
{
layerId = m01;
shapes = (
{
closed = 1;
nodes = (
(280,267.667,o),
(276.333,262.333,o),
(255,253,cs),
(179,220.333,o),
(131,197.333,o),
(111,184,cs),
(68.333,154,o),
(47,117.667,o),
(47,75,cs),
(47,25.667,o),
(77.333,-9,o),
(124,-9,cs),
(161.333,-9,o),
(204,10.667,o),
(252,50,cs),
(265.333,60.667,o),
(272.667,66,o),
(274,66,cs),
(276.667,66,o),
(281.333,59.667,o),
(288,47,cs),
(306.667,11,o),
(329.667,-7,o),
(357,-7,cs),
(395.667,-7,o),
(459,36.333,o),
(459,63,cs),
(459,69,o),
(456.333,72,o),
(451,72,cs),
(447,72,o),
(441.333,69.333,o),
(434,64,cs),
(424.667,57.333,o),
(415,54,o),
(405,54,cs),
(384.333,54,o),
(374,72.667,o),
(374,110,cs),
(374,391,ls),
(374,439.667,o),
(335.333,464,o),
(258,464,cs),
(204,464,o),
(157.333,451.333,o),
(118,426,cs),
(78,402,o),
(43,354.333,o),
(43,325,cs),
(43,313,o),
(50.667,307,o),
(66,307,cs),
(77.333,307,o),
(93.333,312.333,o),
(114,323,cs),
(127.333,329.667,o),
(136.333,340.667,o),
(141,356,cs),
(160.333,412,o),
(190,440,o),
(230,440,cs),
(263.333,440,o),
(280,412,o),
(280,356,cs),
(280,289,l),
(280,289,l)
);
},
{
closed = 1;
nodes = (
(280,131.333,o),
(274.333,107.667,o),
(263,91,cs),
(245.667,67,o),
(223.333,55,o),
(196,55,cs),
(165.333,55,o),
(150,77,o),
(150,121,cs),
(150,163.667,o),
(164.667,185.333,o),
(214,212,cs),
(238.667,225.333,o),
(257.333,232,o),
(270,232,cs),
(276.667,232,o),
(280,228,o),
(280,220,cs),
(280,162,l),
(280,162,l)
);
}
);
userData = {
assembly = "PUSHW[ ]	/* 1 value pushed */
10
CALL[ ]	/* CallFunction */
PUSHW[ ]	/* 1 value pushed */
61
MDAP[1]	/* MoveDirectAbsPt */
PUSHW[ ]	/* 1 value pushed */
62
MDAP[1]	/* MoveDirectAbsPt */
PUSHW[ ]	/* 1 value pushed */
18
MDRP[11100]	/* MoveDirectRelPt */
PUSHW[ ]	/* 1 value pushed */
1
MDRP[11100]	/* MoveDirectRelPt */
PUSHW[ ]	/* 1 value pushed */
61
SRP0[ ]	/* SetRefPoint0 */
PUSHW[ ]	/* 1 value pushed */
41
MDRP[10000]	/* MoveDirectRelPt */
PUSHW[ ]	/* 1 value pushed */
41
MDAP[1]	/* MoveDirectAbsPt */
PUSHW[ ]	/* 1 value pushed */
11
MDRP[10000]	/* MoveDirectRelPt */
PUSHW[ ]	/* 1 value pushed */
11
MDAP[1]	/* MoveDirectAbsPt */
PUSHW[ ]	/* 1 value pushed */
1
SRP0[ ]	/* SetRefPoint0 */
PUSHW[ ]	/* 1 value pushed */
34
MDRP[10000]	/* MoveDirectRelPt */
PUSHW[ ]	/* 1 value pushed */
34
MDAP[1]	/* MoveDirectAbsPt */
PUSHW[ ]	/* 1 value pushed */
1
SRP0[ ]	/* SetRefPoint0 */
PUSHW[ ]	/* 1 value pushed */
48
MDRP[10000]	/* MoveDirectRelPt */
PUSHW[ ]	/* 1 value pushed */
41
SRP0[ ]	/* SetRefPoint0 */
PUSHW[ ]	/* 1 value pushed */
55
MDRP[11100]	/* MoveDirectRelPt */
NPUSHW[ ]	/* 21 values pushed */
102 55 118 55 134 55 150 55 166 55 182 55 198 55 214 55 230 55 246 55 10
DELTAP1[ ]	/* DeltaExceptionP1 */
NPUSHW[ ]	/* 7 values pushed */
6 55 22 55 38 55 3
DELTAP2[ ]	/* DeltaExceptionP2 */
NPUSHW[ ]	/* 5 values pushed */
53 55 69 55 2
DELTAP2[ ]	/* DeltaExceptionP2 */
SVTCA[0]	/* SetFreedomAndProjectionVectorToAxis */
PUSHW[ ]	/* 1 value pushed */
37
RCVT[ ]	/* ReadCVT */
IF[ ]	/* If */
PUSHW[ ]	/* 1 value pushed */
16
MDAP[1]	/* MoveDirectAbsPt */
ELSE[ ]	/* Else */
PUSHW[ ]	/* 2 values pushed */
16 42
MIAP[0]	/* MoveIndirectAbsPt */
EIF[ ]	/* EndIf */
PUSHW[ ]	/* 1 value pushed */
37
RCVT[ ]	/* ReadCVT */
IF[ ]	/* If */
PUSHW[ ]	/* 1 value pushed */
30
MDAP[1]	/* MoveDirectAbsPt */
ELSE[ ]	/* Else */
PUSHW[ ]	/* 2 values pushed */
30 38
MIAP[0]	/* MoveIndirectAbsPt */
EIF[ ]	/* EndIf */
PUSHW[ ]	/* 1 value pushed */
37
RCVT[ ]	/* ReadCVT */
IF[ ]	/* If */
PUSHW[ ]	/* 1 value pushed */
38
MDAP[1]	/* MoveDirectAbsPt */
ELSE[ ]	/* Else */
PUSHW[ ]	/* 2 values pushed */
38 38
MIAP[0]	/* MoveIndirectAbsPt */
EIF[ ]	/* EndIf */
PUSHW[ ]	/* 1 value pushed */
16
SRP0[ ]	/* SetRefPoint0 */
PUSHW[ ]	/* 1 value pushed */
3
MDRP[11100]	/* MoveDirectRelPt */
NPUSHW[ ]	/* 5 values pushed */
57 3 73 3 2
DELTAP2[ ]	/* DeltaExceptionP2 */
NPUSHW[ ]	/* 21 values pushed */
104 3 120 3 136 3 152 3 168 3 184 3 200 3 216 3 232 3 248 3 10
DELTAP1[ ]	/* DeltaExceptionP1 */
NPUSHW[ ]	/* 7 values pushed */
8 3 24 3 40 3 3
DELTAP2[ ]	/* DeltaExceptionP2 */
PUSHW[ ]	/* 1 value pushed */
30
SRP0[ ]	/* SetRefPoint0 */
PUSHW[ ]	/* 1 value pushed */
21
MDRP[11100]	/* MoveDirectRelPt */
NPUSHW[ ]	/* 21 values pushed */
103 21 119 21 135 21 151 21 167 21 183 21 199 21 215 21 231 21 247 21 10
DELTAP1[ ]	/* DeltaExceptionP1 */
NPUSHW[ ]	/* 7 values pushed */
7 21 23 21 39 21 3
DELTAP2[ ]	/* DeltaExceptionP2 */
NPUSHW[ ]	/* 5 values pushed */
54 21 70 21 2
DELTAP2[ ]	/* DeltaExceptionP2 */
PUSHW[ ]	/* 1 value pushed */
57
MDRP[10000]	/* MoveDirectRelPt */
IUP[0]	/* InterpolateUntPts */
IUP[1]	/* InterpolateUntPts */";
};
width = 461;
}
);
note = a;
},
{
glyphname = a.008;
lastChange = "2025-01-13 19:00:14 +0000";
layers = (
{
layerId = m01;
shapes = (
{
closed = 1;
nodes = (
(371.333,384,o),
(360,411,o),
(336,431,cs),
(310,453.667,o),
(275.667,465,o),
(233,465,cs),
(217,465,o),
(175,442,o),
(107,396,cs),
(74.333,374,o),
(58,352.333,o),
(58,331,cs),
(58,308.333,o),
(62,297,o),
(70,297,cs),
(70.667,297,o),
(72.333,297.667,o),
(75,299,cs),
(85.667,305,o),
(94.667,310.333,o),
(102,315,cs),
(121.333,325.667,o),
(131,332.333,o),
(131,335,cs),
(130.333,338.333,o),
(129.667,340.667,o),
(129,342,cs),
(127.667,346,o),
(127,350.667,o),
(127,356,cs),
(127,380,o),
(163.667,398,o),
(209,398,cs),
(233,398,o),
(253.333,390.333,o),
(270,375,cs),
(284,361.667,o),
(291,337.667,o),
(291,303,cs),
(291,273.667,o),
(291.333,256.667,o),
(292,252,cs),
(292,249,ls),
(292,243.667,o),
(282,237.333,o),
(262,230,cs),
(162,194,o),
(51,164,o),
(51,104,cs),
(51,78.667,o),
(68.333,27,o),
(83,7,cs),
(95.667,-11,o),
(115,-20,o),
(141,-20,cs),
(181.667,-20,o),
(221.667,-0.333,o),
(261,39,cs),
(291,69,l),
(292.333,69,o),
(293,67.333,o),
(293,64,cs),
(295.667,34.667,o),
(301.333,15.667,o),
(310,7,cs),
(325.333,-9,o),
(345,-17,o),
(369,-17,cs),
(389.667,-17,o),
(407.333,-10.667,o),
(422,2,cs),
(434,14,o),
(454,55.333,o),
(454,70,cs),
(454,76,o),
(449,79,o),
(439,79,cs),
(436.333,79,o),
(434.333,77.333,o),
(433,74,c),
(422.333,58,o),
(411,50,o),
(399,50,cs),
(378.333,50,o),
(368,77.333,o),
(368,132,cs),
(368,213.333,o),
(368.333,261.333,o),
(369,276,cs),
(369.667,281.333,o),
(370,288,o),
(370,296,cs),
(370,304,ls),
(369.333,310,o),
(369,315.667,o),
(369,321,cs),
(370,350,l),
(370,350,l)
);
},
{
closed = 1;
nodes = (
(292.667,113.333,o),
(291.5,107,o),
(288.5,103,cs),
(285.5,99,o),
(275.333,89.333,o),
(258,74,cs),
(230,50,o),
(206.667,38,o),
(188,38,cs),
(171.333,38,o),
(158.667,43.667,o),
(150,55,cs),
(138.667,67.667,o),
(133,87.333,o),
(133,114,cs),
(133,132,o),
(146.667,147.667,o),
(174,161,cs),
(210,178,l),
(226,187,ls),
(239.333,194.333,o),
(250.667,199.667,o),
(260,203,cs),
(269.333,206.333,o),
(274.333,208,o),
(275,208,c),
(279,210.667,o),
(283,212,o),
(287,212,cs),
(289.667,212,o),
(291,210,o),
(291,206,cs),
(291,141,l),
(292,122,l),
(292,122,l)
);
}
);
userData = {
assembly = "PUSHW[ ]	/* 1 value pushed */
10
CALL[ ]	/* CallFunction */
PUSHW[ ]	/* 3 values pushed */
8 70 13
CALL[ ]	/* CallFunction */
PUSHW[ ]	/* 1 value pushed */
8
SRP0[ ]	/* SetRefPoint0 */
PUSHW[ ]	/* 1 value pushed */
0
MDRP[10000]	/* MoveDirectRelPt */
PUSHW[ ]	/* 1 value pushed */
0
MDAP[1]	/* MoveDirectAbsPt */
PUSHW[ ]	/* 1 value pushed */
8
SRP0[ ]	/* SetRefPoint0 */
PUSHW[ ]	/* 1 value pushed */
3
MDRP[10000]	/* MoveDirectRelPt */
PUSHW[ ]	/* 1 value pushed */
3
MDAP[1]	/* MoveDirectAbsPt */
PUSHW[ ]	/* 1 value pushed */
8
SRP0[ ]	/* SetRefPoint0 */
PUSHW[ ]	/* 1 value pushed */
6
MDRP[10000]	/* MoveDirectRelPt */
PUSHW[ ]	/* 1 value pushed */
6
MDAP[1]	/* MoveDirectAbsPt */
PUSHW[ ]	/* 1 value pushed */
70
SRP0[ ]	/* SetRefPoint0 */
PUSHW[ ]	/* 1 value pushed */
25
MDRP[10000]	/* MoveDirectRelPt */
PUSHW[ ]	/* 1 value pushed */
25
MDAP[1]	/* MoveDirectAbsPt */
PUSHW[ ]	/* 1 value pushed */
70
SRP0[ ]	/* SetRefPoint0 */
PUSHW[ ]	/* 1 value pushed */
40
MDRP[10000]	/* MoveDirectRelPt */
PUSHW[ ]	/* 1 value pushed */
40
MDAP[1]	/* MoveDirectAbsPt */
PUSHW[ ]	/* 1 value pushed */
70
SRP0[ ]	/* SetRefPoint0 */
PUSHW[ ]	/* 1 value pushed */
43
MDRP[10000]	/* MoveDirectRelPt */
PUSHW[ ]	/* 1 value pushed */
8
SRP0[ ]	/* SetRefPoint0 */
PUSHW[ ]	/* 1 value pushed */
93
MDRP[11100]	/* MoveDirectRelPt */
SVTCA[0]	/* SetFreedomAndProjectionVectorToAxis */
PUSHW[ ]	/* 1 value pushed */
37
RCVT[ ]	/* ReadCVT */
IF[ ]	/* If */
PUSHW[ ]	/* 1 value pushed */
66
MDAP[1]	/* MoveDirectAbsPt */
ELSE[ ]	/* Else */
PUSHW[ ]	/* 2 values pushed */
66 42
MIAP[0]	/* MoveIndirectAbsPt */
EIF[ ]	/* EndIf */
PUSHW[ ]	/* 1 value pushed */
37
RCVT[ ]	/* ReadCVT */
IF[ ]	/* If */
PUSHW[ ]	/* 1 value pushed */
21
MDAP[1]	/* MoveDirectAbsPt */
ELSE[ ]	/* Else */
PUSHW[ ]	/* 2 values pushed */
21 38
MIAP[0]	/* MoveIndirectAbsPt */
EIF[ ]	/* EndIf */
PUSHW[ ]	/* 1 value pushed */
37
RCVT[ ]	/* ReadCVT */
IF[ ]	/* If */
PUSHW[ ]	/* 1 value pushed */
30
MDAP[1]	/* MoveDirectAbsPt */
ELSE[ ]	/* Else */
PUSHW[ ]	/* 2 values pushed */
30 38
MIAP[0]	/* MoveIndirectAbsPt */
EIF[ ]	/* EndIf */
PUSHW[ ]	/* 3 values pushed */
27 30 66
SRP1[ ]	/* SetRefPoint1 */
SRP2[ ]	/* SetRefPoint2 */
IP[ ]	/* InterpolatePts */
PUSHW[ ]	/* 1 value pushed */
66
SRP0[ ]	/* SetRefPoint0 */
PUSHW[ ]	/* 1 value pushed */
47
MDRP[11100]	/* MoveDirectRelPt */
NPUSHW[ ]	/* 5 values pushed */
57 47 73 47 2
DELTAP2[ ]	/* DeltaExceptionP2 */
NPUSHW[ ]	/* 21 values pushed */
104 47 120 47 136 47 152 47 168 47 184 47 200 47 216 47 232 47 248 47 10
DELTAP1[ ]	/* DeltaExceptionP1 */
NPUSHW[ ]	/* 7 values pushed */
8 47 24 47 40 47 3
DELTAP2[ ]	/* DeltaExceptionP2 */
IUP[0]	/* InterpolateUntPts */
IUP[1]	/* InterpolateUntPts */";
};
width = 467;
}
);
note = a;
},
{
glyphname = a.009;
lastChange = "2025-01-13 19:00:14 +0000";
layers = (
{
layerId = m01;
shapes = (
{
closed = 1;
nodes = (
(228.667,243.667,o),
(180.333,221.667,o),
(155,207,cs),
(81,165.667,o),
(44,120,o),
(44,70,cs),
(44,14,o),
(79.667,-19,o),
(137,-19,cs),
(193,-19,o),
(248.667,7.333,o),
(304,60,c),
(322.667,7.333,o),
(344.667,-19,o),
(370,-19,cs),
(400,-19,o),
(426.333,2,o),
(449,44,c),
(445.667,52,o),
(444,60.667,o),
(444,70,c),
(430,47.333,o),
(416,36,o),
(402,36,cs),
(383.333,36,o),
(374.333,63,o),
(375,117,cs),
(377,294,l),
(377,304,ls),
(377,352.667,o),
(373,388,o),
(365,410,cs),
(350.333,447.333,o),
(321,466,o),
(277,466,cs),
(178.333,466,o),
(49,369,o),
(49,297,cs),
(49,279,o),
(56,270,o),
(70,270,cs),
(91.333,270,o),
(108,275.667,o),
(120,287,cs),
(128.667,294.333,o),
(133.667,308.667,o),
(135,330,cs),
(137,360,o),
(144,381,o),
(156,393,cs),
(177.333,414.333,o),
(204.333,425,o),
(237,425,cs),
(260.333,425,o),
(276.667,415.5,o),
(286,396.5,cs),
(295.333,377.5,o),
(300,344.667,o),
(300,298,cs),
(300,273,l),
(300,273,l)
);
},
{
closed = 1;
nodes = (
(300,74.333,o),
(277.167,64.5,o),
(240.5,46.5,cs),
(222.167,37.5,o),
(206.333,33,o),
(193,33,cs),
(149.667,33,o),
(128,52.667,o),
(128,92,cs),
(128,117.333,o),
(141,141,o),
(167,163,cs),
(185.667,179,o),
(226.667,204.667,o),
(290,240,cs),
(300,246,l),
(300,161,l),
(300,161,l)
);
}
);
userData = {
assembly = "PUSHW[ ]	/* 1 value pushed */
10
CALL[ ]	/* CallFunction */
PUSHW[ ]	/* 1 value pushed */
54
MDAP[1]	/* MoveDirectAbsPt */
PUSHW[ ]	/* 1 value pushed */
55
MDAP[1]	/* MoveDirectAbsPt */
PUSHW[ ]	/* 1 value pushed */
22
MDRP[11100]	/* MoveDirectRelPt */
PUSHW[ ]	/* 1 value pushed */
1
MDRP[11100]	/* MoveDirectRelPt */
PUSHW[ ]	/* 1 value pushed */
54
SRP0[ ]	/* SetRefPoint0 */
PUSHW[ ]	/* 1 value pushed */
38
MDRP[10000]	/* MoveDirectRelPt */
PUSHW[ ]	/* 1 value pushed */
38
MDAP[1]	/* MoveDirectAbsPt */
PUSHW[ ]	/* 1 value pushed */
47
MDRP[11100]	/* MoveDirectRelPt */
NPUSHW[ ]	/* 21 values pushed */
102 47 118 47 134 47 150 47 166 47 182 47 198 47 214 47 230 47 246 47 10
DELTAP1[ ]	/* DeltaExceptionP1 */
NPUSHW[ ]	/* 7 values pushed */
6 47 22 47 38 47 3
DELTAP2[ ]	/* DeltaExceptionP2 */
NPUSHW[ ]	/* 5 values pushed */
53 47 69 47 2
DELTAP2[ ]	/* DeltaExceptionP2 */
PUSHW[ ]	/* 1 value pushed */
8
MDRP[10000]	/* MoveDirectRelPt */
PUSHW[ ]	/* 1 value pushed */
8
MDAP[1]	/* MoveDirectAbsPt */
PUSHW[ ]	/* 1 value pushed */
47
SRP0[ ]	/* SetRefPoint0 */
PUSHW[ ]	/* 1 value pushed */
10
MDRP[10000]	/* MoveDirectRelPt */
PUSHW[ ]	/* 1 value pushed */
10
MDAP[1]	/* MoveDirectAbsPt */
PUSHW[ ]	/* 1 value pushed */
38
SRP0[ ]	/* SetRefPoint0 */
PUSHW[ ]	/* 1 value pushed */
14
MDRP[10000]	/* MoveDirectRelPt */
PUSHW[ ]	/* 1 value pushed */
14
MDAP[1]	/* MoveDirectAbsPt */
PUSHW[ ]	/* 1 value pushed */
22
SRP0[ ]	/* SetRefPoint0 */
PUSHW[ ]	/* 1 value pushed */
31
MDRP[10000]	/* MoveDirectRelPt */
PUSHW[ ]	/* 1 value pushed */
31
MDAP[1]	/* MoveDirectAbsPt */
PUSHW[ ]	/* 1 value pushed */
1
SRP0[ ]	/* SetRefPoint0 */
PUSHW[ ]	/* 1 value pushed */
33
MDRP[10000]	/* MoveDirectRelPt */
PUSHW[ ]	/* 1 value pushed */
33
MDAP[1]	/* MoveDirectAbsPt */
PUSHW[ ]	/* 1 value pushed */
1
SRP0[ ]	/* SetRefPoint0 */
PUSHW[ ]	/* 1 value pushed */
42
MDRP[10000]	/* MoveDirectRelPt */
SVTCA[0]	/* SetFreedomAndProjectionVectorToAxis */
PUSHW[ ]	/* 1 value pushed */
33
RCVT[ ]	/* ReadCVT */
IF[ ]	/* If */
PUSHW[ ]	/* 1 value pushed */
17
MDAP[1]	/* MoveDirectAbsPt */
ELSE[ ]	/* Else */
PUSHW[ ]	/* 2 values pushed */
17 38
MIAP[0]	/* MoveIndirectAbsPt */
EIF[ ]	/* EndIf */
PUSHW[ ]	/* 1 value pushed */
33
RCVT[ ]	/* ReadCVT */
IF[ ]	/* If */
PUSHW[ ]	/* 1 value pushed */
31
MDAP[1]	/* MoveDirectAbsPt */
ELSE[ ]	/* Else */
PUSHW[ ]	/* 2 values pushed */
31 34
MIAP[0]	/* MoveIndirectAbsPt */
EIF[ ]	/* EndIf */
PUSHW[ ]	/* 1 value pushed */
33
RCVT[ ]	/* ReadCVT */
IF[ ]	/* If */
PUSHW[ ]	/* 1 value pushed */
35
MDAP[1]	/* MoveDirectAbsPt */
ELSE[ ]	/* Else */
PUSHW[ ]	/* 2 values pushed */
35 34
MIAP[0]	/* MoveIndirectAbsPt */
EIF[ ]	/* EndIf */
PUSHW[ ]	/* 1 value pushed */
17
SRP0[ ]	/* SetRefPoint0 */
PUSHW[ ]	/* 1 value pushed */
4
MDRP[11100]	/* MoveDirectRelPt */
NPUSHW[ ]	/* 5 values pushed */
57 4 73 4 2
DELTAP2[ ]	/* DeltaExceptionP2 */
NPUSHW[ ]	/* 21 values pushed */
104 4 120 4 136 4 152 4 168 4 184 4 200 4 216 4 232 4 248 4 10
DELTAP1[ ]	/* DeltaExceptionP1 */
NPUSHW[ ]	/* 7 values pushed */
8 4 24 4 40 4 3
DELTAP2[ ]	/* DeltaExceptionP2 */
PUSHW[ ]	/* 1 value pushed */
31
SRP0[ ]	/* SetRefPoint0 */
PUSHW[ ]	/* 1 value pushed */
25
MDRP[11100]	/* MoveDirectRelPt */
NPUSHW[ ]	/* 21 values pushed */
103 25 119 25 135 25 151 25 167 25 183 25 199 25 215 25 231 25 247 25 10
DELTAP1[ ]	/* DeltaExceptionP1 */
NPUSHW[ ]	/* 7 values pushed */
7 25 23 25 39 25 3
DELTAP2[ ]	/* DeltaExceptionP2 */
NPUSHW[ ]	/* 5 values pushed */
54 25 70 25 2
DELTAP2[ ]	/* DeltaExceptionP2 */
PUSHW[ ]	/* 3 values pushed */
27 31 17
SRP1[ ]	/* SetRefPoint1 */
SRP2[ ]	/* SetRefPoint2 */
IP[ ]	/* InterpolatePts */
PUSHW[ ]	/* 3 values pushed */
33 31 17
SRP1[ ]	/* SetRefPoint1 */
SRP2[ ]	/* SetRefPoint2 */
IP[ ]	/* InterpolatePts */
PUSHW[ ]	/* 3 values pushed */
42 31 17
SRP1[ ]	/* SetRefPoint1 */
SRP2[ ]	/* SetRefPoint2 */
IP[ ]	/* InterpolatePts */
PUSHW[ ]	/* 1 value pushed */
49
MDRP[10000]	/* MoveDirectRelPt */
IUP[0]	/* InterpolateUntPts */
IUP[1]	/* InterpolateUntPts */";
};
width = 475;
}
);
note = a;
},
{
glyphname = a.010;
lastChange = "2025-01-13 19:00:14 +0000";
layers = (
{
layerId = m01;
shapes = (
{
closed = 1;
nodes = (
(79.92,175.674,o),
(41,159.877,o),
(41,95,cs),
(41,29.667,o),
(86.667,-9,o),
(144,-9,cs),
(215.252,-9,o),
(259.652,41.652,o),
(277,59,c),
(280.006,31.949,o),
(284.794,-10,o),
(333,-10,cs),
(363.667,-10,o),
(397,5.333,o),
(433,36,c),
(419,58,l),
(407,48.667,o),
(396.667,40,o),
(382,40,cs),
(352.667,40,o),
(351,74.667,o),
(351,120,cs),
(351,166.768,o),
(356,259.21,o),
(356,304,cs),
(356,372,o),
(350,404.333,o),
(318,435,cs),
(294,457.667,o),
(267.667,463,o),
(237,463,cs),
(222,463,l),
(171.333,436.333,o),
(122.333,406,o),
(85,378,cs),
(60.805,360.403,o),
(56,332.872,o),
(56,322,cs),
(56,316.667,o),
(57.333,309,o),
(68,309,cs),
(78.515,309,o),
(112.146,319.243,o),
(118,329,cs),
(119.333,331,o),
(120.667,335.333,o),
(122,342,cs),
(125.086,366.69,o),
(124.45,374.907,o),
(164,396,cs),
(172,400,o),
(189.333,409,o),
(212,409,cs),
(274.706,409,o),
(277,336.212,o),
(277,305,cs),
(277,248,l),
(151,202,l),
(151,202,l)
);
},
{
closed = 1;
nodes = (
(244,63,o),
(212,45,o),
(184,45,cs),
(145.333,45,o),
(124,74.667,o),
(124,108,cs),
(124,161.245,o),
(171.667,177.738,o),
(276,215,c),
(276,95,l),
(276,95,l)
);
}
);
userData = {
assembly = "PUSHW[ ]	/* 4 values pushed */
77 2 66 4
CALL[ ]	/* CallFunction */
PUSHW[ ]	/* 4 values pushed */
44 2 83 4
CALL[ ]	/* CallFunction */
PUSHW[ ]	/* 1 value pushed */
83
SRP0[ ]	/* SetRefPoint0 */
PUSHW[ ]	/* 1 value pushed */
0
MDRP[10000]	/* MoveDirectRelPt */
PUSHW[ ]	/* 1 value pushed */
0
MDAP[1]	/* MoveDirectAbsPt */
NPUSHW[ ]	/* 17 values pushed */
6 77 22 77 38 77 54 77 70 77 86 77 102 77 118 77 8
DELTAP1[ ]	/* DeltaExceptionP1 */
NPUSHW[ ]	/* 5 values pushed */
133 77 149 77 2
DELTAP1[ ]	/* DeltaExceptionP1 */
PUSHW[ ]	/* 1 value pushed */
77
SRP0[ ]	/* SetRefPoint0 */
PUSHW[ ]	/* 2 values pushed */
24 2
MIRP[11100]	/* MoveIndirectRelPt */
PUSHW[ ]	/* 1 value pushed */
44
SRP0[ ]	/* SetRefPoint0 */
PUSHW[ ]	/* 1 value pushed */
39
MDRP[10000]	/* MoveDirectRelPt */
PUSHW[ ]	/* 1 value pushed */
39
MDAP[1]	/* MoveDirectAbsPt */
PUSHW[ ]	/* 1 value pushed */
83
SRP0[ ]	/* SetRefPoint0 */
PUSHW[ ]	/* 1 value pushed */
58
MDRP[10000]	/* MoveDirectRelPt */
PUSHW[ ]	/* 1 value pushed */
58
MDAP[1]	/* MoveDirectAbsPt */
PUSHW[ ]	/* 1 value pushed */
44
SRP0[ ]	/* SetRefPoint0 */
PUSHW[ ]	/* 1 value pushed */
85
MDRP[11100]	/* MoveDirectRelPt */
SVTCA[0]	/* SetFreedomAndProjectionVectorToAxis */
PUSHW[ ]	/* 1 value pushed */
0
RCVT[ ]	/* ReadCVT */
IF[ ]	/* If */
PUSHW[ ]	/* 1 value pushed */
32
MDAP[1]	/* MoveDirectAbsPt */
ELSE[ ]	/* Else */
PUSHW[ ]	/* 2 values pushed */
32 14
MIAP[0]	/* MoveIndirectAbsPt */
EIF[ ]	/* EndIf */
PUSHW[ ]	/* 1 value pushed */
0
RCVT[ ]	/* ReadCVT */
IF[ ]	/* If */
PUSHW[ ]	/* 1 value pushed */
53
MDAP[1]	/* MoveDirectAbsPt */
ELSE[ ]	/* Else */
PUSHW[ ]	/* 2 values pushed */
53 4
MIAP[0]	/* MoveIndirectAbsPt */
EIF[ ]	/* EndIf */
PUSHW[ ]	/* 1 value pushed */
0
RCVT[ ]	/* ReadCVT */
IF[ ]	/* If */
PUSHW[ ]	/* 1 value pushed */
63
MDAP[1]	/* MoveDirectAbsPt */
ELSE[ ]	/* Else */
PUSHW[ ]	/* 2 values pushed */
63 4
MIAP[0]	/* MoveIndirectAbsPt */
EIF[ ]	/* EndIf */
PUSHW[ ]	/* 1 value pushed */
32
SRP0[ ]	/* SetRefPoint0 */
PUSHW[ ]	/* 2 values pushed */
6 1
MIRP[11100]	/* MoveIndirectRelPt */
NPUSHW[ ]	/* 5 values pushed */
153 6 169 6 2
DELTAP2[ ]	/* DeltaExceptionP2 */
NPUSHW[ ]	/* 33 values pushed */
8 6 24 6 40 6 56 6 72 6 88 6 104 6 120 6 136 6 152 6 168 6 184 6 200 6 216 6 232 6 248 6 16
DELTAP1[ ]	/* DeltaExceptionP1 */
NPUSHW[ ]	/* 19 values pushed */
8 6 24 6 40 6 56 6 72 6 88 6 104 6 120 6 136 6 9
DELTAP2[ ]	/* DeltaExceptionP2 */
PUSHW[ ]	/* 1 value pushed */
53
SRP0[ ]	/* SetRefPoint0 */
PUSHW[ ]	/* 2 values pushed */
47 1
MIRP[11100]	/* MoveIndirectRelPt */
NPUSHW[ ]	/* 33 values pushed */
7 47 23 47 39 47 55 47 71 47 87 47 103 47 119 47 135 47 151 47 167 47 183 47 199 47 215 47 231 47 247 47 16
DELTAP1[ ]	/* DeltaExceptionP1 */
NPUSHW[ ]	/* 19 values pushed */
7 47 23 47 39 47 55 47 71 47 87 47 103 47 119 47 135 47 9
DELTAP2[ ]	/* DeltaExceptionP2 */
NPUSHW[ ]	/* 5 values pushed */
150 47 166 47 2
DELTAP2[ ]	/* DeltaExceptionP2 */
PUSHW[ ]	/* 3 values pushed */
58 53 32
SRP1[ ]	/* SetRefPoint1 */
SRP2[ ]	/* SetRefPoint2 */
IP[ ]	/* InterpolatePts */
PUSHW[ ]	/* 3 values pushed */
72 53 32
SRP1[ ]	/* SetRefPoint1 */
SRP2[ ]	/* SetRefPoint2 */
IP[ ]	/* InterpolatePts */
PUSHW[ ]	/* 1 value pushed */
80
MDRP[10000]	/* MoveDirectRelPt */
PUSHW[ ]	/* 1 value pushed */
80
MDAP[1]	/* MoveDirectAbsPt */
IUP[0]	/* InterpolateUntPts */
IUP[1]	/* InterpolateUntPts */";
};
width = 444;
}
);
note = a;
},
{
glyphname = a.011;
lastChange = "2025-01-13 19:00:14 +0000";
layers = (
{
layerId = m01;
shapes = (
{
closed = 1;
nodes = (
(123,203,o),
(41,136.667,o),
(41,64,cs),
(41,16,o),
(76.667,-16,o),
(130,-16,cs),
(191.333,-16,o),
(242.667,7.333,o),
(284,54,c),
(284.667,9.333,o),
(304.667,-13,o),
(344,-13,cs),
(376,-13,o),
(403,-1.333,o),
(425,22,cs),
(445,43.333,o),
(455,62.333,o),
(455,79,cs),
(455,89,o),
(449.667,94,o),
(439,94,cs),
(431,94,o),
(425.667,91,o),
(423,85,cs),
(417,74,ls),
(407,56.667,o),
(396.667,48,o),
(386,48,cs),
(375.333,48,o),
(368.833,53.667,o),
(366.5,65,cs),
(364.167,76.333,o),
(363.333,101.333,o),
(364,140,cs),
(367,344,l),
(367,351,ls),
(367,429.667,o),
(338.333,458,o),
(257,458,cs),
(197.667,458,o),
(148.333,437.667,o),
(109,397,cs),
(83.667,370.333,o),
(60,326,o),
(60,306,cs),
(60,295.333,o),
(67.667,289.667,o),
(83,289,cs),
(98,288,l),
(102,288,ls),
(119.333,288,o),
(129.333,296.333,o),
(132,313,cs),
(135,330,ls),
(145.667,386,o),
(185.667,423,o),
(235,423,cs),
(271,423,o),
(288.667,396.333,o),
(288,343,cs),
(287,263,l),
(287,263,l)
);
},
{
closed = 1;
nodes = (
(284.333,107.333,o),
(273,89.667,o),
(251,73,cs),
(223.667,51.667,o),
(199,41,o),
(177,41,cs),
(151.667,41,o),
(131,62,o),
(131,90,cs),
(131,122,o),
(152.333,152.333,o),
(195,181,cs),
(217.667,196.333,o),
(248.333,212,o),
(287,228,c),
(285,126,l),
(285,126,l)
);
}
);
userData = {
assembly = "PUSHW[ ]	/* 1 value pushed */
10
CALL[ ]	/* CallFunction */
PUSHW[ ]	/* 1 value pushed */
58
MDAP[1]	/* MoveDirectAbsPt */
PUSHW[ ]	/* 1 value pushed */
59
MDAP[1]	/* MoveDirectAbsPt */
PUSHW[ ]	/* 1 value pushed */
23
MDRP[11100]	/* MoveDirectRelPt */
PUSHW[ ]	/* 1 value pushed */
46
MDRP[11100]	/* MoveDirectRelPt */
PUSHW[ ]	/* 1 value pushed */
0
MDRP[10000]	/* MoveDirectRelPt */
PUSHW[ ]	/* 1 value pushed */
0
MDAP[1]	/* MoveDirectAbsPt */
PUSHW[ ]	/* 1 value pushed */
58
SRP0[ ]	/* SetRefPoint0 */
PUSHW[ ]	/* 1 value pushed */
44
MDRP[10000]	/* MoveDirectRelPt */
PUSHW[ ]	/* 1 value pushed */
44
MDAP[1]	/* MoveDirectAbsPt */
PUSHW[ ]	/* 1 value pushed */
51
MDRP[11100]	/* MoveDirectRelPt */
NPUSHW[ ]	/* 21 values pushed */
102 51 118 51 134 51 150 51 166 51 182 51 198 51 214 51 230 51 246 51 10
DELTAP1[ ]	/* DeltaExceptionP1 */
NPUSHW[ ]	/* 7 values pushed */
6 51 22 51 38 51 3
DELTAP2[ ]	/* DeltaExceptionP2 */
NPUSHW[ ]	/* 5 values pushed */
53 51 69 51 2
DELTAP2[ ]	/* DeltaExceptionP2 */
PUSHW[ ]	/* 1 value pushed */
6
MDRP[10000]	/* MoveDirectRelPt */
PUSHW[ ]	/* 1 value pushed */
6
MDAP[1]	/* MoveDirectAbsPt */
PUSHW[ ]	/* 1 value pushed */
23
SRP0[ ]	/* SetRefPoint0 */
PUSHW[ ]	/* 1 value pushed */
21
MDRP[10000]	/* MoveDirectRelPt */
PUSHW[ ]	/* 1 value pushed */
21
MDAP[1]	/* MoveDirectAbsPt */
PUSHW[ ]	/* 1 value pushed */
46
SRP0[ ]	/* SetRefPoint0 */
PUSHW[ ]	/* 1 value pushed */
39
MDRP[10000]	/* MoveDirectRelPt */
PUSHW[ ]	/* 1 value pushed */
39
MDAP[1]	/* MoveDirectAbsPt */
PUSHW[ ]	/* 1 value pushed */
51
SRP0[ ]	/* SetRefPoint0 */
PUSHW[ ]	/* 1 value pushed */
41
MDRP[10000]	/* MoveDirectRelPt */
PUSHW[ ]	/* 1 value pushed */
41
MDAP[1]	/* MoveDirectAbsPt */
SVTCA[0]	/* SetFreedomAndProjectionVectorToAxis */
PUSHW[ ]	/* 1 value pushed */
35
RCVT[ ]	/* ReadCVT */
IF[ ]	/* If */
PUSHW[ ]	/* 1 value pushed */
18
MDAP[1]	/* MoveDirectAbsPt */
ELSE[ ]	/* Else */
PUSHW[ ]	/* 2 values pushed */
18 40
MIAP[0]	/* MoveIndirectAbsPt */
EIF[ ]	/* EndIf */
PUSHW[ ]	/* 1 value pushed */
35
RCVT[ ]	/* ReadCVT */
IF[ ]	/* If */
PUSHW[ ]	/* 1 value pushed */
37
MDAP[1]	/* MoveDirectAbsPt */
ELSE[ ]	/* Else */
PUSHW[ ]	/* 2 values pushed */
37 36
MIAP[0]	/* MoveIndirectAbsPt */
EIF[ ]	/* EndIf */
PUSHW[ ]	/* 1 value pushed */
35
RCVT[ ]	/* ReadCVT */
IF[ ]	/* If */
PUSHW[ ]	/* 1 value pushed */
41
MDAP[1]	/* MoveDirectAbsPt */
ELSE[ ]	/* Else */
PUSHW[ ]	/* 2 values pushed */
41 36
MIAP[0]	/* MoveIndirectAbsPt */
EIF[ ]	/* EndIf */
PUSHW[ ]	/* 1 value pushed */
18
SRP0[ ]	/* SetRefPoint0 */
PUSHW[ ]	/* 1 value pushed */
3
MDRP[11100]	/* MoveDirectRelPt */
NPUSHW[ ]	/* 5 values pushed */
57 3 73 3 2
DELTAP2[ ]	/* DeltaExceptionP2 */
NPUSHW[ ]	/* 21 values pushed */
104 3 120 3 136 3 152 3 168 3 184 3 200 3 216 3 232 3 248 3 10
DELTAP1[ ]	/* DeltaExceptionP1 */
NPUSHW[ ]	/* 7 values pushed */
8 3 24 3 40 3 3
DELTAP2[ ]	/* DeltaExceptionP2 */
PUSHW[ ]	/* 3 values pushed */
39 41 18
SRP1[ ]	/* SetRefPoint1 */
SRP2[ ]	/* SetRefPoint2 */
IP[ ]	/* InterpolatePts */
PUSHW[ ]	/* 3 values pushed */
47 41 18
SRP1[ ]	/* SetRefPoint1 */
SRP2[ ]	/* SetRefPoint2 */
IP[ ]	/* InterpolatePts */
IUP[0]	/* InterpolateUntPts */
IUP[1]	/* InterpolateUntPts */";
};
width = 462;
}
);
note = a;
},
{
glyphname = b.001;
lastChange = "2025-01-13 19:00:14 +0000";
layers = (
{
layerId = m01;
shapes = (
{
closed = 1;
nodes = (
(169,353,o),
(169.667,368.333,o),
(171,377,cs),
(172.333,385.667,o),
(176,392,o),
(182,396,cs),
(199.333,406.667,o),
(225.333,414,o),
(260,414,cs),
(371.188,414,o),
(432,322.288,o),
(432,206,cs),
(432,109.106,o),
(388.82,18,o),
(283,18,cs),
(246.333,18,o),
(217.667,30.667,o),
(197,56,cs),
(177,80,o),
(169,115.333,o),
(169,154,cs),
(169,331,l),
(169,331,l)
);
},
{
closed = 1;
nodes = (
(85,69,o),
(84.833,47.5,o),
(84.5,34.5,cs),
(84.167,21.5,o),
(83.667,10.667,o),
(83,2,c),
(85,-2.667,o),
(88.667,-5,o),
(94,-5,cs),
(96,-5,o),
(97.667,-4.333,o),
(99,-3,cs),
(104.333,3.667,o),
(114,14,o),
(122,14,cs),
(126.667,14,o),
(132.833,12.5,o),
(140.5,9.5,cs),
(148.167,6.5,o),
(158,3,o),
(170,-1,cs),
(192.667,-9,o),
(224.667,-16,o),
(266,-16,cs),
(417.482,-16,o),
(527,88.619,o),
(527,240,cs),
(527,362.513,o),
(441.513,462,o),
(311,462,cs),
(255,462,o),
(210.667,442.333,o),
(180,425,c),
(176.667,425,o),
(174,426.5,o),
(172,429.5,cs),
(170,432.5,o),
(169,439,o),
(169,449,cs),
(169,663,ls),
(169,713.667,o),
(170.333,764,o),
(173,804,c),
(171,808,o),
(167.333,810,o),
(162,810,c),
(133.211,793.806,o),
(50.01,766.303,o),
(39,763,cs),
(35.667,761.667,o),
(34,758,o),
(34,752,cs),
(34,745.333,o),
(35.667,741.333,o),
(39,740,c),
(50,733,ls),
(84.792,709.806,o),
(85,708.91,o),
(85,639,cs),
(85,99,l),
(85,99,l)
);
}
);
userData = {
assembly = "PUSHW[ ]	/* 1 value pushed */
77
MDAP[1]	/* MoveDirectAbsPt */
PUSHW[ ]	/* 4 values pushed */
42 2 22 4
CALL[ ]	/* CallFunction */
PUSHW[ ]	/* 1 value pushed */
42
SRP0[ ]	/* SetRefPoint0 */
PUSHW[ ]	/* 1 value pushed */
0
MDRP[10000]	/* MoveDirectRelPt */
PUSHW[ ]	/* 1 value pushed */
77
SRP0[ ]	/* SetRefPoint0 */
PUSHW[ ]	/* 1 value pushed */
54
MDRP[11100]	/* MoveDirectRelPt */
PUSHW[ ]	/* 2 values pushed */
10 3
MIRP[11100]	/* MoveIndirectRelPt */
NPUSHW[ ]	/* 5 values pushed */
154 10 170 10 2
DELTAP1[ ]	/* DeltaExceptionP1 */
NPUSHW[ ]	/* 19 values pushed */
9 10 25 10 41 10 57 10 73 10 89 10 105 10 121 10 137 10 9
DELTAP1[ ]	/* DeltaExceptionP1 */
PUSHW[ ]	/* 1 value pushed */
42
SRP0[ ]	/* SetRefPoint0 */
PUSHW[ ]	/* 1 value pushed */
37
MDRP[10000]	/* MoveDirectRelPt */
PUSHW[ ]	/* 1 value pushed */
37
MDAP[1]	/* MoveDirectAbsPt */
PUSHW[ ]	/* 1 value pushed */
42
SRP0[ ]	/* SetRefPoint0 */
PUSHW[ ]	/* 1 value pushed */
39
MDRP[10000]	/* MoveDirectRelPt */
PUSHW[ ]	/* 1 value pushed */
39
MDAP[1]	/* MoveDirectAbsPt */
PUSHW[ ]	/* 1 value pushed */
42
SRP0[ ]	/* SetRefPoint0 */
PUSHW[ ]	/* 1 value pushed */
62
MDRP[10000]	/* MoveDirectRelPt */
PUSHW[ ]	/* 1 value pushed */
62
MDAP[1]	/* MoveDirectAbsPt */
PUSHW[ ]	/* 1 value pushed */
22
SRP0[ ]	/* SetRefPoint0 */
PUSHW[ ]	/* 1 value pushed */
72
MDRP[10000]	/* MoveDirectRelPt */
PUSHW[ ]	/* 1 value pushed */
72
MDAP[1]	/* MoveDirectAbsPt */
SVTCA[0]	/* SetFreedomAndProjectionVectorToAxis */
PUSHW[ ]	/* 1 value pushed */
0
RCVT[ ]	/* ReadCVT */
IF[ ]	/* If */
PUSHW[ ]	/* 1 value pushed */
37
MDAP[1]	/* MoveDirectAbsPt */
ELSE[ ]	/* Else */
PUSHW[ ]	/* 2 values pushed */
37 16
MIAP[0]	/* MoveIndirectAbsPt */
EIF[ ]	/* EndIf */
PUSHW[ ]	/* 1 value pushed */
0
RCVT[ ]	/* ReadCVT */
IF[ ]	/* If */
PUSHW[ ]	/* 1 value pushed */
39
MDAP[1]	/* MoveDirectAbsPt */
ELSE[ ]	/* Else */
PUSHW[ ]	/* 2 values pushed */
39 16
MIAP[0]	/* MoveIndirectAbsPt */
EIF[ ]	/* EndIf */
PUSHW[ ]	/* 1 value pushed */
0
RCVT[ ]	/* ReadCVT */
IF[ ]	/* If */
PUSHW[ ]	/* 1 value pushed */
49
MDAP[1]	/* MoveDirectAbsPt */
ELSE[ ]	/* Else */
PUSHW[ ]	/* 2 values pushed */
49 10
MIAP[0]	/* MoveIndirectAbsPt */
EIF[ ]	/* EndIf */
PUSHW[ ]	/* 1 value pushed */
0
RCVT[ ]	/* ReadCVT */
IF[ ]	/* If */
PUSHW[ ]	/* 1 value pushed */
59
MDAP[1]	/* MoveDirectAbsPt */
ELSE[ ]	/* Else */
PUSHW[ ]	/* 2 values pushed */
59 4
MIAP[0]	/* MoveIndirectAbsPt */
EIF[ ]	/* EndIf */
PUSHW[ ]	/* 1 value pushed */
0
RCVT[ ]	/* ReadCVT */
IF[ ]	/* If */
PUSHW[ ]	/* 1 value pushed */
62
MDAP[1]	/* MoveDirectAbsPt */
ELSE[ ]	/* Else */
PUSHW[ ]	/* 2 values pushed */
62 4
MIAP[0]	/* MoveIndirectAbsPt */
EIF[ ]	/* EndIf */
PUSHW[ ]	/* 1 value pushed */
0
RCVT[ ]	/* ReadCVT */
IF[ ]	/* If */
PUSHW[ ]	/* 1 value pushed */
68
MDAP[1]	/* MoveDirectAbsPt */
ELSE[ ]	/* Else */
PUSHW[ ]	/* 2 values pushed */
68 4
MIAP[0]	/* MoveIndirectAbsPt */
EIF[ ]	/* EndIf */
PUSHW[ ]	/* 1 value pushed */
0
RCVT[ ]	/* ReadCVT */
IF[ ]	/* If */
PUSHW[ ]	/* 1 value pushed */
70
MDAP[1]	/* MoveDirectAbsPt */
ELSE[ ]	/* Else */
PUSHW[ ]	/* 2 values pushed */
70 4
MIAP[0]	/* MoveIndirectAbsPt */
EIF[ ]	/* EndIf */
PUSHW[ ]	/* 1 value pushed */
0
RCVT[ ]	/* ReadCVT */
IF[ ]	/* If */
PUSHW[ ]	/* 1 value pushed */
72
MDAP[1]	/* MoveDirectAbsPt */
ELSE[ ]	/* Else */
PUSHW[ ]	/* 2 values pushed */
72 4
MIAP[0]	/* MoveIndirectAbsPt */
EIF[ ]	/* EndIf */
PUSHW[ ]	/* 1 value pushed */
59
SRP0[ ]	/* SetRefPoint0 */
PUSHW[ ]	/* 2 values pushed */
5 1
MIRP[11100]	/* MoveIndirectRelPt */
NPUSHW[ ]	/* 33 values pushed */
7 5 23 5 39 5 55 5 71 5 87 5 103 5 119 5 135 5 151 5 167 5 183 5 199 5 215 5 231 5 247 5 16
DELTAP1[ ]	/* DeltaExceptionP1 */
NPUSHW[ ]	/* 23 values pushed */
7 5 23 5 39 5 55 5 71 5 87 5 103 5 119 5 135 5 151 5 167 5 11
DELTAP2[ ]	/* DeltaExceptionP2 */
NPUSHW[ ]	/* 5 values pushed */
182 5 198 5 2
DELTAP2[ ]	/* DeltaExceptionP2 */
PUSHW[ ]	/* 1 value pushed */
49
SRP0[ ]	/* SetRefPoint0 */
PUSHW[ ]	/* 2 values pushed */
15 1
MIRP[11100]	/* MoveIndirectRelPt */
NPUSHW[ ]	/* 5 values pushed */
185 15 201 15 2
DELTAP2[ ]	/* DeltaExceptionP2 */
NPUSHW[ ]	/* 33 values pushed */
8 15 24 15 40 15 56 15 72 15 88 15 104 15 120 15 136 15 152 15 168 15 184 15 200 15 216 15 232 15 248 15 16
DELTAP1[ ]	/* DeltaExceptionP1 */
NPUSHW[ ]	/* 23 values pushed */
8 15 24 15 40 15 56 15 72 15 88 15 104 15 120 15 136 15 152 15 168 15 11
DELTAP2[ ]	/* DeltaExceptionP2 */
PUSHW[ ]	/* 1 value pushed */
5
SRP0[ ]	/* SetRefPoint0 */
PUSHW[ ]	/* 1 value pushed */
65
MDRP[10000]	/* MoveDirectRelPt */
PUSHW[ ]	/* 1 value pushed */
65
MDAP[1]	/* MoveDirectAbsPt */
IUP[0]	/* InterpolateUntPts */
IUP[1]	/* InterpolateUntPts */";
};
width = 567;
}
);
note = b;
},
{
glyphname = b.002;
lastChange = "2025-01-13 19:00:14 +0000";
layers = (
{
hints = (
{
horizontal = 1;
place = (396,62);
type = Stem;
},
{
horizontal = 1;
place = (-8,43);
type = Stem;
},
{
place = (424,81);
type = Stem;
},
{
place = (80,77);
type = Stem;
}
);
layerId = m01;
shapes = (
{
closed = 1;
nodes = (
(147,768,l),
(23,710,l),
(21,681,l),
(66,671,l),
(75,655,l),
(80,628,l),
(80,157,l),
(78,-5,l),
(142,3,l),
(261,-10,l),
(305,-8,l),
(364,9,l),
(425,49,l),
(453,77,l),
(478,120,l),
(501,188,l),
(505,238,l),
(499,298,l),
(476,355,l),
(441,405,l),
(387,442,l),
(312,458,l),
(267,454,l),
(230,441,l),
(158,397,l),
(157,556,l),
(166,758,l),
(166,758,l)
);
},
{
closed = 1;
nodes = (
(158,363,l),
(196,381,l),
(264,396,l),
(313,387,l),
(360,365,l),
(393,325,l),
(412,282,l),
(424,218,l),
(407,130,l),
(376,80,l),
(347,57,l),
(319,42,l),
(272,35,l),
(220,46,l),
(189,66,l),
(165,104,l),
(158,156,l),
(158,156,l)
);
}
);
width = 548;
}
);
},
{
glyphname = b.003;
lastChange = "2025-01-13 19:00:14 +0000";
layers = (
{
hints = (
{
horizontal = 1;
place = (396,62);
type = Stem;
},
{
horizontal = 1;
place = (-8,43);
type = Stem;
},
{
place = (424,81);
type = Stem;
},
{
place = (80,77);
type = Stem;
}
);
layerId = m01;
shapes = (
{
closed = 1;
nodes = (
(147,768,l),
(23,710,l),
(21,681,l),
(66,671,l),
(75,655,l),
(80,628,l),
(80,157,l),
(78,-5,l),
(142,3,l),
(261,-10,l),
(305,-8,l),
(364,9,l),
(425,49,l),
(453,77,l),
(478,120,l),
(501,188,l),
(505,238,l),
(499,298,l),
(476,355,l),
(441,405,l),
(387,442,l),
(312,458,l),
(267,454,l),
(230,441,l),
(158,397,l),
(157,556,l),
(166,758,l),
(166,758,l)
);
},
{
closed = 1;
nodes = (
(158,363,l),
(196,381,l),
(264,396,l),
(313,387,l),
(360,365,l),
(393,325,l),
(412,282,l),
(424,218,l),
(407,130,l),
(376,80,l),
(347,57,l),
(319,42,l),
(272,35,l),
(220,46,l),
(189,66,l),
(165,104,l),
(158,156,l),
(158,156,l)
);
}
);
width = 548;
}
);
},
{
glyphname = b.004;
lastChange = "2025-01-13 19:00:14 +0000";
layers = (
{
hints = (
{
horizontal = 1;
place = (405,53);
type = Stem;
},
{
horizontal = 1;
place = (-16,28);
type = Stem;
},
{
place = (405,102);
type = Stem;
},
{
place = (64,93);
type = Stem;
}
);
layerId = m01;
shapes = (
{
closed = 1;
nodes = (
(157,535,l),
(157,613,l),
(158,632,l),
(159,648,l),
(155,661,l),
(144,665,l),
(121,658,l),
(50,633,l),
(15,622,l),
(2,610,l),
(11,597,l),
(23,596,l),
(29,596,l),
(43,593,l),
(60,574,l),
(65,539,l),
(66,482,l),
(66,392,l),
(65,268,l),
(65,64,l),
(61,24,l),
(58,-7,l),
(59,-20,l),
(69,-24,l),
(80,-18,l),
(102,20,l),
(110,26,l),
(113,27,l),
(168,5,l),
(213,-10,l),
(260,-11,l),
(318,-7,l),
(365,9,l),
(429,48,l),
(464,87,l),
(491,139,l),
(502,180,l),
(508,229,l),
(499,296,l),
(472,359,l),
(430,408,l),
(371,444,l),
(305,456,l),
(252,448,l),
(217,436,l),
(198,425,l),
(167,414,l),
(161,417,l),
(158,435,l),
(158,435,l)
);
},
{
closed = 1;
nodes = (
(158,105,l),
(158,347,l),
(165,383,l),
(198,398,l),
(237,404,l),
(285,395,l),
(329,374,l),
(365,340,l),
(392,294,l),
(407,198,l),
(400,142,l),
(388,103,l),
(365,62,l),
(335,35,l),
(305,19,l),
(260,11,l),
(206,22,l),
(183,35,l),
(166,55,l),
(166,55,l)
);
}
);
width = 535;
}
);
},
{
glyphname = b.005;
lastChange = "2025-01-13 19:00:14 +0000";
layers = (
{
hints = (
{
horizontal = 1;
place = (408,54);
type = Stem;
},
{
horizontal = 1;
place = (-10,41);
type = Stem;
},
{
horizontal = 1;
place = (782,21);
target = up;
type = BottomGhost;
},
{
place = (394,90);
type = Stem;
},
{
place = (59,77);
type = Stem;
}
);
layerId = m01;
shapes = (
{
closed = 1;
nodes = (
(73,-10,l),
(87,4,l),
(109,22,l),
(162,3,l),
(237,-11,l),
(294,-5,l),
(333,11,l),
(372,32,l),
(387,44,l),
(427,79,l),
(444,105,l),
(465,142,l),
(484,240,l),
(465,325,l),
(434,379,l),
(405,408,l),
(364,437,l),
(328,452,l),
(277,458,l),
(205,444,l),
(135,397,l),
(135,448,l),
(136,492,l),
(134,539,l),
(134,640,l),
(133,688,l),
(134,704,l),
(133,722,l),
(134,746,l),
(135,775,l),
(137,792,l),
(131,800,l),
(116,792,l),
(109,789,l),
(79,775,l),
(57,764,l),
(25,748,l),
(6,738,l),
(2,733,l),
(14,721,l),
(56,688,l),
(61,649,l),
(60,585,l),
(61,535,l),
(60,500,l),
(61,474,l),
(60,454,l),
(61,420,l),
(60,404,l),
(60,374,l),
(59,291,l),
(60,225,l),
(60,7,l),
(63,-13,l),
(63,-13,l)
);
},
{
closed = 1;
nodes = (
(136,371,l),
(173,390,l),
(232,405,l),
(276,397,l),
(322,377,l),
(344,354,l),
(357,338,l),
(379,294,l),
(393,209,l),
(392,165,l),
(367,100,l),
(337,58,l),
(285,31,l),
(263,29,l),
(222,35,l),
(181,57,l),
(161,77,l),
(140,124,l),
(135,200,l),
(135,200,l)
);
}
);
width = 509;
}
);
},
{
glyphname = b.006;
lastChange = "2025-01-13 19:00:14 +0000";
layers = (
{
hints = (
{
horizontal = 1;
place = (408,50);
type = Stem;
},
{
horizontal = 1;
place = (-20,43);
type = Stem;
},
{
place = (407,73);
type = Stem;
},
{
place = (68,71);
type = Stem;
}
);
layerId = m01;
shapes = (
{
closed = 1;
nodes = (
(64,33,l),
(63,10,l),
(62,-18,l),
(66,-32,l),
(76,-34,l),
(95,-22,l),
(100,-12,l),
(123,19,l),
(132,22,l),
(149,16,l),
(184,3,l),
(255,-9,l),
(304,-8,l),
(341,5,l),
(402,45,l),
(440,90,l),
(458,124,l),
(471,160,l),
(479,219,l),
(469,287,l),
(452,333,l),
(420,385,l),
(396,409,l),
(362,435,l),
(314,451,l),
(280,454,l),
(234,448,l),
(187,432,l),
(156,415,l),
(142,413,l),
(144,465,l),
(143,599,l),
(142,669,l),
(143,718,l),
(142,736,l),
(140,751,l),
(121,764,l),
(46,731,l),
(11,704,l),
(19,696,l),
(30,692,l),
(56,680,l),
(71,649,l),
(71,603,l),
(69,384,l),
(68,313,l),
(68,292,l),
(67,273,l),
(67,261,l),
(66,212,l),
(67,149,l),
(64,89,l),
(64,89,l)
);
},
{
closed = 1;
nodes = (
(138,233,l),
(141,379,l),
(171,394,l),
(217,405,l),
(265,396,l),
(301,384,l),
(335,361,l),
(381,307,l),
(400,264,l),
(407,213,l),
(395,148,l),
(379,103,l),
(357,71,l),
(329,43,l),
(300,27,l),
(256,20,l),
(208,34,l),
(176,56,l),
(148,90,l),
(138,129,l),
(138,129,l)
);
}
);
width = 526;
}
);
},
{
glyphname = b.007;
lastChange = "2025-01-13 19:00:14 +0000";
layers = (
{
layerId = m01;
shapes = (
{
closed = 1;
nodes = (
(183,565.667,o),
(183.667,589,o),
(185,617,cs),
(186.333,635,o),
(187,648.333,o),
(187,657,cs),
(187,669,o),
(183,675,o),
(175,675,cs),
(171,675,o),
(166.667,673.667,o),
(162,671,c),
(114,651.667,o),
(72.333,638,o),
(37,630,cs),
(25.667,627.333,o),
(20,622.333,o),
(20,615,cs),
(20,607,o),
(26,602.667,o),
(38,602,cs),
(58,601.333,o),
(70.667,595,o),
(76,583,cs),
(80,575.667,o),
(82,560.333,o),
(82,537,cs),
(82,88,ls),
(82,56.667,o),
(80.667,35,o),
(78,23,cs),
(74.667,7,o),
(73,-4,o),
(73,-10,cs),
(73,-20.667,o),
(78,-26,o),
(88,-26,cs),
(94,-26,o),
(99.333,-21,o),
(104,-11,cs),
(119.333,17.667,o),
(129.333,32,o),
(134,32,cs),
(136.667,32,o),
(140.333,30.667,o),
(145,28,cs),
(192.333,3.333,o),
(239.667,-9,o),
(287,-9,cs),
(348.333,-9,o),
(403.333,10.333,o),
(452,49,cs),
(509.333,95,o),
(538,156.333,o),
(538,233,cs),
(538,361,o),
(444.667,464,o),
(330,464,cs),
(294,464,o),
(279.667,460.333,o),
(221,431,cs),
(205.667,423.667,o),
(195.333,420,o),
(190,420,cs),
(186.667,420,o),
(184.667,421.5,o),
(184,424.5,cs),
(183.333,427.5,o),
(183,437.667,o),
(183,455,cs),
(183,547,l),
(183,547,l)
);
},
{
closed = 1;
nodes = (
(179,371.333,o),
(181,383.333,o),
(185,388,cs),
(200.333,402.667,o),
(225.333,410,o),
(260,410,cs),
(361.333,410,o),
(431,327.333,o),
(431,206,cs),
(431,91.333,o),
(369,13,o),
(281,13,cs),
(253.667,13,o),
(230.667,20.667,o),
(212,36,cs),
(190,53.333,o),
(179,84,o),
(179,128,cs),
(179,352,l),
(179,352,l)
);
}
);
userData = {
assembly = "PUSHW[ ]	/* 1 value pushed */
10
CALL[ ]	/* CallFunction */
PUSHW[ ]	/* 1 value pushed */
64
MDAP[1]	/* MoveDirectAbsPt */
PUSHW[ ]	/* 1 value pushed */
65
MDAP[1]	/* MoveDirectAbsPt */
PUSHW[ ]	/* 1 value pushed */
64
SRP0[ ]	/* SetRefPoint0 */
PUSHW[ ]	/* 1 value pushed */
30
MDRP[10000]	/* MoveDirectRelPt */
PUSHW[ ]	/* 1 value pushed */
30
MDAP[1]	/* MoveDirectAbsPt */
PUSHW[ ]	/* 1 value pushed */
50
MDRP[11100]	/* MoveDirectRelPt */
PUSHW[ ]	/* 1 value pushed */
0
MDRP[10000]	/* MoveDirectRelPt */
PUSHW[ ]	/* 1 value pushed */
0
MDAP[1]	/* MoveDirectAbsPt */
PUSHW[ ]	/* 1 value pushed */
65
SRP0[ ]	/* SetRefPoint0 */
PUSHW[ ]	/* 1 value pushed */
12
MDRP[11100]	/* MoveDirectRelPt */
PUSHW[ ]	/* 1 value pushed */
30
SRP0[ ]	/* SetRefPoint0 */
PUSHW[ ]	/* 1 value pushed */
24
MDRP[10000]	/* MoveDirectRelPt */
PUSHW[ ]	/* 1 value pushed */
24
MDAP[1]	/* MoveDirectAbsPt */
PUSHW[ ]	/* 1 value pushed */
30
SRP0[ ]	/* SetRefPoint0 */
PUSHW[ ]	/* 1 value pushed */
28
MDRP[10000]	/* MoveDirectRelPt */
PUSHW[ ]	/* 1 value pushed */
28
MDAP[1]	/* MoveDirectAbsPt */
PUSHW[ ]	/* 1 value pushed */
30
SRP0[ ]	/* SetRefPoint0 */
PUSHW[ ]	/* 1 value pushed */
33
MDRP[10000]	/* MoveDirectRelPt */
PUSHW[ ]	/* 1 value pushed */
33
MDAP[1]	/* MoveDirectAbsPt */
PUSHW[ ]	/* 1 value pushed */
50
SRP0[ ]	/* SetRefPoint0 */
PUSHW[ ]	/* 1 value pushed */
43
MDRP[10000]	/* MoveDirectRelPt */
PUSHW[ ]	/* 1 value pushed */
43
MDAP[1]	/* MoveDirectAbsPt */
PUSHW[ ]	/* 1 value pushed */
50
SRP0[ ]	/* SetRefPoint0 */
PUSHW[ ]	/* 1 value pushed */
47
MDRP[10000]	/* MoveDirectRelPt */
PUSHW[ ]	/* 1 value pushed */
47
MDAP[1]	/* MoveDirectAbsPt */
PUSHW[ ]	/* 1 value pushed */
12
SRP0[ ]	/* SetRefPoint0 */
PUSHW[ ]	/* 1 value pushed */
57
MDRP[11100]	/* MoveDirectRelPt */
NPUSHW[ ]	/* 5 values pushed */
58 57 74 57 2
DELTAP2[ ]	/* DeltaExceptionP2 */
NPUSHW[ ]	/* 21 values pushed */
105 57 121 57 137 57 153 57 169 57 185 57 201 57 217 57 233 57 249 57 10
DELTAP1[ ]	/* DeltaExceptionP1 */
NPUSHW[ ]	/* 7 values pushed */
9 57 25 57 41 57 3
DELTAP2[ ]	/* DeltaExceptionP2 */
PUSHW[ ]	/* 1 value pushed */
50
SRP0[ ]	/* SetRefPoint0 */
PUSHW[ ]	/* 1 value pushed */
62
MDRP[10000]	/* MoveDirectRelPt */
PUSHW[ ]	/* 1 value pushed */
62
MDAP[1]	/* MoveDirectAbsPt */
SVTCA[0]	/* SetFreedomAndProjectionVectorToAxis */
PUSHW[ ]	/* 1 value pushed */
41
MDAP[1]	/* MoveDirectAbsPt */
PUSHW[ ]	/* 1 value pushed */
43
MDAP[1]	/* MoveDirectAbsPt */
PUSHW[ ]	/* 1 value pushed */
24
MDAP[1]	/* MoveDirectAbsPt */
PUSHW[ ]	/* 1 value pushed */
37
RCVT[ ]	/* ReadCVT */
IF[ ]	/* If */
PUSHW[ ]	/* 1 value pushed */
9
MDAP[1]	/* MoveDirectAbsPt */
ELSE[ ]	/* Else */
PUSHW[ ]	/* 2 values pushed */
9 42
MIAP[0]	/* MoveIndirectAbsPt */
EIF[ ]	/* EndIf */
PUSHW[ ]	/* 1 value pushed */
37
RCVT[ ]	/* ReadCVT */
IF[ ]	/* If */
PUSHW[ ]	/* 1 value pushed */
16
MDAP[1]	/* MoveDirectAbsPt */
ELSE[ ]	/* Else */
PUSHW[ ]	/* 2 values pushed */
16 38
MIAP[0]	/* MoveIndirectAbsPt */
EIF[ ]	/* EndIf */
PUSHW[ ]	/* 1 value pushed */
37
RCVT[ ]	/* ReadCVT */
IF[ ]	/* If */
PUSHW[ ]	/* 1 value pushed */
22
MDAP[1]	/* MoveDirectAbsPt */
ELSE[ ]	/* Else */
PUSHW[ ]	/* 2 values pushed */
22 38
MIAP[0]	/* MoveIndirectAbsPt */
EIF[ ]	/* EndIf */
PUSHW[ ]	/* 1 value pushed */
37
RCVT[ ]	/* ReadCVT */
IF[ ]	/* If */
PUSHW[ ]	/* 1 value pushed */
26
MDAP[1]	/* MoveDirectAbsPt */
ELSE[ ]	/* Else */
PUSHW[ ]	/* 2 values pushed */
26 38
MIAP[0]	/* MoveIndirectAbsPt */
EIF[ ]	/* EndIf */
PUSHW[ ]	/* 1 value pushed */
16
SRP0[ ]	/* SetRefPoint0 */
PUSHW[ ]	/* 1 value pushed */
54
MDRP[11100]	/* MoveDirectRelPt */
NPUSHW[ ]	/* 21 values pushed */
103 54 119 54 135 54 151 54 167 54 183 54 199 54 215 54 231 54 247 54 10
DELTAP1[ ]	/* DeltaExceptionP1 */
NPUSHW[ ]	/* 7 values pushed */
7 54 23 54 39 54 3
DELTAP2[ ]	/* DeltaExceptionP2 */
NPUSHW[ ]	/* 5 values pushed */
54 54 70 54 2
DELTAP2[ ]	/* DeltaExceptionP2 */
PUSHW[ ]	/* 1 value pushed */
9
SRP0[ ]	/* SetRefPoint0 */
PUSHW[ ]	/* 1 value pushed */
60
MDRP[11100]	/* MoveDirectRelPt */
NPUSHW[ ]	/* 5 values pushed */
57 60 73 60 2
DELTAP2[ ]	/* DeltaExceptionP2 */
NPUSHW[ ]	/* 21 values pushed */
104 60 120 60 136 60 152 60 168 60 184 60 200 60 216 60 232 60 248 60 10
DELTAP1[ ]	/* DeltaExceptionP1 */
NPUSHW[ ]	/* 7 values pushed */
8 60 24 60 40 60 3
DELTAP2[ ]	/* DeltaExceptionP2 */
IUP[0]	/* InterpolateUntPts */
IUP[1]	/* InterpolateUntPts */";
};
width = 575;
}
);
note = b;
},
{
glyphname = b.008;
lastChange = "2025-01-13 19:00:14 +0000";
layers = (
{
layerId = m01;
shapes = (
{
closed = 1;
nodes = (
(86,10.667,o),
(85,-0.333,o),
(85,-5,cs),
(85,-15,o),
(89,-20,o),
(97,-20,cs),
(104.333,-20,o),
(110.333,-15.667,o),
(115,-7,cs),
(121.667,7,o),
(129.667,14,o),
(139,14,cs),
(141.667,14,o),
(145.333,13,o),
(150,11,cs),
(195.333,-10.333,o),
(236.333,-21,o),
(273,-21,cs),
(313.667,-21,o),
(356.333,-7.667,o),
(401,19,cs),
(451.667,48.333,o),
(487.667,89.333,o),
(509,142,cs),
(521.667,172.667,o),
(528,206,o),
(528,242,cs),
(528,302,o),
(491.333,376,o),
(442,416,cs),
(404.667,447.333,o),
(364,463,o),
(320,463,cs),
(278.667,463,o),
(236.667,449.667,o),
(194,423,c),
(184.667,415.667,o),
(178,411.333,o),
(174,410,c),
(172,408.667,o),
(170,407,o),
(168,405,cs),
(167,404,l),
(163.667,404,o),
(162,421.667,o),
(162,457,cs),
(162,461,o),
(162.333,467.167,o),
(163,475.5,cs),
(163.667,483.833,o),
(164,491,o),
(164,497,cs),
(162,552,l),
(162,570,ls),
(162,583.333,o),
(161,608,o),
(159,644,cs),
(158.333,662.667,o),
(158,679.333,o),
(158,694,cs),
(158,704.667,o),
(158.333,717.333,o),
(159,732,cs),
(161,754,ls),
(162.333,782.667,o),
(163,798.333,o),
(163,801,cs),
(163,809,o),
(160,813,o),
(154,813,cs),
(152.667,813,o),
(150.167,812,o),
(146.5,810,cs),
(142.833,808,o),
(139,806,o),
(135,804,cs),
(124.333,798.667,o),
(116.333,794.667,o),
(111,792,cs),
(93,782.667,o),
(82.667,777,o),
(80,775,c),
(66.667,768.333,o),
(56.333,763,o),
(49,759,cs),
(32.333,749.667,o),
(24,743,o),
(24,739,cs),
(24,734.333,o),
(30,729.333,o),
(42,724,cs),
(60.667,715.333,o),
(73.333,704.667,o),
(80,692,cs),
(84.667,682.667,o),
(86,654.667,o),
(84,608,cs),
(83,581,l),
(85,544,ls),
(85.667,534.667,o),
(85.333,515.667,o),
(84,487,cs),
(83.333,471,o),
(83.333,431,o),
(84,367,cs),
(85,272,l),
(87,197,l),
(87,85,l),
(88,28,l),
(88,28,l)
);
},
{
closed = 1;
nodes = (
(165.667,308.333,o),
(165.5,319.5,o),
(164.5,326.5,cs),
(163.5,333.5,o),
(163,336.667,o),
(163,336,cs),
(163,356,o),
(163.667,368,o),
(165,372,c),
(172.333,377.333,o),
(179,381.333,o),
(185,384,cs),
(211.667,399.333,o),
(238.667,407,o),
(266,407,cs),
(316.667,407,o),
(359,387,o),
(393,347,cs),
(422.333,313,o),
(437,269.333,o),
(437,216,cs),
(437,174.667,o),
(428.667,136.667,o),
(412,102,cs),
(387.333,50,o),
(349.333,24,o),
(298,24,cs),
(243.333,24,o),
(192.333,58.667,o),
(175,108,cs),
(169.667,122.667,o),
(163.667,190.667,o),
(165,212,cs),
(166,226,l),
(164,250,l),
(165,293,l),
(165,293,l)
);
}
);
userData = {
assembly = "PUSHW[ ]	/* 1 value pushed */
10
CALL[ ]	/* CallFunction */
PUSHW[ ]	/* 1 value pushed */
101
MDAP[1]	/* MoveDirectAbsPt */
PUSHW[ ]	/* 1 value pushed */
102
MDAP[1]	/* MoveDirectAbsPt */
PUSHW[ ]	/* 1 value pushed */
101
SRP0[ ]	/* SetRefPoint0 */
PUSHW[ ]	/* 1 value pushed */
4
MDRP[10000]	/* MoveDirectRelPt */
PUSHW[ ]	/* 1 value pushed */
4
MDAP[1]	/* MoveDirectAbsPt */
PUSHW[ ]	/* 1 value pushed */
0
MDRP[10000]	/* MoveDirectRelPt */
PUSHW[ ]	/* 1 value pushed */
0
MDAP[1]	/* MoveDirectAbsPt */
PUSHW[ ]	/* 1 value pushed */
4
SRP0[ ]	/* SetRefPoint0 */
PUSHW[ ]	/* 1 value pushed */
2
MDRP[10000]	/* MoveDirectRelPt */
PUSHW[ ]	/* 1 value pushed */
2
MDAP[1]	/* MoveDirectAbsPt */
PUSHW[ ]	/* 1 value pushed */
4
SRP0[ ]	/* SetRefPoint0 */
PUSHW[ ]	/* 1 value pushed */
6
MDRP[10000]	/* MoveDirectRelPt */
PUSHW[ ]	/* 1 value pushed */
4
SRP0[ ]	/* SetRefPoint0 */
PUSHW[ ]	/* 1 value pushed */
8
MDRP[10000]	/* MoveDirectRelPt */
PUSHW[ ]	/* 1 value pushed */
8
MDAP[1]	/* MoveDirectAbsPt */
PUSHW[ ]	/* 1 value pushed */
4
SRP0[ ]	/* SetRefPoint0 */
PUSHW[ ]	/* 1 value pushed */
10
MDRP[10000]	/* MoveDirectRelPt */
PUSHW[ ]	/* 1 value pushed */
4
SRP0[ ]	/* SetRefPoint0 */
PUSHW[ ]	/* 1 value pushed */
12
MDRP[10000]	/* MoveDirectRelPt */
PUSHW[ ]	/* 1 value pushed */
12
MDAP[1]	/* MoveDirectAbsPt */
PUSHW[ ]	/* 1 value pushed */
4
SRP0[ ]	/* SetRefPoint0 */
PUSHW[ ]	/* 1 value pushed */
20
MDRP[10000]	/* MoveDirectRelPt */
PUSHW[ ]	/* 1 value pushed */
20
MDAP[1]	/* MoveDirectAbsPt */
PUSHW[ ]	/* 1 value pushed */
4
SRP0[ ]	/* SetRefPoint0 */
PUSHW[ ]	/* 1 value pushed */
96
MDRP[11100]	/* MoveDirectRelPt */
PUSHW[ ]	/* 1 value pushed */
29
MDRP[10000]	/* MoveDirectRelPt */
PUSHW[ ]	/* 1 value pushed */
29
MDAP[1]	/* MoveDirectAbsPt */
PUSHW[ ]	/* 1 value pushed */
96
SRP0[ ]	/* SetRefPoint0 */
PUSHW[ ]	/* 1 value pushed */
31
MDRP[10000]	/* MoveDirectRelPt */
PUSHW[ ]	/* 1 value pushed */
31
MDAP[1]	/* MoveDirectAbsPt */
PUSHW[ ]	/* 1 value pushed */
96
SRP0[ ]	/* SetRefPoint0 */
PUSHW[ ]	/* 1 value pushed */
34
MDRP[10000]	/* MoveDirectRelPt */
PUSHW[ ]	/* 1 value pushed */
34
MDAP[1]	/* MoveDirectAbsPt */
PUSHW[ ]	/* 1 value pushed */
96
SRP0[ ]	/* SetRefPoint0 */
PUSHW[ ]	/* 1 value pushed */
36
MDRP[10000]	/* MoveDirectRelPt */
PUSHW[ ]	/* 1 value pushed */
36
MDAP[1]	/* MoveDirectAbsPt */
PUSHW[ ]	/* 1 value pushed */
96
SRP0[ ]	/* SetRefPoint0 */
PUSHW[ ]	/* 1 value pushed */
38
MDRP[10000]	/* MoveDirectRelPt */
PUSHW[ ]	/* 1 value pushed */
38
MDAP[1]	/* MoveDirectAbsPt */
PUSHW[ ]	/* 1 value pushed */
96
SRP0[ ]	/* SetRefPoint0 */
PUSHW[ ]	/* 1 value pushed */
40
MDRP[10000]	/* MoveDirectRelPt */
PUSHW[ ]	/* 1 value pushed */
40
MDAP[1]	/* MoveDirectAbsPt */
PUSHW[ ]	/* 1 value pushed */
96
SRP0[ ]	/* SetRefPoint0 */
PUSHW[ ]	/* 1 value pushed */
43
MDRP[10000]	/* MoveDirectRelPt */
PUSHW[ ]	/* 1 value pushed */
43
MDAP[1]	/* MoveDirectAbsPt */
PUSHW[ ]	/* 1 value pushed */
96
SRP0[ ]	/* SetRefPoint0 */
PUSHW[ ]	/* 1 value pushed */
45
MDRP[10000]	/* MoveDirectRelPt */
PUSHW[ ]	/* 1 value pushed */
45
MDAP[1]	/* MoveDirectAbsPt */
PUSHW[ ]	/* 1 value pushed */
102
SRP0[ ]	/* SetRefPoint0 */
PUSHW[ ]	/* 1 value pushed */
57
MDRP[11100]	/* MoveDirectRelPt */
PUSHW[ ]	/* 1 value pushed */
88
MDRP[11100]	/* MoveDirectRelPt */
NPUSHW[ ]	/* 5 values pushed */
58 88 74 88 2
DELTAP2[ ]	/* DeltaExceptionP2 */
NPUSHW[ ]	/* 21 values pushed */
105 88 121 88 137 88 153 88 169 88 185 88 201 88 217 88 233 88 249 88 10
DELTAP1[ ]	/* DeltaExceptionP1 */
NPUSHW[ ]	/* 7 values pushed */
9 88 25 88 41 88 3
DELTAP2[ ]	/* DeltaExceptionP2 */
PUSHW[ ]	/* 1 value pushed */
54
MDRP[10000]	/* MoveDirectRelPt */
PUSHW[ ]	/* 1 value pushed */
54
MDAP[1]	/* MoveDirectAbsPt */
PUSHW[ ]	/* 1 value pushed */
4
SRP0[ ]	/* SetRefPoint0 */
PUSHW[ ]	/* 1 value pushed */
73
MDRP[10000]	/* MoveDirectRelPt */
PUSHW[ ]	/* 1 value pushed */
73
MDAP[1]	/* MoveDirectAbsPt */
PUSHW[ ]	/* 1 value pushed */
96
SRP0[ ]	/* SetRefPoint0 */
PUSHW[ ]	/* 1 value pushed */
75
MDRP[10000]	/* MoveDirectRelPt */
PUSHW[ ]	/* 1 value pushed */
96
SRP0[ ]	/* SetRefPoint0 */
PUSHW[ ]	/* 1 value pushed */
77
MDRP[10000]	/* MoveDirectRelPt */
PUSHW[ ]	/* 1 value pushed */
77
MDAP[1]	/* MoveDirectAbsPt */
PUSHW[ ]	/* 1 value pushed */
96
SRP0[ ]	/* SetRefPoint0 */
PUSHW[ ]	/* 1 value pushed */
98
MDRP[10000]	/* MoveDirectRelPt */
PUSHW[ ]	/* 1 value pushed */
98
MDAP[1]	/* MoveDirectAbsPt */
SVTCA[0]	/* SetFreedomAndProjectionVectorToAxis */
PUSHW[ ]	/* 1 value pushed */
27
MDAP[1]	/* MoveDirectAbsPt */
PUSHW[ ]	/* 1 value pushed */
37
RCVT[ ]	/* ReadCVT */
IF[ ]	/* If */
PUSHW[ ]	/* 1 value pushed */
43
MDAP[1]	/* MoveDirectAbsPt */
ELSE[ ]	/* Else */
PUSHW[ ]	/* 2 values pushed */
43 42
MIAP[0]	/* MoveIndirectAbsPt */
EIF[ ]	/* EndIf */
PUSHW[ ]	/* 1 value pushed */
37
RCVT[ ]	/* ReadCVT */
IF[ ]	/* If */
PUSHW[ ]	/* 1 value pushed */
52
MDAP[1]	/* MoveDirectAbsPt */
ELSE[ ]	/* Else */
PUSHW[ ]	/* 2 values pushed */
52 42
MIAP[0]	/* MoveIndirectAbsPt */
EIF[ ]	/* EndIf */
PUSHW[ ]	/* 1 value pushed */
37
RCVT[ ]	/* ReadCVT */
IF[ ]	/* If */
PUSHW[ ]	/* 1 value pushed */
63
MDAP[1]	/* MoveDirectAbsPt */
ELSE[ ]	/* Else */
PUSHW[ ]	/* 2 values pushed */
63 38
MIAP[0]	/* MoveIndirectAbsPt */
EIF[ ]	/* EndIf */
PUSHW[ ]	/* 1 value pushed */
37
RCVT[ ]	/* ReadCVT */
IF[ ]	/* If */
PUSHW[ ]	/* 1 value pushed */
71
MDAP[1]	/* MoveDirectAbsPt */
ELSE[ ]	/* Else */
PUSHW[ ]	/* 2 values pushed */
71 38
MIAP[0]	/* MoveIndirectAbsPt */
EIF[ ]	/* EndIf */
PUSHW[ ]	/* 1 value pushed */
43
SRP0[ ]	/* SetRefPoint0 */
PUSHW[ ]	/* 1 value pushed */
45
MDRP[11100]	/* MoveDirectRelPt */
NPUSHW[ ]	/* 5 values pushed */
57 45 73 45 2
DELTAP2[ ]	/* DeltaExceptionP2 */
NPUSHW[ ]	/* 21 values pushed */
104 45 120 45 136 45 152 45 168 45 184 45 200 45 216 45 232 45 248 45 10
DELTAP1[ ]	/* DeltaExceptionP1 */
NPUSHW[ ]	/* 7 values pushed */
8 45 24 45 40 45 3
DELTAP2[ ]	/* DeltaExceptionP2 */
PUSHW[ ]	/* 1 value pushed */
63
SRP0[ ]	/* SetRefPoint0 */
PUSHW[ ]	/* 1 value pushed */
84
MDRP[11100]	/* MoveDirectRelPt */
NPUSHW[ ]	/* 21 values pushed */
103 84 119 84 135 84 151 84 167 84 183 84 199 84 215 84 231 84 247 84 10
DELTAP1[ ]	/* DeltaExceptionP1 */
NPUSHW[ ]	/* 7 values pushed */
7 84 23 84 39 84 3
DELTAP2[ ]	/* DeltaExceptionP2 */
NPUSHW[ ]	/* 5 values pushed */
54 84 70 84 2
DELTAP2[ ]	/* DeltaExceptionP2 */
PUSHW[ ]	/* 1 value pushed */
45
SRP0[ ]	/* SetRefPoint0 */
PUSHW[ ]	/* 1 value pushed */
92
MDRP[10000]	/* MoveDirectRelPt */
IUP[0]	/* InterpolateUntPts */
IUP[1]	/* InterpolateUntPts */";
};
width = 564;
}
);
note = b;
},
{
glyphname = b.009;
lastChange = "2025-01-13 19:00:14 +0000";
layers = (
{
layerId = m01;
shapes = (
{
closed = 1;
nodes = (
(168,586,o),
(171.667,707,o),
(179,815,c),
(173.667,811.667,o),
(169,810,o),
(165,810,cs),
(162.333,810,o),
(158.333,811.667,o),
(153,815,c),
(109.667,789,o),
(64.333,771.667,o),
(17,763,c),
(19,757.667,o),
(20,753.333,o),
(20,750,cs),
(20,747.333,o),
(19,743.667,o),
(17,739,c),
(45,737,ls),
(67,735.667,o),
(79.667,728.667,o),
(83,716,cs),
(89.667,692,o),
(93,604,o),
(93,452,cs),
(93,240,ls),
(93,180,o),
(90,94.667,o),
(84,-16,c),
(94,-16,l),
(141,22,l),
(192.333,-6,o),
(242.333,-20,o),
(291,-20,cs),
(444.333,-20,o),
(547,80.333,o),
(547,227,cs),
(547,359,o),
(460.667,452,o),
(338,452,cs),
(278.667,452,o),
(222,430.333,o),
(168,387,c),
(168,452,l),
(168,452,l)
);
},
{
closed = 1;
nodes = (
(210,385,o),
(250.667,400,o),
(290,400,cs),
(391.333,400,o),
(469,309.333,o),
(469,188,cs),
(469,85.333,o),
(397.667,9,o),
(303,9,cs),
(263,9,o),
(230,21.333,o),
(204,46,cs),
(176,72.667,o),
(162,115.667,o),
(162,175,cs),
(162,176.333,o),
(162.333,184.333,o),
(163,199,cs),
(163.667,213.667,o),
(164,226.333,o),
(164,237,cs),
(168,355,l),
(168,355,l)
);
}
);
userData = {
assembly = "PUSHW[ ]	/* 1 value pushed */
10
CALL[ ]	/* CallFunction */
PUSHW[ ]	/* 3 values pushed */
29 13 13
CALL[ ]	/* CallFunction */
PUSHW[ ]	/* 1 value pushed */
29
SRP0[ ]	/* SetRefPoint0 */
PUSHW[ ]	/* 3 values pushed */
6 44 13
CALL[ ]	/* CallFunction */
PUSHW[ ]	/* 1 value pushed */
6
SRP0[ ]	/* SetRefPoint0 */
PUSHW[ ]	/* 1 value pushed */
29
SRP0[ ]	/* SetRefPoint0 */
PUSHW[ ]	/* 1 value pushed */
0
MDRP[10000]	/* MoveDirectRelPt */
PUSHW[ ]	/* 1 value pushed */
0
MDAP[1]	/* MoveDirectAbsPt */
PUSHW[ ]	/* 3 values pushed */
1 13 6
SRP1[ ]	/* SetRefPoint1 */
SRP2[ ]	/* SetRefPoint2 */
IP[ ]	/* InterpolatePts */
PUSHW[ ]	/* 1 value pushed */
29
SRP0[ ]	/* SetRefPoint0 */
PUSHW[ ]	/* 1 value pushed */
16
MDRP[11100]	/* MoveDirectRelPt */
PUSHW[ ]	/* 3 values pushed */
31 13 6
SRP1[ ]	/* SetRefPoint1 */
SRP2[ ]	/* SetRefPoint2 */
IP[ ]	/* InterpolatePts */
PUSHW[ ]	/* 1 value pushed */
29
SRP0[ ]	/* SetRefPoint0 */
PUSHW[ ]	/* 1 value pushed */
33
MDRP[10000]	/* MoveDirectRelPt */
PUSHW[ ]	/* 1 value pushed */
33
MDAP[1]	/* MoveDirectAbsPt */
PUSHW[ ]	/* 1 value pushed */
29
SRP0[ ]	/* SetRefPoint0 */
PUSHW[ ]	/* 1 value pushed */
37
MDRP[10000]	/* MoveDirectRelPt */
PUSHW[ ]	/* 1 value pushed */
37
MDAP[1]	/* MoveDirectAbsPt */
NPUSHW[ ]	/* 5 values pushed */
58 44 74 44 2
DELTAP2[ ]	/* DeltaExceptionP2 */
NPUSHW[ ]	/* 21 values pushed */
105 44 121 44 137 44 153 44 169 44 185 44 201 44 217 44 233 44 249 44 10
DELTAP1[ ]	/* DeltaExceptionP1 */
NPUSHW[ ]	/* 7 values pushed */
9 44 25 44 41 44 3
DELTAP2[ ]	/* DeltaExceptionP2 */
PUSHW[ ]	/* 1 value pushed */
6
SRP0[ ]	/* SetRefPoint0 */
PUSHW[ ]	/* 1 value pushed */
50
MDRP[11100]	/* MoveDirectRelPt */
SVTCA[0]	/* SetFreedomAndProjectionVectorToAxis */
PUSHW[ ]	/* 1 value pushed */
27
MDAP[1]	/* MoveDirectAbsPt */
PUSHW[ ]	/* 1 value pushed */
29
MDAP[1]	/* MoveDirectAbsPt */
PUSHW[ ]	/* 1 value pushed */
31
MDAP[1]	/* MoveDirectAbsPt */
PUSHW[ ]	/* 1 value pushed */
33
RCVT[ ]	/* ReadCVT */
IF[ ]	/* If */
PUSHW[ ]	/* 1 value pushed */
0
MDAP[1]	/* MoveDirectAbsPt */
ELSE[ ]	/* Else */
PUSHW[ ]	/* 2 values pushed */
0 38
MIAP[0]	/* MoveIndirectAbsPt */
EIF[ ]	/* EndIf */
PUSHW[ ]	/* 1 value pushed */
33
RCVT[ ]	/* ReadCVT */
IF[ ]	/* If */
PUSHW[ ]	/* 1 value pushed */
3
MDAP[1]	/* MoveDirectAbsPt */
ELSE[ ]	/* Else */
PUSHW[ ]	/* 2 values pushed */
3 38
MIAP[0]	/* MoveIndirectAbsPt */
EIF[ ]	/* EndIf */
PUSHW[ ]	/* 1 value pushed */
33
RCVT[ ]	/* ReadCVT */
IF[ ]	/* If */
PUSHW[ ]	/* 1 value pushed */
16
MDAP[1]	/* MoveDirectAbsPt */
ELSE[ ]	/* Else */
PUSHW[ ]	/* 2 values pushed */
16 38
MIAP[0]	/* MoveIndirectAbsPt */
EIF[ ]	/* EndIf */
PUSHW[ ]	/* 1 value pushed */
33
RCVT[ ]	/* ReadCVT */
IF[ ]	/* If */
PUSHW[ ]	/* 1 value pushed */
9
MDAP[1]	/* MoveDirectAbsPt */
ELSE[ ]	/* Else */
PUSHW[ ]	/* 2 values pushed */
9 34
MIAP[0]	/* MoveIndirectAbsPt */
EIF[ ]	/* EndIf */
PUSHW[ ]	/* 1 value pushed */
33
RCVT[ ]	/* ReadCVT */
IF[ ]	/* If */
PUSHW[ ]	/* 1 value pushed */
12
MDAP[1]	/* MoveDirectAbsPt */
ELSE[ ]	/* Else */
PUSHW[ ]	/* 2 values pushed */
12 34
MIAP[0]	/* MoveIndirectAbsPt */
EIF[ ]	/* EndIf */
PUSHW[ ]	/* 3 values pushed */
1 9 27
SRP1[ ]	/* SetRefPoint1 */
SRP2[ ]	/* SetRefPoint2 */
IP[ ]	/* InterpolatePts */
PUSHW[ ]	/* 3 values pushed */
21 9 27
SRP1[ ]	/* SetRefPoint1 */
SRP2[ ]	/* SetRefPoint2 */
IP[ ]	/* InterpolatePts */
PUSHW[ ]	/* 1 value pushed */
9
SRP0[ ]	/* SetRefPoint0 */
PUSHW[ ]	/* 1 value pushed */
41
MDRP[11100]	/* MoveDirectRelPt */
NPUSHW[ ]	/* 21 values pushed */
103 41 119 41 135 41 151 41 167 41 183 41 199 41 215 41 231 41 247 41 10
DELTAP1[ ]	/* DeltaExceptionP1 */
NPUSHW[ ]	/* 7 values pushed */
7 41 23 41 39 41 3
DELTAP2[ ]	/* DeltaExceptionP2 */
NPUSHW[ ]	/* 5 values pushed */
54 41 70 41 2
DELTAP2[ ]	/* DeltaExceptionP2 */
PUSHW[ ]	/* 1 value pushed */
3
SRP0[ ]	/* SetRefPoint0 */
PUSHW[ ]	/* 1 value pushed */
47
MDRP[11100]	/* MoveDirectRelPt */
NPUSHW[ ]	/* 5 values pushed */
57 47 73 47 2
DELTAP2[ ]	/* DeltaExceptionP2 */
NPUSHW[ ]	/* 21 values pushed */
104 47 120 47 136 47 152 47 168 47 184 47 200 47 216 47 232 47 248 47 10
DELTAP1[ ]	/* DeltaExceptionP1 */
NPUSHW[ ]	/* 7 values pushed */
8 47 24 47 40 47 3
DELTAP2[ ]	/* DeltaExceptionP2 */
IUP[0]	/* InterpolateUntPts */
IUP[1]	/* InterpolateUntPts */";
};
width = 592;
}
);
note = b;
},
{
glyphname = b.010;
lastChange = "2025-01-13 19:00:14 +0000";
layers = (
{
layerId = m01;
shapes = (
{
closed = 1;
nodes = (
(81.114,683,o),
(80,667.211,o),
(80,566,cs),
(80,156,l),
(79,-6,l),
(103,-0.667,o),
(118.333,2,o),
(141,2,cs),
(145.667,2,o),
(150.333,2,o),
(155,2,cs),
(159.667,2,o),
(164.333,1.667,o),
(169,1,cs),
(183,-0.333,o),
(197.167,-2.167,o),
(211.5,-4.5,cs),
(225.833,-6.833,o),
(239.667,-8.333,o),
(253,-9,cs),
(264,-9,ls),
(411.92,-9,o),
(507,98.996,o),
(507,239,cs),
(507,359.68,o),
(429.68,459,o),
(312,459,cs),
(246.667,459,o),
(202.333,429,o),
(157,397,c),
(157,557,ls),
(157,659.673,o),
(162.05,718.925,o),
(167,761,c),
(147,770,l),
(95.783,739.27,o),
(70.572,727.773,o),
(21,712,c),
(21,683,l),
(21,683,l)
);
},
{
closed = 1;
nodes = (
(181,377.333,o),
(215.667,397,o),
(265,397,cs),
(358.861,397,o),
(426,328.465,o),
(426,217,cs),
(426,127.369,o),
(378.226,35,o),
(273,35,cs),
(241.301,35,o),
(192.766,45.468,o),
(169,93,cs),
(157,115.667,o),
(158.333,133.667,o),
(157,155,c),
(157,364,l),
(157,364,l)
);
}
);
userData = {
assembly = "PUSHW[ ]	/* 1 value pushed */
65
MDAP[1]	/* MoveDirectAbsPt */
PUSHW[ ]	/* 1 value pushed */
66
MDAP[1]	/* MoveDirectAbsPt */
PUSHW[ ]	/* 1 value pushed */
65
SRP0[ ]	/* SetRefPoint0 */
PUSHW[ ]	/* 1 value pushed */
36
MDRP[10000]	/* MoveDirectRelPt */
PUSHW[ ]	/* 1 value pushed */
36
MDAP[1]	/* MoveDirectAbsPt */
PUSHW[ ]	/* 2 values pushed */
43 2
MIRP[11100]	/* MoveIndirectRelPt */
PUSHW[ ]	/* 1 value pushed */
11
MDRP[10000]	/* MoveDirectRelPt */
PUSHW[ ]	/* 1 value pushed */
66
SRP0[ ]	/* SetRefPoint0 */
PUSHW[ ]	/* 1 value pushed */
20
MDRP[11100]	/* MoveDirectRelPt */
PUSHW[ ]	/* 3 values pushed */
12 36 20
SRP1[ ]	/* SetRefPoint1 */
SRP2[ ]	/* SetRefPoint2 */
IP[ ]	/* InterpolatePts */
PUSHW[ ]	/* 2 values pushed */
56 2
MIRP[11100]	/* MoveIndirectRelPt */
NPUSHW[ ]	/* 5 values pushed */
138 56 154 56 2
DELTAP1[ ]	/* DeltaExceptionP1 */
NPUSHW[ ]	/* 17 values pushed */
9 56 25 56 41 56 57 56 73 56 89 56 105 56 121 56 8
DELTAP1[ ]	/* DeltaExceptionP1 */
SVTCA[0]	/* SetFreedomAndProjectionVectorToAxis */
PUSHW[ ]	/* 1 value pushed */
0
RCVT[ ]	/* ReadCVT */
IF[ ]	/* If */
PUSHW[ ]	/* 1 value pushed */
5
MDAP[1]	/* MoveDirectAbsPt */
ELSE[ ]	/* Else */
PUSHW[ ]	/* 2 values pushed */
5 20
MIAP[0]	/* MoveIndirectAbsPt */
EIF[ ]	/* EndIf */
PUSHW[ ]	/* 1 value pushed */
0
RCVT[ ]	/* ReadCVT */
IF[ ]	/* If */
PUSHW[ ]	/* 1 value pushed */
6
MDAP[1]	/* MoveDirectAbsPt */
ELSE[ ]	/* Else */
PUSHW[ ]	/* 2 values pushed */
6 20
MIAP[0]	/* MoveIndirectAbsPt */
EIF[ ]	/* EndIf */
PUSHW[ ]	/* 1 value pushed */
0
RCVT[ ]	/* ReadCVT */
IF[ ]	/* If */
PUSHW[ ]	/* 1 value pushed */
15
MDAP[1]	/* MoveDirectAbsPt */
ELSE[ ]	/* Else */
PUSHW[ ]	/* 2 values pushed */
15 14
MIAP[0]	/* MoveIndirectAbsPt */
EIF[ ]	/* EndIf */
PUSHW[ ]	/* 1 value pushed */
0
RCVT[ ]	/* ReadCVT */
IF[ ]	/* If */
PUSHW[ ]	/* 1 value pushed */
25
MDAP[1]	/* MoveDirectAbsPt */
ELSE[ ]	/* Else */
PUSHW[ ]	/* 2 values pushed */
25 4
MIAP[0]	/* MoveIndirectAbsPt */
EIF[ ]	/* EndIf */
PUSHW[ ]	/* 1 value pushed */
0
RCVT[ ]	/* ReadCVT */
IF[ ]	/* If */
PUSHW[ ]	/* 1 value pushed */
29
MDAP[1]	/* MoveDirectAbsPt */
ELSE[ ]	/* Else */
PUSHW[ ]	/* 2 values pushed */
29 4
MIAP[0]	/* MoveIndirectAbsPt */
EIF[ ]	/* EndIf */
PUSHW[ ]	/* 1 value pushed */
0
RCVT[ ]	/* ReadCVT */
IF[ ]	/* If */
PUSHW[ ]	/* 1 value pushed */
35
MDAP[1]	/* MoveDirectAbsPt */
ELSE[ ]	/* Else */
PUSHW[ ]	/* 2 values pushed */
35 4
MIAP[0]	/* MoveIndirectAbsPt */
EIF[ ]	/* EndIf */
PUSHW[ ]	/* 3 values pushed */
12 25 5
SRP1[ ]	/* SetRefPoint1 */
SRP2[ ]	/* SetRefPoint2 */
IP[ ]	/* InterpolatePts */
PUSHW[ ]	/* 1 value pushed */
25
SRP0[ ]	/* SetRefPoint0 */
PUSHW[ ]	/* 2 values pushed */
51 1
MIRP[11100]	/* MoveIndirectRelPt */
NPUSHW[ ]	/* 33 values pushed */
7 51 23 51 39 51 55 51 71 51 87 51 103 51 119 51 135 51 151 51 167 51 183 51 199 51 215 51 231 51 247 51 16
DELTAP1[ ]	/* DeltaExceptionP1 */
NPUSHW[ ]	/* 19 values pushed */
7 51 23 51 39 51 55 51 71 51 87 51 103 51 119 51 135 51 9
DELTAP2[ ]	/* DeltaExceptionP2 */
NPUSHW[ ]	/* 5 values pushed */
150 51 166 51 2
DELTAP2[ ]	/* DeltaExceptionP2 */
PUSHW[ ]	/* 1 value pushed */
15
SRP0[ ]	/* SetRefPoint0 */
PUSHW[ ]	/* 2 values pushed */
61 1
MIRP[11100]	/* MoveIndirectRelPt */
NPUSHW[ ]	/* 5 values pushed */
153 61 169 61 2
DELTAP2[ ]	/* DeltaExceptionP2 */
NPUSHW[ ]	/* 33 values pushed */
8 61 24 61 40 61 56 61 72 61 88 61 104 61 120 61 136 61 152 61 168 61 184 61 200 61 216 61 232 61 248 61 16
DELTAP1[ ]	/* DeltaExceptionP1 */
NPUSHW[ ]	/* 19 values pushed */
8 61 24 61 40 61 56 61 72 61 88 61 104 61 120 61 136 61 9
DELTAP2[ ]	/* DeltaExceptionP2 */
IUP[0]	/* InterpolateUntPts */
IUP[1]	/* InterpolateUntPts */";
};
width = 551;
}
);
note = b;
},
{
glyphname = b.011;
lastChange = "2025-01-13 19:00:14 +0000";
layers = (
{
layerId = m01;
shapes = (
{
closed = 1;
nodes = (
(165,721.333,o),
(160.333,733,o),
(151,733,cs),
(148.333,733,o),
(144,731,o),
(138,727,cs),
(123,717,ls),
(97.667,701,o),
(72.333,690.667,o),
(47,686,cs),
(34,684,ls),
(22.667,682,o),
(17,676.667,o),
(17,668,cs),
(17,658,o),
(24.667,653,o),
(40,653,cs),
(52,652,ls),
(80,649.333,o),
(84,646,o),
(84,622,cs),
(85,-19,ls),
(85,-29.667,o),
(90,-35,o),
(100,-35,cs),
(106,-35,o),
(112,-30.333,o),
(118,-21,cs),
(139,12,l),
(167.667,-11.333,o),
(212,-23,o),
(272,-23,cs),
(420,-23,o),
(508,74.667,o),
(508,236,cs),
(508,366.667,o),
(428.667,453,o),
(314,453,cs),
(255.333,453,o),
(204.667,433.667,o),
(162,395,c),
(165,698,l),
(165,698,l)
);
},
{
closed = 1;
nodes = (
(197,381.667,o),
(233.333,396,o),
(274,396,cs),
(359.333,396,o),
(416,321.333,o),
(416,208,cs),
(416,90.667,o),
(360,11,o),
(276,11,cs),
(238.667,11,o),
(209.667,23,o),
(189,47,cs),
(173,65,o),
(165,97.667,o),
(165,145,cs),
(165,353,l),
(165,353,l)
);
}
);
userData = {
assembly = "PUSHW[ ]	/* 1 value pushed */
10
CALL[ ]	/* CallFunction */
PUSHW[ ]	/* 1 value pushed */
46
MDAP[1]	/* MoveDirectAbsPt */
PUSHW[ ]	/* 1 value pushed */
47
MDAP[1]	/* MoveDirectAbsPt */
PUSHW[ ]	/* 1 value pushed */
46
SRP0[ ]	/* SetRefPoint0 */
PUSHW[ ]	/* 1 value pushed */
17
MDRP[10000]	/* MoveDirectRelPt */
PUSHW[ ]	/* 1 value pushed */
17
MDAP[1]	/* MoveDirectAbsPt */
PUSHW[ ]	/* 1 value pushed */
1
MDRP[11100]	/* MoveDirectRelPt */
PUSHW[ ]	/* 1 value pushed */
47
SRP0[ ]	/* SetRefPoint0 */
PUSHW[ ]	/* 1 value pushed */
6
MDRP[11100]	/* MoveDirectRelPt */
PUSHW[ ]	/* 1 value pushed */
1
SRP0[ ]	/* SetRefPoint0 */
PUSHW[ ]	/* 1 value pushed */
33
MDRP[10000]	/* MoveDirectRelPt */
PUSHW[ ]	/* 1 value pushed */
33
MDAP[1]	/* MoveDirectAbsPt */
PUSHW[ ]	/* 1 value pushed */
6
SRP0[ ]	/* SetRefPoint0 */
PUSHW[ ]	/* 1 value pushed */
41
MDRP[11100]	/* MoveDirectRelPt */
NPUSHW[ ]	/* 5 values pushed */
58 41 74 41 2
DELTAP2[ ]	/* DeltaExceptionP2 */
NPUSHW[ ]	/* 21 values pushed */
105 41 121 41 137 41 153 41 169 41 185 41 201 41 217 41 233 41 249 41 10
DELTAP1[ ]	/* DeltaExceptionP1 */
NPUSHW[ ]	/* 7 values pushed */
9 41 25 41 41 41 3
DELTAP2[ ]	/* DeltaExceptionP2 */
SVTCA[0]	/* SetFreedomAndProjectionVectorToAxis */
PUSHW[ ]	/* 1 value pushed */
14
MDAP[1]	/* MoveDirectAbsPt */
PUSHW[ ]	/* 1 value pushed */
35
RCVT[ ]	/* ReadCVT */
IF[ ]	/* If */
PUSHW[ ]	/* 1 value pushed */
29
MDAP[1]	/* MoveDirectAbsPt */
ELSE[ ]	/* Else */
PUSHW[ ]	/* 2 values pushed */
29 42
MIAP[0]	/* MoveIndirectAbsPt */
EIF[ ]	/* EndIf */
PUSHW[ ]	/* 1 value pushed */
35
RCVT[ ]	/* ReadCVT */
IF[ ]	/* If */
PUSHW[ ]	/* 1 value pushed */
31
MDAP[1]	/* MoveDirectAbsPt */
ELSE[ ]	/* Else */
PUSHW[ ]	/* 2 values pushed */
31 42
MIAP[0]	/* MoveIndirectAbsPt */
EIF[ ]	/* EndIf */
PUSHW[ ]	/* 1 value pushed */
35
RCVT[ ]	/* ReadCVT */
IF[ ]	/* If */
PUSHW[ ]	/* 1 value pushed */
3
MDAP[1]	/* MoveDirectAbsPt */
ELSE[ ]	/* Else */
PUSHW[ ]	/* 2 values pushed */
3 40
MIAP[0]	/* MoveIndirectAbsPt */
EIF[ ]	/* EndIf */
PUSHW[ ]	/* 1 value pushed */
35
RCVT[ ]	/* ReadCVT */
IF[ ]	/* If */
PUSHW[ ]	/* 1 value pushed */
9
MDAP[1]	/* MoveDirectAbsPt */
ELSE[ ]	/* Else */
PUSHW[ ]	/* 2 values pushed */
9 36
MIAP[0]	/* MoveIndirectAbsPt */
EIF[ ]	/* EndIf */
PUSHW[ ]	/* 1 value pushed */
35
RCVT[ ]	/* ReadCVT */
IF[ ]	/* If */
PUSHW[ ]	/* 1 value pushed */
12
MDAP[1]	/* MoveDirectAbsPt */
ELSE[ ]	/* Else */
PUSHW[ ]	/* 2 values pushed */
12 36
MIAP[0]	/* MoveIndirectAbsPt */
EIF[ ]	/* EndIf */
PUSHW[ ]	/* 1 value pushed */
35
RCVT[ ]	/* ReadCVT */
IF[ ]	/* If */
PUSHW[ ]	/* 1 value pushed */
16
MDAP[1]	/* MoveDirectAbsPt */
ELSE[ ]	/* Else */
PUSHW[ ]	/* 2 values pushed */
16 36
MIAP[0]	/* MoveIndirectAbsPt */
EIF[ ]	/* EndIf */
PUSHW[ ]	/* 3 values pushed */
1 14 31
SRP1[ ]	/* SetRefPoint1 */
SRP2[ ]	/* SetRefPoint2 */
IP[ ]	/* InterpolatePts */
PUSHW[ ]	/* 1 value pushed */
9
SRP0[ ]	/* SetRefPoint0 */
PUSHW[ ]	/* 1 value pushed */
38
MDRP[11100]	/* MoveDirectRelPt */
NPUSHW[ ]	/* 21 values pushed */
103 38 119 38 135 38 151 38 167 38 183 38 199 38 215 38 231 38 247 38 10
DELTAP1[ ]	/* DeltaExceptionP1 */
NPUSHW[ ]	/* 7 values pushed */
7 38 23 38 39 38 3
DELTAP2[ ]	/* DeltaExceptionP2 */
NPUSHW[ ]	/* 5 values pushed */
54 38 70 38 2
DELTAP2[ ]	/* DeltaExceptionP2 */
PUSHW[ ]	/* 1 value pushed */
3
SRP0[ ]	/* SetRefPoint0 */
PUSHW[ ]	/* 1 value pushed */
44
MDRP[11100]	/* MoveDirectRelPt */
NPUSHW[ ]	/* 5 values pushed */
57 44 73 44 2
DELTAP2[ ]	/* DeltaExceptionP2 */
NPUSHW[ ]	/* 21 values pushed */
104 44 120 44 136 44 152 44 168 44 184 44 200 44 216 44 232 44 248 44 10
DELTAP1[ ]	/* DeltaExceptionP1 */
NPUSHW[ ]	/* 7 values pushed */
8 44 24 44 40 44 3
DELTAP2[ ]	/* DeltaExceptionP2 */
IUP[0]	/* InterpolateUntPts */
IUP[1]	/* InterpolateUntPts */";
};
width = 556;
}
);
note = b;
},
{
glyphname = e.001;
lastChange = "2025-01-13 19:00:14 +0000";
layers = (
{
layerId = m01;
shapes = (
{
closed = 1;
nodes = (
(133,324,o),
(130.667,324.667,o),
(130,326,cs),
(129.333,327.333,o),
(129,328.667,o),
(129,330,cs),
(129,365.776,o),
(188.589,428,o),
(255,428,cs),
(327.677,428,o),
(342,381.305,o),
(342,357,cs),
(342,349.667,o),
(341.333,344.667,o),
(340,342,cs),
(338.667,339.333,o),
(337.333,337.333,o),
(336,336,cs),
(331.333,332,o),
(320.833,329,o),
(304.5,327,cs),
(288.167,325,o),
(259.333,324,o),
(218,324,cs),
(137,324,l),
(137,324,l)
);
},
{
closed = 1;
nodes = (
(381,290,o),
(397.833,290.333,o),
(407.5,291,cs),
(417.167,291.667,o),
(422.667,294,o),
(424,298,cs),
(425.333,300.667,o),
(426.333,304.167,o),
(427,308.5,cs),
(427.667,312.833,o),
(428,319.333,o),
(428,328,cs),
(428,398,o),
(363.837,462,o),
(268,462,cs),
(126.911,462,o),
(40,340.875,o),
(40,206,cs),
(40,156.667,o),
(52.333,103,o),
(87,59,cs),
(120.333,15,o),
(177.333,-16,o),
(252,-16,cs),
(310.553,-16,o),
(394.045,12.953,o),
(430,90,c),
(427.333,99.333,o),
(421,105.667,o),
(409,103,c),
(374.333,59,o),
(342.333,48,o),
(305,48,cs),
(184.722,48,o),
(117,143.062,o),
(117,260,cs),
(117,288,o),
(117.667,290,o),
(147,290,cs),
(357,290,l),
(357,290,l)
);
}
);
userData = {
assembly = "PUSHW[ ]	/* 1 value pushed */
62
MDAP[1]	/* MoveDirectAbsPt */
PUSHW[ ]	/* 1 value pushed */
63
MDAP[1]	/* MoveDirectAbsPt */
PUSHW[ ]	/* 1 value pushed */
55
MDRP[11100]	/* MoveDirectRelPt */
PUSHW[ ]	/* 2 values pushed */
6 2
MIRP[11100]	/* MoveIndirectRelPt */
NPUSHW[ ]	/* 5 values pushed */
154 6 170 6 2
DELTAP1[ ]	/* DeltaExceptionP1 */
NPUSHW[ ]	/* 19 values pushed */
9 6 25 6 41 6 57 6 73 6 89 6 105 6 121 6 137 6 9
DELTAP1[ ]	/* DeltaExceptionP1 */
PUSHW[ ]	/* 1 value pushed */
3
MDRP[10000]	/* MoveDirectRelPt */
PUSHW[ ]	/* 1 value pushed */
3
MDAP[1]	/* MoveDirectAbsPt */
PUSHW[ ]	/* 1 value pushed */
62
SRP0[ ]	/* SetRefPoint0 */
PUSHW[ ]	/* 1 value pushed */
45
MDRP[10000]	/* MoveDirectRelPt */
PUSHW[ ]	/* 1 value pushed */
45
MDAP[1]	/* MoveDirectAbsPt */
PUSHW[ ]	/* 2 values pushed */
23 2
MIRP[11100]	/* MoveIndirectRelPt */
NPUSHW[ ]	/* 19 values pushed */
6 23 22 23 38 23 54 23 70 23 86 23 102 23 118 23 134 23 9
DELTAP1[ ]	/* DeltaExceptionP1 */
NPUSHW[ ]	/* 5 values pushed */
149 23 165 23 2
DELTAP1[ ]	/* DeltaExceptionP1 */
PUSHW[ ]	/* 3 values pushed */
16 23 45
SRP1[ ]	/* SetRefPoint1 */
SRP2[ ]	/* SetRefPoint2 */
IP[ ]	/* InterpolatePts */
PUSHW[ ]	/* 1 value pushed */
55
SRP0[ ]	/* SetRefPoint0 */
PUSHW[ ]	/* 1 value pushed */
34
MDRP[10000]	/* MoveDirectRelPt */
PUSHW[ ]	/* 1 value pushed */
34
MDAP[1]	/* MoveDirectAbsPt */
PUSHW[ ]	/* 1 value pushed */
55
SRP0[ ]	/* SetRefPoint0 */
PUSHW[ ]	/* 1 value pushed */
58
MDRP[10000]	/* MoveDirectRelPt */
PUSHW[ ]	/* 1 value pushed */
58
MDAP[1]	/* MoveDirectAbsPt */
SVTCA[0]	/* SetFreedomAndProjectionVectorToAxis */
PUSHW[ ]	/* 1 value pushed */
0
RCVT[ ]	/* ReadCVT */
IF[ ]	/* If */
PUSHW[ ]	/* 1 value pushed */
50
MDAP[1]	/* MoveDirectAbsPt */
ELSE[ ]	/* Else */
PUSHW[ ]	/* 2 values pushed */
50 10
MIAP[0]	/* MoveIndirectAbsPt */
EIF[ ]	/* EndIf */
PUSHW[ ]	/* 1 value pushed */
0
RCVT[ ]	/* ReadCVT */
IF[ ]	/* If */
PUSHW[ ]	/* 1 value pushed */
39
MDAP[1]	/* MoveDirectAbsPt */
ELSE[ ]	/* Else */
PUSHW[ ]	/* 2 values pushed */
39 4
MIAP[0]	/* MoveIndirectAbsPt */
EIF[ ]	/* EndIf */
PUSHW[ ]	/* 3 values pushed */
0 50 39
SRP1[ ]	/* SetRefPoint1 */
SRP2[ ]	/* SetRefPoint2 */
IP[ ]	/* InterpolatePts */
PUSHW[ ]	/* 1 value pushed */
0
MDAP[1]	/* MoveDirectAbsPt */
PUSHW[ ]	/* 1 value pushed */
50
SRP0[ ]	/* SetRefPoint0 */
PUSHW[ ]	/* 2 values pushed */
11 1
MIRP[11100]	/* MoveIndirectRelPt */
NPUSHW[ ]	/* 5 values pushed */
185 11 201 11 2
DELTAP2[ ]	/* DeltaExceptionP2 */
NPUSHW[ ]	/* 33 values pushed */
8 11 24 11 40 11 56 11 72 11 88 11 104 11 120 11 136 11 152 11 168 11 184 11 200 11 216 11 232 11 248 11 16
DELTAP1[ ]	/* DeltaExceptionP1 */
NPUSHW[ ]	/* 23 values pushed */
8 11 24 11 40 11 56 11 72 11 88 11 104 11 120 11 136 11 152 11 168 11 11
DELTAP2[ ]	/* DeltaExceptionP2 */
PUSHW[ ]	/* 1 value pushed */
0
SRP0[ ]	/* SetRefPoint0 */
PUSHW[ ]	/* 2 values pushed */
20 1
MIRP[11100]	/* MoveIndirectRelPt */
PUSHW[ ]	/* 1 value pushed */
39
SRP0[ ]	/* SetRefPoint0 */
PUSHW[ ]	/* 2 values pushed */
28 1
MIRP[11100]	/* MoveIndirectRelPt */
NPUSHW[ ]	/* 33 values pushed */
7 28 23 28 39 28 55 28 71 28 87 28 103 28 119 28 135 28 151 28 167 28 183 28 199 28 215 28 231 28 247 28 16
DELTAP1[ ]	/* DeltaExceptionP1 */
NPUSHW[ ]	/* 23 values pushed */
7 28 23 28 39 28 55 28 71 28 87 28 103 28 119 28 135 28 151 28 167 28 11
DELTAP2[ ]	/* DeltaExceptionP2 */
NPUSHW[ ]	/* 5 values pushed */
182 28 198 28 2
DELTAP2[ ]	/* DeltaExceptionP2 */
IUP[0]	/* InterpolateUntPts */
IUP[1]	/* InterpolateUntPts */";
};
width = 449;
}
);
note = e;
},
{
glyphname = e.002;
lastChange = "2025-01-13 19:00:14 +0000";
layers = (
{
hints = (
{
horizontal = 1;
place = (415,41);
type = Stem;
},
{
horizontal = 1;
place = (276,39);
type = Stem;
},
{
horizontal = 1;
place = (-9,65);
type = Stem;
},
{
place = (325,74);
type = Stem;
},
{
place = (39,74);
type = Stem;
}
);
layerId = m01;
shapes = (
{
closed = 1;
nodes = (
(387,91,l),
(363,76,l),
(331,64,l),
(279,56,l),
(241,61,l),
(189,83,l),
(160,107,l),
(133,148,l),
(115,202,l),
(113,276,l),
(350,276,l),
(383,279,l),
(393,291,l),
(398,325,l),
(393,364,l),
(378,395,l),
(342,431,l),
(308,447,l),
(251,456,l),
(190,447,l),
(151,430,l),
(109,396,l),
(74,352,l),
(44,270,l),
(39,212,l),
(50,133,l),
(78,73,l),
(115,31,l),
(154,9,l),
(200,-10,l),
(236,-9,l),
(281,-8,l),
(319,6,l),
(370,36,l),
(403,67,l),
(403,67,l)
);
},
{
closed = 1;
nodes = (
(122,314,l),
(132,341,l),
(169,385,l),
(201,407,l),
(242,414,l),
(270,410,l),
(307,387,l),
(325,342,l),
(318,323,l),
(298,314,l),
(298,314,l)
);
}
);
width = 442;
}
);
},
{
glyphname = e.003;
lastChange = "2025-01-13 19:00:14 +0000";
layers = (
{
hints = (
{
horizontal = 1;
place = (415,41);
type = Stem;
},
{
horizontal = 1;
place = (276,39);
type = Stem;
},
{
horizontal = 1;
place = (-9,65);
type = Stem;
},
{
place = (325,74);
type = Stem;
},
{
place = (39,74);
type = Stem;
}
);
layerId = m01;
shapes = (
{
closed = 1;
nodes = (
(387,91,l),
(363,76,l),
(331,64,l),
(279,56,l),
(241,61,l),
(189,83,l),
(160,107,l),
(133,148,l),
(115,202,l),
(113,276,l),
(350,276,l),
(383,279,l),
(393,291,l),
(398,325,l),
(393,364,l),
(378,395,l),
(342,431,l),
(308,447,l),
(251,456,l),
(190,447,l),
(151,430,l),
(109,396,l),
(74,352,l),
(44,270,l),
(39,212,l),
(50,133,l),
(78,73,l),
(115,31,l),
(154,9,l),
(200,-10,l),
(236,-9,l),
(281,-8,l),
(319,6,l),
(370,36,l),
(403,67,l),
(403,67,l)
);
},
{
closed = 1;
nodes = (
(122,314,l),
(132,341,l),
(169,385,l),
(201,407,l),
(242,414,l),
(270,410,l),
(307,387,l),
(325,342,l),
(318,323,l),
(298,314,l),
(298,314,l)
);
}
);
width = 442;
}
);
},
{
glyphname = e.004;
lastChange = "2025-01-13 19:00:14 +0000";
layers = (
{
hints = (
{
horizontal = 1;
place = (441,22);
type = Stem;
},
{
horizontal = 1;
place = (297,26);
type = Stem;
},
{
horizontal = 1;
place = (-13,53);
type = Stem;
},
{
place = (25,110);
type = Stem;
}
);
layerId = m01;
shapes = (
{
closed = 1;
nodes = (
(25,230,l),
(25,180,l),
(36,131,l),
(58,86,l),
(91,49,l),
(125,21,l),
(166,2,l),
(211,-12,l),
(259,-12,l),
(306,-12,l),
(350,2,l),
(391,24,l),
(430,57,l),
(449,78,l),
(452,87,l),
(445,96,l),
(399,66,l),
(348,43,l),
(312,39,l),
(263,47,l),
(219,68,l),
(180,102,l),
(151,147,l),
(141,183,l),
(135,237,l),
(137,271,l),
(144,291,l),
(166,297,l),
(259,297,l),
(394,295,l),
(441,296,l),
(451,302,l),
(453,315,l),
(442,361,l),
(424,389,l),
(383,428,l),
(342,449,l),
(274,460,l),
(231,457,l),
(173,441,l),
(111,406,l),
(81,378,l),
(57,341,l),
(36,299,l),
(36,299,l)
);
},
{
closed = 1;
nodes = (
(149,347,l),
(159,373,l),
(179,395,l),
(232,431,l),
(272,439,l),
(322,423,l),
(347,399,l),
(352,378,l),
(345,355,l),
(332,342,l),
(310,328,l),
(259,322,l),
(163,322,l),
(151,326,l),
(151,326,l)
);
}
);
width = 461;
}
);
},
{
glyphname = e.005;
lastChange = "2025-01-13 19:00:14 +0000";
layers = (
{
hints = (
{
horizontal = 1;
place = (434,29);
type = Stem;
},
{
horizontal = 1;
place = (278,29);
type = Stem;
},
{
horizontal = 1;
place = (-10,66);
type = Stem;
},
{
place = (316,87);
type = Stem;
},
{
place = (32,76);
type = Stem;
}
);
layerId = m01;
shapes = (
{
closed = 1;
nodes = (
(111,277,l),
(149,279,l),
(232,277,l),
(332,278,l),
(386,275,l),
(401,279,l),
(402,285,l),
(403,310,l),
(390,370,l),
(380,394,l),
(327,442,l),
(306,455,l),
(244,461,l),
(172,448,l),
(120,409,l),
(104,395,l),
(79,360,l),
(52,307,l),
(35,257,l),
(33,207,l),
(41,128,l),
(66,75,l),
(97,37,l),
(115,23,l),
(181,-10,l),
(226,-12,l),
(261,-11,l),
(314,14,l),
(348,35,l),
(399,89,l),
(404,98,l),
(387,112,l),
(363,91,l),
(310,61,l),
(274,54,l),
(237,57,l),
(180,86,l),
(148,121,l),
(127,153,l),
(112,213,l),
(110,251,l),
(110,251,l)
);
},
{
closed = 1;
nodes = (
(228,432,l),
(269,423,l),
(296,401,l),
(317,342,l),
(310,322,l),
(296,311,l),
(259,307,l),
(201,306,l),
(152,304,l),
(134,305,l),
(117,307,l),
(120,324,l),
(158,392,l),
(186,418,l),
(208,429,l),
(208,429,l)
);
}
);
width = 425;
}
);
},
{
glyphname = e.006;
lastChange = "2025-01-13 19:00:14 +0000";
layers = (
{
hints = (
{
horizontal = 1;
place = (429,31);
type = Stem;
},
{
horizontal = 1;
place = (284,28);
type = Stem;
},
{
horizontal = 1;
place = (-14,63);
type = Stem;
},
{
place = (337,79);
type = Stem;
},
{
place = (27,80);
type = Stem;
}
);
layerId = m01;
shapes = (
{
closed = 1;
nodes = (
(226,284,l),
(302,285,l),
(406,288,l),
(415,305,l),
(393,371,l),
(346,428,l),
(305,450,l),
(244,460,l),
(188,454,l),
(140,436,l),
(104,411,l),
(78,379,l),
(51,335,l),
(29,252,l),
(27,226,l),
(29,182,l),
(40,132,l),
(66,83,l),
(84,59,l),
(113,30,l),
(135,14,l),
(186,-9,l),
(222,-12,l),
(274,-7,l),
(323,12,l),
(389,60,l),
(411,89,l),
(400,101,l),
(350,72,l),
(307,53,l),
(276,49,l),
(203,64,l),
(156,93,l),
(134,124,l),
(112,177,l),
(106,240,l),
(112,287,l),
(161,285,l),
(161,285,l)
);
},
{
closed = 1;
nodes = (
(246,430,l),
(280,425,l),
(303,411,l),
(328,386,l),
(337,353,l),
(330,330,l),
(317,320,l),
(294,319,l),
(265,317,l),
(205,316,l),
(160,315,l),
(132,314,l),
(120,320,l),
(121,332,l),
(125,344,l),
(162,395,l),
(182,408,l),
(182,408,l)
);
}
);
width = 441;
}
);
},
{
glyphname = e.007;
lastChange = "2025-01-13 19:00:14 +0000";
layers = (
{
layerId = m01;
shapes = (
{
closed = 1;
nodes = (
(461,301,o),
(470,307.333,o),
(470,320,cs),
(470,348.667,o),
(458,377.333,o),
(434,406,cs),
(401.333,444.667,o),
(352,464,o),
(286,464,cs),
(142,464,o),
(37,361.667,o),
(37,219,cs),
(37,84.333,o),
(132.667,-9,o),
(270,-9,cs),
(336,-9,o),
(393.333,13.333,o),
(442,58,cs),
(459.333,74,o),
(468,86,o),
(468,94,cs),
(468,100.667,o),
(465,104,o),
(459,104,cs),
(455,104,o),
(447.667,98.667,o),
(437,88,cs),
(409,60.667,o),
(371.667,47,o),
(325,47,cs),
(222.333,47,o),
(147,132,o),
(147,248,cs),
(147,266,o),
(147.667,277.333,o),
(149,282,cs),
(151.667,294.667,o),
(159.667,301,o),
(173,301,cs),
(443,301,l),
(443,301,l)
);
},
{
closed = 1;
nodes = (
(175.333,332,o),
(167.667,332.5,o),
(165,333.5,cs),
(162.333,334.5,o),
(161,337.667,o),
(161,343,cs),
(161,353.667,o),
(166.667,367.333,o),
(178,384,cs),
(203.333,422.667,o),
(238.667,442,o),
(284,442,cs),
(334.667,442,o),
(367,418.333,o),
(367,381,cs),
(367,348.333,o),
(344,332,o),
(298,332,cs),
(188,332,l),
(188,332,l)
);
}
);
userData = {
assembly = "PUSHW[ ]	/* 1 value pushed */
10
CALL[ ]	/* CallFunction */
PUSHW[ ]	/* 1 value pushed */
43
MDAP[1]	/* MoveDirectAbsPt */
PUSHW[ ]	/* 1 value pushed */
44
MDAP[1]	/* MoveDirectAbsPt */
PUSHW[ ]	/* 1 value pushed */
43
SRP0[ ]	/* SetRefPoint0 */
PUSHW[ ]	/* 1 value pushed */
21
MDRP[10000]	/* MoveDirectRelPt */
PUSHW[ ]	/* 1 value pushed */
21
MDAP[1]	/* MoveDirectAbsPt */
PUSHW[ ]	/* 1 value pushed */
5
MDRP[11100]	/* MoveDirectRelPt */
NPUSHW[ ]	/* 21 values pushed */
102 5 118 5 134 5 150 5 166 5 182 5 198 5 214 5 230 5 246 5 10
DELTAP1[ ]	/* DeltaExceptionP1 */
NPUSHW[ ]	/* 7 values pushed */
6 5 22 5 38 5 3
DELTAP2[ ]	/* DeltaExceptionP2 */
NPUSHW[ ]	/* 5 values pushed */
53 5 69 5 2
DELTAP2[ ]	/* DeltaExceptionP2 */
PUSHW[ ]	/* 1 value pushed */
3
MDRP[10000]	/* MoveDirectRelPt */
PUSHW[ ]	/* 1 value pushed */
3
MDAP[1]	/* MoveDirectAbsPt */
PUSHW[ ]	/* 1 value pushed */
44
SRP0[ ]	/* SetRefPoint0 */
PUSHW[ ]	/* 1 value pushed */
28
MDRP[11100]	/* MoveDirectRelPt */
PUSHW[ ]	/* 1 value pushed */
14
MDRP[10000]	/* MoveDirectRelPt */
PUSHW[ ]	/* 1 value pushed */
14
MDAP[1]	/* MoveDirectAbsPt */
PUSHW[ ]	/* 1 value pushed */
28
SRP0[ ]	/* SetRefPoint0 */
PUSHW[ ]	/* 1 value pushed */
33
MDRP[11100]	/* MoveDirectRelPt */
NPUSHW[ ]	/* 5 values pushed */
58 33 74 33 2
DELTAP2[ ]	/* DeltaExceptionP2 */
NPUSHW[ ]	/* 21 values pushed */
105 33 121 33 137 33 153 33 169 33 185 33 201 33 217 33 233 33 249 33 10
DELTAP1[ ]	/* DeltaExceptionP1 */
NPUSHW[ ]	/* 7 values pushed */
9 33 25 33 41 33 3
DELTAP2[ ]	/* DeltaExceptionP2 */
SVTCA[0]	/* SetFreedomAndProjectionVectorToAxis */
PUSHW[ ]	/* 1 value pushed */
37
RCVT[ ]	/* ReadCVT */
IF[ ]	/* If */
PUSHW[ ]	/* 1 value pushed */
24
MDAP[1]	/* MoveDirectAbsPt */
ELSE[ ]	/* Else */
PUSHW[ ]	/* 2 values pushed */
24 42
MIAP[0]	/* MoveIndirectAbsPt */
EIF[ ]	/* EndIf */
PUSHW[ ]	/* 1 value pushed */
37
RCVT[ ]	/* ReadCVT */
IF[ ]	/* If */
PUSHW[ ]	/* 1 value pushed */
18
MDAP[1]	/* MoveDirectAbsPt */
ELSE[ ]	/* Else */
PUSHW[ ]	/* 2 values pushed */
18 38
MIAP[0]	/* MoveIndirectAbsPt */
EIF[ ]	/* EndIf */
PUSHW[ ]	/* 3 values pushed */
31 1 13
CALL[ ]	/* CallFunction */
PUSHW[ ]	/* 1 value pushed */
31
SRP0[ ]	/* SetRefPoint0 */
PUSHW[ ]	/* 1 value pushed */
18
SRP0[ ]	/* SetRefPoint0 */
PUSHW[ ]	/* 1 value pushed */
8
MDRP[11100]	/* MoveDirectRelPt */
NPUSHW[ ]	/* 21 values pushed */
103 8 119 8 135 8 151 8 167 8 183 8 199 8 215 8 231 8 247 8 10
DELTAP1[ ]	/* DeltaExceptionP1 */
NPUSHW[ ]	/* 7 values pushed */
7 8 23 8 39 8 3
DELTAP2[ ]	/* DeltaExceptionP2 */
NPUSHW[ ]	/* 5 values pushed */
54 8 70 8 2
DELTAP2[ ]	/* DeltaExceptionP2 */
PUSHW[ ]	/* 1 value pushed */
24
SRP0[ ]	/* SetRefPoint0 */
PUSHW[ ]	/* 1 value pushed */
36
MDRP[11100]	/* MoveDirectRelPt */
NPUSHW[ ]	/* 5 values pushed */
57 36 73 36 2
DELTAP2[ ]	/* DeltaExceptionP2 */
NPUSHW[ ]	/* 21 values pushed */
104 36 120 36 136 36 152 36 168 36 184 36 200 36 216 36 232 36 248 36 10
DELTAP1[ ]	/* DeltaExceptionP1 */
NPUSHW[ ]	/* 7 values pushed */
8 36 24 36 40 36 3
DELTAP2[ ]	/* DeltaExceptionP2 */
IUP[0]	/* InterpolateUntPts */
IUP[1]	/* InterpolateUntPts */";
};
width = 502;
}
);
note = e;
},
{
glyphname = e.008;
lastChange = "2025-01-13 19:00:14 +0000";
layers = (
{
layerId = m01;
shapes = (
{
closed = 1;
nodes = (
(413.333,273.667,o),
(416,284.333,o),
(416,305,cs),
(416,347,o),
(404.333,381.333,o),
(381,408,cs),
(349,445.333,o),
(306.667,464,o),
(254,464,cs),
(195.333,464,o),
(146.333,441.333,o),
(107,396,cs),
(59.667,342,o),
(36,275.667,o),
(36,197,cs),
(36,151,o),
(48.667,106.667,o),
(74,64,cs),
(104.667,14.667,o),
(169,-19,o),
(233,-19,cs),
(283,-19,o),
(327.667,-1,o),
(367,35,cs),
(401,65.667,o),
(418,85.667,o),
(418,95,cs),
(418,99,o),
(406,109,o),
(402,109,cs),
(400,109,o),
(397.667,107.667,o),
(395,105,cs),
(385.667,94.333,o),
(336,50,o),
(284,50,cs),
(233.333,50,o),
(190.667,71.667,o),
(156,115,cs),
(128.667,149.667,o),
(115,191.667,o),
(115,241,cs),
(115,256.333,o),
(115.5,265.333,o),
(116.5,268,cs),
(117.5,270.667,o),
(120.667,272,o),
(126,272,cs),
(138,272,ls),
(142.667,272,o),
(150.333,272.333,o),
(161,273,cs),
(169.667,273,o),
(180,273,o),
(192,273,cs),
(300,272,l),
(378,273,l),
(408,273,l),
(408,273,l)
);
},
{
closed = 1;
nodes = (
(132.667,305,o),
(123,307,o),
(123,311,cs),
(123,330.333,o),
(132,351.667,o),
(150,375,cs),
(178.667,414.333,o),
(209,434,o),
(241,434,cs),
(286.333,434,o),
(325,392,o),
(325,344,cs),
(325,325.333,o),
(318.5,314.167,o),
(305.5,310.5,cs),
(292.5,306.833,o),
(251.333,305,o),
(182,305,cs),
(152,305,l),
(152,305,l)
);
}
);
userData = {
assembly = "PUSHW[ ]	/* 1 value pushed */
10
CALL[ ]	/* CallFunction */
PUSHW[ ]	/* 1 value pushed */
55
MDAP[1]	/* MoveDirectAbsPt */
PUSHW[ ]	/* 1 value pushed */
56
MDAP[1]	/* MoveDirectAbsPt */
PUSHW[ ]	/* 1 value pushed */
40
MDRP[11100]	/* MoveDirectRelPt */
PUSHW[ ]	/* 1 value pushed */
0
MDRP[10000]	/* MoveDirectRelPt */
PUSHW[ ]	/* 1 value pushed */
0
MDAP[1]	/* MoveDirectAbsPt */
PUSHW[ ]	/* 1 value pushed */
55
SRP0[ ]	/* SetRefPoint0 */
PUSHW[ ]	/* 1 value pushed */
32
MDRP[10000]	/* MoveDirectRelPt */
PUSHW[ ]	/* 1 value pushed */
32
MDAP[1]	/* MoveDirectAbsPt */
PUSHW[ ]	/* 1 value pushed */
11
MDRP[11100]	/* MoveDirectRelPt */
NPUSHW[ ]	/* 21 values pushed */
102 11 118 11 134 11 150 11 166 11 182 11 198 11 214 11 230 11 246 11 10
DELTAP1[ ]	/* DeltaExceptionP1 */
NPUSHW[ ]	/* 7 values pushed */
6 11 22 11 38 11 3
DELTAP2[ ]	/* DeltaExceptionP2 */
NPUSHW[ ]	/* 5 values pushed */
53 11 69 11 2
DELTAP2[ ]	/* DeltaExceptionP2 */
PUSHW[ ]	/* 1 value pushed */
40
SRP0[ ]	/* SetRefPoint0 */
PUSHW[ ]	/* 1 value pushed */
23
MDRP[10000]	/* MoveDirectRelPt */
PUSHW[ ]	/* 1 value pushed */
23
MDAP[1]	/* MoveDirectAbsPt */
PUSHW[ ]	/* 1 value pushed */
11
SRP0[ ]	/* SetRefPoint0 */
PUSHW[ ]	/* 1 value pushed */
34
MDRP[10000]	/* MoveDirectRelPt */
PUSHW[ ]	/* 1 value pushed */
34
MDAP[1]	/* MoveDirectAbsPt */
PUSHW[ ]	/* 1 value pushed */
40
SRP0[ ]	/* SetRefPoint0 */
PUSHW[ ]	/* 1 value pushed */
46
MDRP[11100]	/* MoveDirectRelPt */
NPUSHW[ ]	/* 5 values pushed */
58 46 74 46 2
DELTAP2[ ]	/* DeltaExceptionP2 */
NPUSHW[ ]	/* 21 values pushed */
105 46 121 46 137 46 153 46 169 46 185 46 201 46 217 46 233 46 249 46 10
DELTAP1[ ]	/* DeltaExceptionP1 */
NPUSHW[ ]	/* 7 values pushed */
9 46 25 46 41 46 3
DELTAP2[ ]	/* DeltaExceptionP2 */
SVTCA[0]	/* SetFreedomAndProjectionVectorToAxis */
PUSHW[ ]	/* 1 value pushed */
37
RCVT[ ]	/* ReadCVT */
IF[ ]	/* If */
PUSHW[ ]	/* 1 value pushed */
36
MDAP[1]	/* MoveDirectAbsPt */
ELSE[ ]	/* Else */
PUSHW[ ]	/* 2 values pushed */
36 42
MIAP[0]	/* MoveIndirectAbsPt */
EIF[ ]	/* EndIf */
PUSHW[ ]	/* 1 value pushed */
37
RCVT[ ]	/* ReadCVT */
IF[ ]	/* If */
PUSHW[ ]	/* 1 value pushed */
27
MDAP[1]	/* MoveDirectAbsPt */
ELSE[ ]	/* Else */
PUSHW[ ]	/* 2 values pushed */
27 38
MIAP[0]	/* MoveIndirectAbsPt */
EIF[ ]	/* EndIf */
PUSHW[ ]	/* 3 values pushed */
40 2 13
CALL[ ]	/* CallFunction */
PUSHW[ ]	/* 1 value pushed */
40
SRP0[ ]	/* SetRefPoint0 */
PUSHW[ ]	/* 1 value pushed */
2
SRP0[ ]	/* SetRefPoint0 */
PUSHW[ ]	/* 1 value pushed */
0
MDRP[10000]	/* MoveDirectRelPt */
PUSHW[ ]	/* 1 value pushed */
0
MDAP[1]	/* MoveDirectAbsPt */
PUSHW[ ]	/* 1 value pushed */
2
SRP0[ ]	/* SetRefPoint0 */
PUSHW[ ]	/* 1 value pushed */
5
MDRP[10000]	/* MoveDirectRelPt */
PUSHW[ ]	/* 1 value pushed */
5
MDAP[1]	/* MoveDirectAbsPt */
PUSHW[ ]	/* 1 value pushed */
2
SRP0[ ]	/* SetRefPoint0 */
PUSHW[ ]	/* 1 value pushed */
7
MDRP[10000]	/* MoveDirectRelPt */
PUSHW[ ]	/* 1 value pushed */
27
SRP0[ ]	/* SetRefPoint0 */
PUSHW[ ]	/* 1 value pushed */
15
MDRP[11100]	/* MoveDirectRelPt */
NPUSHW[ ]	/* 21 values pushed */
103 15 119 15 135 15 151 15 167 15 183 15 199 15 215 15 231 15 247 15 10
DELTAP1[ ]	/* DeltaExceptionP1 */
NPUSHW[ ]	/* 7 values pushed */
7 15 23 15 39 15 3
DELTAP2[ ]	/* DeltaExceptionP2 */
NPUSHW[ ]	/* 5 values pushed */
54 15 70 15 2
DELTAP2[ ]	/* DeltaExceptionP2 */
PUSHW[ ]	/* 1 value pushed */
40
SRP0[ ]	/* SetRefPoint0 */
PUSHW[ ]	/* 1 value pushed */
42
MDRP[10000]	/* MoveDirectRelPt */
PUSHW[ ]	/* 1 value pushed */
36
SRP0[ ]	/* SetRefPoint0 */
PUSHW[ ]	/* 1 value pushed */
49
MDRP[11100]	/* MoveDirectRelPt */
NPUSHW[ ]	/* 5 values pushed */
57 49 73 49 2
DELTAP2[ ]	/* DeltaExceptionP2 */
NPUSHW[ ]	/* 21 values pushed */
104 49 120 49 136 49 152 49 168 49 184 49 200 49 216 49 232 49 248 49 10
DELTAP1[ ]	/* DeltaExceptionP1 */
NPUSHW[ ]	/* 7 values pushed */
8 49 24 49 40 49 3
DELTAP2[ ]	/* DeltaExceptionP2 */
IUP[0]	/* InterpolateUntPts */
IUP[1]	/* InterpolateUntPts */";
};
width = 454;
}
);
note = e;
},
{
glyphname = e.009;
lastChange = "2025-01-13 19:00:14 +0000";
layers = (
{
layerId = m01;
shapes = (
{
closed = 1;
nodes = (
(369.333,284.333,o),
(411.333,283,o),
(458,279,c),
(454.667,317.667,o),
(452,340,o),
(450,346,cs),
(426,419.333,o),
(356,466,o),
(268,466,cs),
(137.333,466,o),
(44,363.667,o),
(44,221,cs),
(44,82.333,o),
(138.333,-19,o),
(269,-19,cs),
(339.667,-19,o),
(398.333,6.667,o),
(445,58,cs),
(458,71,l),
(448,75.667,o),
(441.667,83.667,o),
(439,95,c),
(399.667,58.333,o),
(357.333,40,o),
(312,40,cs),
(202.667,40,o),
(120,132.333,o),
(120,255,cs),
(120,266.333,o),
(120.333,275.333,o),
(121,282,c),
(239,282,l),
(332,283,l),
(332,283,l)
);
},
{
closed = 1;
nodes = (
(132,311,o),
(127,314.667,o),
(127,322,cs),
(127,378,o),
(201,436,o),
(269,436,cs),
(322.333,436,o),
(367,397,o),
(367,349,cs),
(367,325,o),
(357,322.333,o),
(329,321,cs),
(148,311,l),
(142,311,l),
(142,311,l)
);
}
);
userData = {
assembly = "PUSHW[ ]	/* 1 value pushed */
10
CALL[ ]	/* CallFunction */
PUSHW[ ]	/* 3 values pushed */
3 16 13
CALL[ ]	/* CallFunction */
PUSHW[ ]	/* 1 value pushed */
3
SRP0[ ]	/* SetRefPoint0 */
NPUSHW[ ]	/* 21 values pushed */
102 3 118 3 134 3 150 3 166 3 182 3 198 3 214 3 230 3 246 3 10
DELTAP1[ ]	/* DeltaExceptionP1 */
NPUSHW[ ]	/* 7 values pushed */
6 3 22 3 38 3 3
DELTAP2[ ]	/* DeltaExceptionP2 */
NPUSHW[ ]	/* 5 values pushed */
53 3 69 3 2
DELTAP2[ ]	/* DeltaExceptionP2 */
PUSHW[ ]	/* 1 value pushed */
37
MDRP[10000]	/* MoveDirectRelPt */
PUSHW[ ]	/* 1 value pushed */
37
MDAP[1]	/* MoveDirectAbsPt */
SVTCA[0]	/* SetFreedomAndProjectionVectorToAxis */
PUSHW[ ]	/* 1 value pushed */
33
RCVT[ ]	/* ReadCVT */
IF[ ]	/* If */
PUSHW[ ]	/* 1 value pushed */
19
MDAP[1]	/* MoveDirectAbsPt */
ELSE[ ]	/* Else */
PUSHW[ ]	/* 2 values pushed */
19 38
MIAP[0]	/* MoveIndirectAbsPt */
EIF[ ]	/* EndIf */
PUSHW[ ]	/* 1 value pushed */
33
RCVT[ ]	/* ReadCVT */
IF[ ]	/* If */
PUSHW[ ]	/* 1 value pushed */
13
MDAP[1]	/* MoveDirectAbsPt */
ELSE[ ]	/* Else */
PUSHW[ ]	/* 2 values pushed */
13 34
MIAP[0]	/* MoveIndirectAbsPt */
EIF[ ]	/* EndIf */
PUSHW[ ]	/* 1 value pushed */
6
MDRP[11100]	/* MoveDirectRelPt */
NPUSHW[ ]	/* 21 values pushed */
103 6 119 6 135 6 151 6 167 6 183 6 199 6 215 6 231 6 247 6 10
DELTAP1[ ]	/* DeltaExceptionP1 */
NPUSHW[ ]	/* 7 values pushed */
7 6 23 6 39 6 3
DELTAP2[ ]	/* DeltaExceptionP2 */
NPUSHW[ ]	/* 5 values pushed */
54 6 70 6 2
DELTAP2[ ]	/* DeltaExceptionP2 */
PUSHW[ ]	/* 3 values pushed */
8 13 19
SRP1[ ]	/* SetRefPoint1 */
SRP2[ ]	/* SetRefPoint2 */
IP[ ]	/* InterpolatePts */
PUSHW[ ]	/* 3 values pushed */
10 13 19
SRP1[ ]	/* SetRefPoint1 */
SRP2[ ]	/* SetRefPoint2 */
IP[ ]	/* InterpolatePts */
PUSHW[ ]	/* 1 value pushed */
19
SRP0[ ]	/* SetRefPoint0 */
PUSHW[ ]	/* 1 value pushed */
34
MDRP[11100]	/* MoveDirectRelPt */
NPUSHW[ ]	/* 5 values pushed */
57 34 73 34 2
DELTAP2[ ]	/* DeltaExceptionP2 */
NPUSHW[ ]	/* 21 values pushed */
104 34 120 34 136 34 152 34 168 34 184 34 200 34 216 34 232 34 248 34 10
DELTAP1[ ]	/* DeltaExceptionP1 */
NPUSHW[ ]	/* 7 values pushed */
8 34 24 34 40 34 3
DELTAP2[ ]	/* DeltaExceptionP2 */
IUP[0]	/* InterpolateUntPts */
IUP[1]	/* InterpolateUntPts */";
};
width = 490;
}
);
note = e;
},
{
glyphname = e.010;
lastChange = "2025-01-13 19:00:14 +0000";
layers = (
{
layerId = m01;
shapes = (
{
closed = 1;
nodes = (
(383.738,276,o),
(400,278.319,o),
(400,326,cs),
(400,405.882,o),
(334.405,457,o),
(253,457,cs),
(133.407,457,o),
(41,358.52,o),
(41,212,cs),
(41,82.862,o),
(126.203,-10,o),
(238,-10,cs),
(270,-10,o),
(310.667,-2.333,o),
(348,19,cs),
(376,35,o),
(390,49.667,o),
(406,67,c),
(389,90,l),
(370.333,76.667,o),
(340,55,o),
(280,55,cs),
(212,55,o),
(156.667,96,o),
(130,152,cs),
(116.667,182.667,o),
(113,207.667,o),
(113,245,cs),
(113,251.667,o),
(113,256.833,o),
(113,260.5,cs),
(113,264.167,o),
(113.667,269.333,o),
(115,276,c),
(351,276,l),
(351,276,l)
);
},
{
closed = 1;
nodes = (
(142.667,380,o),
(186.667,415,o),
(244,415,cs),
(306.093,415,o),
(326,374.378,o),
(326,343,cs),
(326,320.333,o),
(314.667,317.333,o),
(300,316,c),
(124,316,l),
(124,316,l)
);
}
);
userData = {
assembly = "PUSHW[ ]	/* 1 value pushed */
52
MDAP[1]	/* MoveDirectAbsPt */
PUSHW[ ]	/* 1 value pushed */
53
MDAP[1]	/* MoveDirectAbsPt */
PUSHW[ ]	/* 1 value pushed */
52
SRP0[ ]	/* SetRefPoint0 */
PUSHW[ ]	/* 1 value pushed */
24
MDRP[10000]	/* MoveDirectRelPt */
PUSHW[ ]	/* 1 value pushed */
24
MDAP[1]	/* MoveDirectAbsPt */
PUSHW[ ]	/* 2 values pushed */
3 2
MIRP[11100]	/* MoveIndirectRelPt */
NPUSHW[ ]	/* 17 values pushed */
6 3 22 3 38 3 54 3 70 3 86 3 102 3 118 3 8
DELTAP1[ ]	/* DeltaExceptionP1 */
NPUSHW[ ]	/* 5 values pushed */
133 3 149 3 2
DELTAP1[ ]	/* DeltaExceptionP1 */
PUSHW[ ]	/* 1 value pushed */
0
MDRP[10000]	/* MoveDirectRelPt */
PUSHW[ ]	/* 1 value pushed */
0
MDAP[1]	/* MoveDirectAbsPt */
PUSHW[ ]	/* 1 value pushed */
53
SRP0[ ]	/* SetRefPoint0 */
PUSHW[ ]	/* 1 value pushed */
34
MDRP[11100]	/* MoveDirectRelPt */
PUSHW[ ]	/* 1 value pushed */
13
MDRP[10000]	/* MoveDirectRelPt */
PUSHW[ ]	/* 1 value pushed */
13
MDAP[1]	/* MoveDirectAbsPt */
PUSHW[ ]	/* 1 value pushed */
34
SRP0[ ]	/* SetRefPoint0 */
PUSHW[ ]	/* 2 values pushed */
43 2
MIRP[11100]	/* MoveIndirectRelPt */
NPUSHW[ ]	/* 5 values pushed */
138 43 154 43 2
DELTAP1[ ]	/* DeltaExceptionP1 */
NPUSHW[ ]	/* 17 values pushed */
9 43 25 43 41 43 57 43 73 43 89 43 105 43 121 43 8
DELTAP1[ ]	/* DeltaExceptionP1 */
PUSHW[ ]	/* 3 values pushed */
51 24 13
SRP1[ ]	/* SetRefPoint1 */
SRP2[ ]	/* SetRefPoint2 */
IP[ ]	/* InterpolatePts */
SVTCA[0]	/* SetFreedomAndProjectionVectorToAxis */
PUSHW[ ]	/* 1 value pushed */
0
RCVT[ ]	/* ReadCVT */
IF[ ]	/* If */
PUSHW[ ]	/* 1 value pushed */
29
MDAP[1]	/* MoveDirectAbsPt */
ELSE[ ]	/* Else */
PUSHW[ ]	/* 2 values pushed */
29 14
MIAP[0]	/* MoveIndirectAbsPt */
EIF[ ]	/* EndIf */
PUSHW[ ]	/* 1 value pushed */
0
RCVT[ ]	/* ReadCVT */
IF[ ]	/* If */
PUSHW[ ]	/* 1 value pushed */
19
MDAP[1]	/* MoveDirectAbsPt */
ELSE[ ]	/* Else */
PUSHW[ ]	/* 2 values pushed */
19 4
MIAP[0]	/* MoveIndirectAbsPt */
EIF[ ]	/* EndIf */
PUSHW[ ]	/* 4 values pushed */
51 1 0 4
CALL[ ]	/* CallFunction */
PUSHW[ ]	/* 1 value pushed */
19
SRP0[ ]	/* SetRefPoint0 */
PUSHW[ ]	/* 2 values pushed */
9 1
MIRP[11100]	/* MoveIndirectRelPt */
NPUSHW[ ]	/* 33 values pushed */
7 9 23 9 39 9 55 9 71 9 87 9 103 9 119 9 135 9 151 9 167 9 183 9 199 9 215 9 231 9 247 9 16
DELTAP1[ ]	/* DeltaExceptionP1 */
NPUSHW[ ]	/* 19 values pushed */
7 9 23 9 39 9 55 9 71 9 87 9 103 9 119 9 135 9 9
DELTAP2[ ]	/* DeltaExceptionP2 */
NPUSHW[ ]	/* 5 values pushed */
150 9 166 9 2
DELTAP2[ ]	/* DeltaExceptionP2 */
PUSHW[ ]	/* 1 value pushed */
29
SRP0[ ]	/* SetRefPoint0 */
PUSHW[ ]	/* 2 values pushed */
48 1
MIRP[11100]	/* MoveIndirectRelPt */
NPUSHW[ ]	/* 5 values pushed */
153 48 169 48 2
DELTAP2[ ]	/* DeltaExceptionP2 */
NPUSHW[ ]	/* 33 values pushed */
8 48 24 48 40 48 56 48 72 48 88 48 104 48 120 48 136 48 152 48 168 48 184 48 200 48 216 48 232 48 248 48 16
DELTAP1[ ]	/* DeltaExceptionP1 */
NPUSHW[ ]	/* 19 values pushed */
8 48 24 48 40 48 56 48 72 48 88 48 104 48 120 48 136 48 9
DELTAP2[ ]	/* DeltaExceptionP2 */
IUP[0]	/* InterpolateUntPts */
IUP[1]	/* InterpolateUntPts */";
};
width = 444;
}
);
note = e;
},
{
glyphname = e.011;
lastChange = "2025-01-13 19:00:14 +0000";
layers = (
{
layerId = m01;
shapes = (
{
closed = 1;
nodes = (
(447.333,306,o),
(456,314.333,o),
(456,331,cs),
(456,405.667,o),
(379.667,464,o),
(281,464,cs),
(143.667,464,o),
(49,360,o),
(49,212,cs),
(49,68,o),
(133,-23,o),
(269,-23,cs),
(337,-23,o),
(389.667,-1.667,o),
(427,41,cs),
(449.667,67.667,o),
(461,87.667,o),
(461,101,cs),
(461,111,o),
(457,116,o),
(449,116,cs),
(442.333,116,o),
(437,113.667,o),
(433,109,cs),
(423,95,ls),
(398.333,63,o),
(360.333,47,o),
(309,47,cs),
(198.333,47,o),
(132,114,o),
(132,226,cs),
(132,252.667,o),
(136,281,o),
(144,311,c),
(398,306,l),
(430,306,l),
(430,306,l)
);
},
{
closed = 1;
nodes = (
(194.333,402.667,o),
(235.333,432,o),
(282,432,cs),
(327.333,432,o),
(361,407.667,o),
(361,373,cs),
(361,357.667,o),
(353,348.667,o),
(337,346,cs),
(335,345.333,o),
(320.333,345,o),
(293,345,cs),
(281,345,o),
(268.667,344.667,o),
(256,344,cs),
(245.333,344,o),
(240.333,344,o),
(241,344,cs),
(159,344,l),
(159,344,l)
);
}
);
userData = {
assembly = "PUSHW[ ]	/* 1 value pushed */
10
CALL[ ]	/* CallFunction */
PUSHW[ ]	/* 3 values pushed */
3 20 13
CALL[ ]	/* CallFunction */
PUSHW[ ]	/* 1 value pushed */
3
SRP0[ ]	/* SetRefPoint0 */
NPUSHW[ ]	/* 21 values pushed */
102 3 118 3 134 3 150 3 166 3 182 3 198 3 214 3 230 3 246 3 10
DELTAP1[ ]	/* DeltaExceptionP1 */
NPUSHW[ ]	/* 7 values pushed */
6 3 22 3 38 3 3
DELTAP2[ ]	/* DeltaExceptionP2 */
NPUSHW[ ]	/* 5 values pushed */
53 3 69 3 2
DELTAP2[ ]	/* DeltaExceptionP2 */
SVTCA[0]	/* SetFreedomAndProjectionVectorToAxis */
PUSHW[ ]	/* 1 value pushed */
35
RCVT[ ]	/* ReadCVT */
IF[ ]	/* If */
PUSHW[ ]	/* 1 value pushed */
23
MDAP[1]	/* MoveDirectAbsPt */
ELSE[ ]	/* Else */
PUSHW[ ]	/* 2 values pushed */
23 40
MIAP[0]	/* MoveIndirectAbsPt */
EIF[ ]	/* EndIf */
PUSHW[ ]	/* 1 value pushed */
35
RCVT[ ]	/* ReadCVT */
IF[ ]	/* If */
PUSHW[ ]	/* 1 value pushed */
17
MDAP[1]	/* MoveDirectAbsPt */
ELSE[ ]	/* Else */
PUSHW[ ]	/* 2 values pushed */
17 36
MIAP[0]	/* MoveIndirectAbsPt */
EIF[ ]	/* EndIf */
PUSHW[ ]	/* 3 values pushed */
34 0 13
CALL[ ]	/* CallFunction */
PUSHW[ ]	/* 1 value pushed */
34
SRP0[ ]	/* SetRefPoint0 */
PUSHW[ ]	/* 1 value pushed */
17
SRP0[ ]	/* SetRefPoint0 */
PUSHW[ ]	/* 1 value pushed */
6
MDRP[11100]	/* MoveDirectRelPt */
NPUSHW[ ]	/* 21 values pushed */
103 6 119 6 135 6 151 6 167 6 183 6 199 6 215 6 231 6 247 6 10
DELTAP1[ ]	/* DeltaExceptionP1 */
NPUSHW[ ]	/* 7 values pushed */
7 6 23 6 39 6 3
DELTAP2[ ]	/* DeltaExceptionP2 */
NPUSHW[ ]	/* 5 values pushed */
54 6 70 6 2
DELTAP2[ ]	/* DeltaExceptionP2 */
PUSHW[ ]	/* 1 value pushed */
34
SRP0[ ]	/* SetRefPoint0 */
PUSHW[ ]	/* 1 value pushed */
29
MDRP[10000]	/* MoveDirectRelPt */
PUSHW[ ]	/* 1 value pushed */
29
MDAP[1]	/* MoveDirectAbsPt */
PUSHW[ ]	/* 1 value pushed */
34
SRP0[ ]	/* SetRefPoint0 */
PUSHW[ ]	/* 1 value pushed */
32
MDRP[10000]	/* MoveDirectRelPt */
PUSHW[ ]	/* 1 value pushed */
32
MDAP[1]	/* MoveDirectAbsPt */
PUSHW[ ]	/* 1 value pushed */
34
SRP0[ ]	/* SetRefPoint0 */
PUSHW[ ]	/* 1 value pushed */
36
MDRP[10000]	/* MoveDirectRelPt */
PUSHW[ ]	/* 1 value pushed */
36
MDAP[1]	/* MoveDirectAbsPt */
PUSHW[ ]	/* 1 value pushed */
23
SRP0[ ]	/* SetRefPoint0 */
PUSHW[ ]	/* 1 value pushed */
41
MDRP[11100]	/* MoveDirectRelPt */
NPUSHW[ ]	/* 5 values pushed */
57 41 73 41 2
DELTAP2[ ]	/* DeltaExceptionP2 */
NPUSHW[ ]	/* 21 values pushed */
104 41 120 41 136 41 152 41 168 41 184 41 200 41 216 41 232 41 248 41 10
DELTAP1[ ]	/* DeltaExceptionP1 */
NPUSHW[ ]	/* 7 values pushed */
8 41 24 41 40 41 3
DELTAP2[ ]	/* DeltaExceptionP2 */
IUP[0]	/* InterpolateUntPts */
IUP[1]	/* InterpolateUntPts */";
};
width = 498;
}
);
note = e;
},
